<svg xmlns="http://www.w3.org/2000/svg" xmlns:xlink="http://www.w3.org/1999/xlink" width="100" height="100" fill="none" viewBox="0 0 100 100">
    <defs>
        <path id="10reuse-0" fill="#282536" d="M45.506 13.496c2.375-3.565 7.613-3.565 9.987 0L82.976 54.75H18.024l27.482-41.254Z"/>
        <path id="10reuse-1" d="M0-.25h57.615"/>
        <path id="10reuse-2" fill="#282536" d="M10 89h7l-1 6h-5l-1-6Z"/>
        <path id="10reuse-3" fill="#282536" fill-opacity=".6" d="M5 69.5a8.5 8.5 0 0 1 17 0v6a8.5 8.5 0 0 1-17 0v-6Z"/>
        <path id="10reuse-4" fill="#282536" d="m42 69.222.663-.459a13.814 13.814 0 0 1 16.337.46V71H42v-1.778Z"/>
    </defs>
    <g clip-path="url(#10clip0_58_397)">
        <path fill="#403C54" d="M19 54h63v40H19z"/>
        <path fill="#282536" d="M83 32h3v28h-3z"/>
        <path fill="#282536" d="M82 57h2v3h-2z"/>
        <path fill="url(#10paint0_linear_58_397)" d="M83.167 0h2.666L85 16l.833 16h-2.666l-.667-8-.667-8 .5-9.524L83.167 0Z"/>
        <use xlink:href="#10reuse-0"/>
        <mask id="10mask0_58_397" width="65" height="45" x="18" y="10" maskUnits="userSpaceOnUse" style="mask-type:alpha">
            <use xlink:href="#10reuse-0"/>
        </mask>
        <g stroke="#403C54" stroke-width=".5" mask="url(#10mask0_58_397)">
            <use xlink:href="#10reuse-1" transform="matrix(.2481 -.96874 -.96331 -.26838 18 58.864)"/>
            <use xlink:href="#10reuse-1" transform="matrix(-.2481 -.96874 .96331 -.26838 82 57.814)"/>
            <use xlink:href="#10reuse-1" transform="matrix(.2481 -.96874 -.96331 -.26838 24.237 59.677)"/>
            <use xlink:href="#10reuse-1" transform="matrix(-.2481 -.96874 .96331 -.26838 75.762 58.627)"/>
            <use xlink:href="#10reuse-1" transform="matrix(.2481 -.96874 -.96331 -.26838 30.475 60.49)"/>
            <use xlink:href="#10reuse-1" transform="matrix(-.2481 -.96874 .96331 -.26838 69.524 59.44)"/>
            <use xlink:href="#10reuse-1" transform="matrix(.2481 -.96874 -.96331 -.26838 36.713 61.304)"/>
            <use xlink:href="#10reuse-1" transform="matrix(-.2481 -.96874 .96331 -.26838 63.287 60.253)"/>
            <use xlink:href="#10reuse-1" transform="matrix(.2481 -.96874 -.96331 -.26838 42.95 62.117)"/>
            <use xlink:href="#10reuse-1" transform="matrix(-.2481 -.96874 .96331 -.26838 57.05 61.066)"/>
            <use xlink:href="#10reuse-1" transform="matrix(.2481 -.96874 -.96331 -.26838 49.188 62.93)"/>
            <use xlink:href="#10reuse-1" transform="matrix(-.2481 -.96874 .96331 -.26838 50.812 61.88)"/>
            <use xlink:href="#10reuse-1" transform="matrix(.2481 -.96874 -.96331 -.26838 55.426 63.743)"/>
            <use xlink:href="#10reuse-1" transform="matrix(-.2481 -.96874 .96331 -.26838 44.574 62.693)"/>
            <use xlink:href="#10reuse-1" transform="matrix(.2481 -.96874 -.96331 -.26838 61.663 64.556)"/>
            <use xlink:href="#10reuse-1" transform="matrix(.2481 -.96874 -.96331 -.26838 67 64.556)"/>
            <use xlink:href="#10reuse-1" transform="matrix(.2481 -.96874 -.96331 -.26838 74 64.556)"/>
            <use xlink:href="#10reuse-1" transform="matrix(-.2481 -.96874 .96331 -.26838 38.336 63.506)"/>
            <use xlink:href="#10reuse-1" transform="matrix(-.2481 -.96874 .96331 -.26838 32.294 63.506)"/>
            <use xlink:href="#10reuse-1" transform="matrix(-.2481 -.96874 .96331 -.26838 26.294 63.506)"/>
        </g>
        <path fill="#fff" d="M41.571 48v-.456l.936-.288c.608-.192.92-.592.936-1.2V34.632l-1.992.264v-.552c.896-.16 1.768-.392 2.616-.696a15.6 15.6 0 0 0 2.448-1.152l.288.24-.096 3.432v8.28c.016.544.024 1.072.024 1.584 0 .624.304 1.032.912 1.224l.984.288V48h-7.056Zm13.577.336c-.944 0-1.832-.264-2.664-.792-.832-.544-1.504-1.4-2.016-2.568-.512-1.168-.768-2.696-.768-4.584 0-1.904.256-3.44.768-4.608.512-1.168 1.184-2.024 2.016-2.568.832-.544 1.72-.816 2.664-.816.944 0 1.832.272 2.664.816.832.544 1.504 1.4 2.016 2.568.512 1.168.768 2.704.768 4.608 0 1.888-.256 3.416-.768 4.584-.512 1.168-1.184 2.024-2.016 2.568-.832.528-1.72.792-2.664.792Zm0-.672c.416 0 .768-.104 1.056-.312.288-.208.52-.568.696-1.08.192-.528.328-1.264.408-2.208.096-.96.144-2.184.144-3.672 0-1.504-.048-2.728-.144-3.672-.08-.96-.216-1.704-.408-2.232-.176-.528-.408-.896-.696-1.104-.288-.208-.64-.312-1.056-.312-.4 0-.752.104-1.056.312-.288.192-.52.552-.696 1.08-.176.528-.312 1.272-.408 2.232-.08.96-.12 2.192-.12 3.696 0 1.488.04 2.712.12 3.672.096.944.232 1.68.408 2.208.176.528.408.896.696 1.104.304.192.656.288 1.056.288Z"/>
        <path stroke="#fff" stroke-linecap="round" stroke-width="3" d="M18 54.418h65"/>
        <path fill="#282536" d="M45 72h11v22H45z"/>
        <path stroke="#282536" stroke-opacity=".6" d="M19 89h63"/>
        <path fill="#282536" fill-opacity=".6" d="m33.425 79 .25 3.619 2.689.25-2.688.323-.25 4.085-.288-4.085-2.652-.322 2.652-.251.287-3.619ZM67.5 79l.25 3.619 2.689.25-2.688.323-.251 4.085-.287-4.085-2.652-.322 2.652-.251L67.5 79Z"/>
        <path fill="#282536" d="M26 60h15v18H26z"/>
        <path fill="#403C54" d="M26.5 60.53h14v16.94h-14V60.53Z"/>
        <path fill="currentColor" d="M27 61.059h5.909v7.33H27zM34.091 61.059H40v7.33h-5.909zM34.091 69.611H40v7.33h-5.909zM27 69.611h5.909v7.33H27z"/>
        <path fill="#fff" d="M26 77.35c.65-.64 1.526-1 2.438-1h5.459l5.29.124A2.433 2.433 0 0 1 41 77.35H26Z"/>
        <path fill="#282536" d="M60 60h15v18H60z"/>
        <path fill="#403C54" d="M60.5 60.53h14v16.94h-14V60.53Z"/>
        <path fill="currentColor" d="M61 61.059h5.909v7.33H61zM68.091 61.059H74v7.33h-5.909zM68.091 69.611H74v7.33h-5.909zM61 69.611h5.909v7.33H61z"/>
        <path fill="#fff" d="M60 77.35c.65-.64 1.526-1 2.438-1h5.459l5.29.124A2.433 2.433 0 0 1 75 77.35H60Z"/>
        <path fill="#403C54" d="M55 81v2h-1v-2z"/>
        <path fill="#fff" d="M11 94c.489-5.82 6.665-9.376 12-7 5.32-3.103 12 .842 12 7H11Z"/>
        <use xlink:href="#10reuse-2"/>
        <mask id="10mask1_58_397" width="7" height="6" x="10" y="89" maskUnits="userSpaceOnUse" style="mask-type:alpha">
            <use xlink:href="#10reuse-2"/>
        </mask>
        <g mask="url(#10mask1_58_397)">
            <path stroke="#403C54" stroke-width=".2" d="M17 90.1h-7"/>
        </g>
        <use xlink:href="#10reuse-3" fill-opacity=".6"/>
        <path fill="#282536" d="M13 62h1v28h-1V62Z"/>
        <mask id="10mask2_58_397" width="17" height="23" x="5" y="61" maskUnits="userSpaceOnUse" style="mask-type:alpha">
            <use xlink:href="#10reuse-3"/>
        </mask>
        <g mask="url(#10mask2_58_397)">
            <path fill="#282536" d="m7.65 67.858.582-.813 5.539 3.966-.583.813zM7.65 71.858l.582-.813 5.539 3.966-.583.813zM7.65 75.858l.582-.813 5.539 3.966-.583.813zM7.65 79.858l.582-.813 5.539 3.966-.583.813zM9.763 65.076l.582-.813 3.775 2.703-.582.814z"/>
            <path fill="#282536" d="M17.357 64.813 16.775 64 13 66.703l.582.813zM19.5 67.813 18.918 67l-5.539 3.966.582.813 5.539-3.966ZM19.5 71.813 18.918 71l-5.539 3.966.582.813 5.539-3.966ZM19.5 75.813 18.918 75l-5.539 3.966.582.813 5.539-3.966ZM19.5 79.813 18.918 79l-5.539 3.966.582.813 5.539-3.966Z"/>
            <path fill="#fff" d="M6 60h15v5l-.052.026a7.41 7.41 0 0 1-7.564-.557 3.705 3.705 0 0 0-3.023-.56L6 65v-5Z"/>
        </g>
        <circle r="1" fill="url(#10paint1_linear_58_397)" fill-opacity=".8" transform="matrix(1 0 0 -1 8 79)"/>
        <circle r="1" fill="url(#10paint2_linear_58_397)" fill-opacity=".8" transform="matrix(1 0 0 -1 18 73)"/>
        <circle r="1" fill="url(#10paint3_linear_58_397)" fill-opacity=".8" transform="matrix(1 0 0 -1 13 72)"/>
        <circle r="1" fill="url(#10paint4_linear_58_397)" fill-opacity=".8" transform="matrix(1 0 0 -1 12 77)"/>
        <circle r="1" fill="url(#10paint5_linear_58_397)" fill-opacity=".8" transform="matrix(1 0 0 -1 17 68)"/>
        <circle r="1" fill="url(#10paint6_linear_58_397)" fill-opacity=".8" transform="matrix(1 0 0 -1 12 65)"/>
        <circle r="1" fill="url(#10paint7_linear_58_397)" fill-opacity=".8" transform="matrix(1 0 0 -1 8 69)"/>
        <circle r="1" fill="url(#10paint8_linear_58_397)" fill-opacity=".8" transform="matrix(1 0 0 -1 16 81)"/>
        <circle r="1" fill="url(#10paint9_linear_58_397)" fill-opacity=".8" transform="matrix(1 0 0 -1 19 77)"/>
        <path fill="#fff" d="M10.255 89a1.216 1.216 0 0 1 1.633-1.291l2.821 1.058 1.828-.185A.42.42 0 0 1 17 89h-6.745Z"/>
        <path fill="#435A4E" d="m50.51 59.883 1.908 2.076.994-2.563-2.902.487Z"/>
        <path fill="#435A4E" d="m51.726 60.285 1.908 2.076.995-2.563-2.903.487Z"/>
        <path fill="#435A4E" d="m55.763 61.619-2.302.386.788-2.033 1.514 1.647ZM50.49 59.883l-1.909 2.076-.994-2.563 2.902.487Z"/>
        <path fill="#435A4E" d="m49.273 60.285-1.908 2.076-.994-2.563 2.902.487Z"/>
        <path fill="#435A4E" d="m45.237 61.619 2.302.386-.789-2.033-1.513 1.647Z"/>
        <circle r=".5" fill="#FDE5A8" fill-opacity=".8" transform="matrix(1 0 0 -1 50.5 62.5)"/>
        <path fill="#FDE5A8" d="M49.5 60.786a1 1 0 1 1 2 0v1.571a2.538 2.538 0 0 1-2 0v-1.571Z"/>
        <path fill="#B13434" d="M49 59.353a.2.2 0 0 1 .303-.171l1.197.718 1.197-.718a.2.2 0 0 1 .303.171v1.152a.2.2 0 0 1-.275.185L50.5 60.2l-1.226.49a.2.2 0 0 1-.274-.185v-1.152Z"/>
        <path fill="#B13434" d="M50.648 60.135 50.5 60l-1.507 1.062.444.404 1.21-1.331Z"/>
        <path fill="#B13434" d="m50.345 60.135.148-.135L52 61.062l-.444.404-1.211-1.331Z"/>
        <use xlink:href="#10reuse-4"/>
        <mask id="10mask3_58_397" width="17" height="5" x="42" y="66" maskUnits="userSpaceOnUse" style="mask-type:alpha">
            <use xlink:href="#10reuse-4"/>
        </mask>
        <g mask="url(#10mask3_58_397)">
            <path fill="#fff" d="M36 61c.538 5.911 6.645 9.613 12.135 7.356L49 68l.673.363C55.245 71.363 62 67.327 62 61H36Z"/>
        </g>
        <path fill="#fff" d="M66 95a2 2 0 0 0-2-2h-5a2 2 0 0 0-2 2h9Z"/>
        <ellipse cx="80.5" cy="89" fill="#fff" rx="7.5" ry="7"/>
        <path fill="#282536" d="m72.872 74.443-.561.57 3.99 3.929.561-.57z"/>
        <ellipse cx="80.5" cy="80" fill="#fff" rx="5.5" ry="5"/>
        <ellipse cx="80.5" cy="73" fill="#fff" rx="4.5" ry="4"/>
        <path fill="#282536" d="M78 72a.5.5 0 1 1-1 0 .5.5 0 0 1 1 0ZM83 72a.5.5 0 1 1-1 0 .5.5 0 0 1 1 0Z"/>
        <path stroke="#000" stroke-width=".5" d="m78 73 .215.322c.948 1.422 3.091 1.24 3.785-.322"/>
        <path fill="#282536" d="m87.99 75 .561.57-3.99 3.929-.561-.57z"/>
        <path fill="#B13434" d="M79.61 72.417a.428.428 0 1 0 .833.192.428.428 0 0 0-.834-.192Z"/>
    </g>
    <defs>
        <linearGradient id="10paint0_linear_58_397" x1="84.833" x2="84.833" y1="1.905" y2="40.533" gradientUnits="userSpaceOnUse">
            <stop stop-color="#D9D9D9" stop-opacity="0"/>
            <stop offset=".849" stop-color="#F5F5F5"/>
        </linearGradient>
        <linearGradient id="10paint1_linear_58_397" x1="1" x2="1" y1="0" y2="2" gradientUnits="userSpaceOnUse">
            <stop stop-color="#FDE5A8"/>
            <stop offset=".677" stop-color="#FDE5A8" stop-opacity=".7"/>
            <stop offset="1" stop-color="#FDE5A8" stop-opacity="0"/>
        </linearGradient>
        <linearGradient id="10paint2_linear_58_397" x1="1" x2="1" y1="0" y2="2" gradientUnits="userSpaceOnUse">
            <stop stop-color="#FDE5A8"/>
            <stop offset=".677" stop-color="#FDE5A8" stop-opacity=".7"/>
            <stop offset="1" stop-color="#FDE5A8" stop-opacity="0"/>
        </linearGradient>
        <linearGradient id="10paint3_linear_58_397" x1="1" x2="1" y1="0" y2="2" gradientUnits="userSpaceOnUse">
            <stop stop-color="#FDE5A8"/>
            <stop offset=".677" stop-color="#FDE5A8" stop-opacity=".7"/>
            <stop offset="1" stop-color="#FDE5A8" stop-opacity="0"/>
        </linearGradient>
        <linearGradient id="10paint4_linear_58_397" x1="1" x2="1" y1="0" y2="2" gradientUnits="userSpaceOnUse">
            <stop stop-color="#FDE5A8"/>
            <stop offset=".677" stop-color="#FDE5A8" stop-opacity=".7"/>
            <stop offset="1" stop-color="#FDE5A8" stop-opacity="0"/>
        </linearGradient>
        <linearGradient id="10paint5_linear_58_397" x1="1" x2="1" y1="0" y2="2" gradientUnits="userSpaceOnUse">
            <stop stop-color="#FDE5A8"/>
            <stop offset=".677" stop-color="#FDE5A8" stop-opacity=".7"/>
            <stop offset="1" stop-color="#FDE5A8" stop-opacity="0"/>
        </linearGradient>
        <linearGradient id="10paint6_linear_58_397" x1="1" x2="1" y1="0" y2="2" gradientUnits="userSpaceOnUse">
            <stop stop-color="#FDE5A8"/>
            <stop offset=".677" stop-color="#FDE5A8" stop-opacity=".7"/>
            <stop offset="1" stop-color="#FDE5A8" stop-opacity="0"/>
        </linearGradient>
        <linearGradient id="10paint7_linear_58_397" x1="1" x2="1" y1="0" y2="2" gradientUnits="userSpaceOnUse">
            <stop stop-color="#FDE5A8"/>
            <stop offset=".677" stop-color="#FDE5A8" stop-opacity=".7"/>
            <stop offset="1" stop-color="#FDE5A8" stop-opacity="0"/>
        </linearGradient>
        <linearGradient id="10paint8_linear_58_397" x1="1" x2="1" y1="0" y2="2" gradientUnits="userSpaceOnUse">
            <stop stop-color="#FDE5A8"/>
            <stop offset=".677" stop-color="#FDE5A8" stop-opacity=".7"/>
            <stop offset="1" stop-color="#FDE5A8" stop-opacity="0"/>
        </linearGradient>
        <linearGradient id="10paint9_linear_58_397" x1="1" x2="1" y1="0" y2="2" gradientUnits="userSpaceOnUse">
            <stop stop-color="#FDE5A8"/>
            <stop offset=".677" stop-color="#FDE5A8" stop-opacity=".7"/>
            <stop offset="1" stop-color="#FDE5A8" stop-opacity="0"/>
        </linearGradient>
        <clipPath id="10clip0_58_397">
            <path fill="#fff" d="M0 0h100v100H0z"/>
        </clipPath>
    </defs>
</svg>