<svg xmlns="http://www.w3.org/2000/svg" width="100" height="100" fill="none" viewBox="0 0 100 100">
    <g clip-path="url(#clip0_82_1293)">
        <path fill="#282536" d="M15 81h4v10h-4z"/>
        <path fill="#282536" d="m17 16 14.722 68.25H2.278L17 16Z"/>
        <path fill="#403C54" d="M22 51h77v43H22z"/>
        <path fill="url(#paint0_linear_82_1293)" d="M46-1h8l-.075.299a40 40 0 0 0 0 19.402L54 19h-8l-2-5a16.601 16.601 0 0 1-.684-10.222l.184-.73L46-1Z"/>
        <path fill="#282536" d="M44 17h10v16H44z"/>
        <path stroke="#282536" stroke-width=".5" d="m20 51 1.075.63A40.393 40.393 0 0 0 41.5 57.174h1.253c7.213 0 14.262-2.15 20.247-6.174"/>
        <path fill="#FDE5A8" d="M42.236 58.275a.725.725 0 1 1-1.14-.896.725.725 0 0 1 1.14.896Z"/>
        <path fill="#435A4E" d="M45.938 58.057c-.221.393-.786.441-1.145.097-.458-.439-.246-1.153.358-1.203.603-.051 1.07.605.787 1.106Z"/>
        <path fill="#B13434" d="M37.38 58.057c.222.393.786.441 1.145.097.459-.439.247-1.153-.357-1.203-.604-.051-1.07.605-.788 1.106ZM49.566 57.54c-.16.416-.738.51-1.16.188-.522-.398-.414-1.106.185-1.202.598-.096 1.171.5.974 1.015Z"/>
        <path fill="#435A4E" d="M33.679 57.54c.158.416.737.51 1.16.19.523-.398.416-1.105-.183-1.202-.598-.097-1.173.499-.977 1.013Z"/>
        <path fill="#FDE5A8" d="M53.144 56.697c-.083.438-.685.591-1.178.299-.581-.345-.574-1.028.013-1.177.587-.148 1.263.36 1.165.877ZM30.153 56.755c.091.436.691.582 1.176.286.575-.35.557-1.037-.032-1.18-.588-.142-1.253.377-1.144.894Z"/>
        <path fill="#435A4E" d="M56.415 55.602c-.008.456-.634.673-1.19.413-.62-.29-.687-.94-.118-1.138.57-.196 1.316.218 1.308.725Z"/>
        <path fill="#B13434" d="M26.885 55.657c.008.456.633.673 1.19.413.62-.29.687-.94.118-1.137-.57-.197-1.317.217-1.308.724ZM59.466 54.269c.068.466-.575.752-1.186.528-.642-.236-.767-.851-.222-1.093s1.338.075 1.408.565Z"/>
        <path fill="#435A4E" d="M23.852 54.324c-.067.466.575.752 1.187.528.642-.236.766-.85.221-1.093-.545-.242-1.337.076-1.408.565Z"/>
        <path stroke="#282536" stroke-width=".5" d="m58 51 1.33.798a37.724 37.724 0 0 0 19.41 5.376h1.811c6.81 0 13.446-2.162 18.949-6.174"/>
        <path fill="#FDE5A8" d="M79.732 58.258a.718.718 0 1 1-1.14-.874.718.718 0 0 1 1.14.874Z"/>
        <path fill="#435A4E" d="M83.345 58.04c-.22.398-.788.447-1.144.099-.444-.436-.23-1.137.365-1.188.594-.051 1.053.59.779 1.089Z"/>
        <path fill="#B13434" d="M74.966 58.04c.22.398.788.447 1.144.099.445-.436.23-1.137-.365-1.188-.594-.051-1.053.59-.779 1.089ZM86.884 57.525c-.157.42-.738.516-1.154.19-.508-.395-.392-1.092.196-1.189.588-.097 1.15.488.958.999Z"/>
        <path fill="#435A4E" d="M71.354 57.525c.156.42.738.517 1.155.192.508-.395.394-1.092-.194-1.19-.588-.097-1.15.487-.96.998Z"/>
        <path fill="#FDE5A8" d="M90.376 56.683c-.082.442-.683.598-1.169.304-.564-.343-.548-1.018.029-1.168.575-.149 1.235.35 1.14.864ZM67.914 56.742c.09.44.69.588 1.167.29.558-.35.532-1.028-.046-1.171-.578-.143-1.227.367-1.121.88Z"/>
        <path fill="#435A4E" d="M93.568 55.592c-.008.458-.628.678-1.174.417-.603-.289-.661-.934-.103-1.132.558-.197 1.286.21 1.277.715Z"/>
        <path fill="#B13434" d="M64.725 55.647c.008.459.628.679 1.174.417.603-.288.661-.934.103-1.131-.558-.198-1.286.21-1.277.714ZM96.548 54.262c.066.467-.568.756-1.167.531-.625-.234-.742-.847-.208-1.09.534-.242 1.306.072 1.375.559Z"/>
        <path fill="#435A4E" d="M61.763 54.317c-.066.468.568.756 1.167.532.625-.235.742-.847.208-1.09-.534-.243-1.306.07-1.375.558Z"/>
        <path fill="#282536" d="M43 16h12v3H43zM36.667 25h50.11L99 51H22l14.667-26Z"/>
        <mask id="mask0_82_1293" width="77" height="26" x="22" y="25" maskUnits="userSpaceOnUse" style="mask-type:alpha">
            <path fill="#282536" d="M36.667 25h50.11L99 51H22l14.667-26Z"/>
        </mask>
        <g stroke="#403C54" mask="url(#mask0_82_1293)">
            <path d="m42.442 20.234-18 34M38.442 20.234l-18 34M46.442 20.234l-18 34M50.442 20.234l-18 34M54.442 20.234l-18 34M58.442 20.234l-18 34M62.442 20.234l-18 34M66.442 20.234l-18 34M70.442 20.234l-18 34M74.442 20.234l-18 34M78.442 20.234l-18 34M82.442 20.234l-18 34M86.442 20.234l-18 34M90.442 20.234l-18 34M94.442 20.234l-18 34M98.442 20.234l-18 34M102.442 20.234l-18 34M106.442 20.234l-18 34M110.442 20.234l-18 34"/>
        </g>
        <path fill="#282536" fill-opacity=".6" d="M22 82h77v12H22z"/>
        <path fill="#fff" d="M52.9 45v-.456l.935-.288c.608-.192.92-.592.936-1.2V31.632l-1.992.264v-.552c.896-.16 1.768-.392 2.616-.696a15.6 15.6 0 0 0 2.448-1.152l.288.24-.096 3.432v8.28c.016.544.024 1.072.024 1.584 0 .624.304 1.032.912 1.224l.984.288V45H52.9Zm8.296 0v-.456l.936-.288c.608-.192.92-.592.936-1.2V31.632l-1.992.264v-.552c.896-.16 1.768-.392 2.616-.696a15.6 15.6 0 0 0 2.448-1.152l.288.24-.096 3.432v8.28c.016.544.024 1.072.024 1.584 0 .624.304 1.032.912 1.224l.984.288V45h-7.056ZM43 95c0-4.428 4.338-7.554 8.538-6.154L55 90l4.043-.735A6.808 6.808 0 0 1 67 95H43Z"/>
        <path stroke="#fff" stroke-linecap="round" stroke-width="3" d="M21.5 51.5h77"/>
        <path stroke="#282536" stroke-opacity=".6" d="M22 80.5h77"/>
        <path fill="#FDE5A8" d="m48.5 66 .212 3.06 2.274.213-2.274.273L48.5 73l-.242-3.454-2.244-.273 2.244-.212L48.5 66ZM71.5 66l.212 3.06 2.274.213-2.274.273L71.5 73l-.242-3.454-2.244-.273 2.244-.212L71.5 66Z"/>
        <path fill="#fff" d="M89.517 94.253C89.747 84.35 76.336 81.094 72 90l-.258-.144C67.82 87.678 63 90.513 63 95h26.5l.017-.747Z"/>
        <path fill="#FDE5A8" d="m17 12 .899 2.764h2.906l-2.351 1.708.898 2.764L17 17.528l-2.352 1.708.899-2.764-2.352-1.708h2.906L17.002 12Z"/>
        <path fill="#282536" d="M76 61h14.167v17H76z"/>
        <path fill="#403C54" d="M76.472 61.5h13.222v16H76.472v-16Z"/>
        <path fill="currentColor" d="M76.944 62h5.581v6.923h-5.581zM83.641 62h5.581v6.923h-5.581zM83.641 70.077h5.581V77h-5.581zM76.944 70.077h5.581V77h-5.581z"/>
        <path fill="#282536" d="M53 61h14.167v17H53z"/>
        <path fill="#403C54" d="M53.472 61.5h13.222v16H53.472v-16Z"/>
        <path fill="currentColor" d="M53.944 62h5.581v6.923h-5.581zM60.641 62h5.581v6.923h-5.581zM60.641 70.077h5.581V77h-5.581zM53.944 70.077h5.581V77h-5.581z"/>
        <path fill="#282536" d="M30 61h14.167v17H30z"/>
        <path fill="#403C54" d="M30.472 61.5h13.222v16H30.472v-16Z"/>
        <path fill="currentColor" d="M30.944 62h5.581v6.923h-5.581zM37.641 62h5.581v6.923h-5.581zM37.641 70.077h5.581V77h-5.581zM30.944 70.077h5.581V77h-5.581z"/>
    </g>
    <defs>
        <linearGradient id="paint0_linear_82_1293" x1="50" x2="50" y1=".19" y2="20.191" gradientUnits="userSpaceOnUse">
            <stop stop-color="#D9D9D9" stop-opacity="0"/>
            <stop offset="1" stop-color="#F5F5F5"/>
        </linearGradient>
        <clipPath id="clip0_82_1293">
            <path fill="#fff" d="M0 0h100v100H0z"/>
        </clipPath>
    </defs>
</svg>