<svg xmlns="http://www.w3.org/2000/svg" xmlns:xlink="http://www.w3.org/1999/xlink" width="100" height="100" fill="none" viewBox="0 0 100 100">
    <defs>
        <path id="12reuse-0" fill="#282536" fill-opacity=".8" d="M97 79.5C97 72.596 91.404 67 84.5 67S72 72.596 72 79.5V91h25V79.5Z"/>
        <path id="12reuse-1" fill="#403C54" d="m58 5 32 61H27L58 5Z"/>
    </defs>
    <g clip-path="url(#12clip0_58_271)">
        <use xlink:href="#12reuse-0" fill-opacity=".8"/>
        <mask id="12mask0_58_271" width="25" height="24" x="72" y="67" maskUnits="userSpaceOnUse" style="mask-type:alpha">
            <use xlink:href="#12reuse-0"/>
        </mask>
        <path fill="#282536" d="M83 70h-2v22h2zM86 70h-2v22h2zM89 70h-2v22h2zM92 70h-2v22h2zM95 70h-2v22h2z"/>
        <path fill="#282536" d="M81 88v2h17v-2zM81 73v2h17v-2z"/>
        <path fill="#282536" d="M98 70h-2v22h2z"/>
        <path fill="#403C54" d="M81 27h-3v22h3zM76 27h-3v22h3z"/>
        <path fill="url(#12paint0_linear_58_271)" d="M80.833-5h-2.666L79 11l-.833 16h2.666l.667-8 .667-8-.5-9.524L80.833-5Z"/>
        <path fill="url(#12paint1_linear_58_271)" d="M75.833-5h-2.666L74 11l-.833 16h2.666l.667-8 .667-8-.5-9.524L75.833-5Z"/>
        <path fill="#403C54" d="M3 64h87v30H3z"/>
        <use xlink:href="#12reuse-1"/>
        <mask id="12mask1_58_271" width="63" height="61" x="27" y="5" maskUnits="userSpaceOnUse" style="mask-type:alpha">
            <use xlink:href="#12reuse-1"/>
        </mask>
        <g mask="url(#12mask1_58_271)">
            <path stroke="#282536" stroke-width=".5" d="m44 28 1.608 1.43a18.77 18.77 0 0 0 26.251-1.277L72 28"/>
            <path fill="#FDE5A8" d="M58.809 34.975a.598.598 0 1 1-.532-.873c.448 0 .738.475.532.873Z"/>
            <path fill="#435A4E" d="M61.207 34.751a.598.598 0 0 1-1.053.135.601.601 0 0 1 .42-.935.596.596 0 0 1 .633.8Z"/>
            <path fill="#B13434" d="M55.34 34.751c.169.455.779.533 1.053.135a.601.601 0 0 0-.42-.935.596.596 0 0 0-.633.8ZM63.557 34.251a.598.598 0 0 1-1.031.253.603.603 0 0 1 .316-.978.593.593 0 0 1 .715.725Z"/>
            <path fill="#435A4E" d="M52.942 34.252a.598.598 0 0 0 1.03.254.603.603 0 0 0-.314-.978.593.593 0 0 0-.716.724Z"/>
            <path fill="#FDE5A8" d="M65.873 33.45c-.06.483-.633.703-.99.381a.606.606 0 0 1 .191-1.011.591.591 0 0 1 .799.63ZM50.656 33.503c.066.481.642.694.995.367a.605.605 0 0 0-.206-1.009.592.592 0 0 0-.79.642Z"/>
            <path fill="#435A4E" d="M68 32.413c-.006.486-.548.771-.939.494a.607.607 0 0 1 .075-1.03.59.59 0 0 1 .864.536Z"/>
            <path fill="#B13434" d="M48.535 32.468c.006.486.548.771.939.494a.608.608 0 0 0-.075-1.03.59.59 0 0 0-.864.536ZM69.997 31.143c.046.484-.46.826-.878.593a.609.609 0 0 1-.038-1.032.589.589 0 0 1 .916.44Z"/>
            <path fill="#435A4E" d="M46.55 31.199c-.046.483.46.825.879.592a.609.609 0 0 0 .037-1.032.589.589 0 0 0-.916.44Z"/>
            <path stroke="#282536" stroke-width=".5" d="m44 20 1.608 1.43a18.77 18.77 0 0 0 26.251-1.277L72 20"/>
            <path fill="#FDE5A8" d="M58.809 26.975a.598.598 0 1 1-.532-.873c.448 0 .738.475.532.873Z"/>
            <path fill="#435A4E" d="M61.207 26.751a.598.598 0 0 1-1.053.135.601.601 0 0 1 .42-.935.596.596 0 0 1 .633.8Z"/>
            <path fill="#B13434" d="M55.34 26.751c.169.455.779.533 1.053.135a.601.601 0 0 0-.42-.935.596.596 0 0 0-.633.8ZM63.557 26.251a.598.598 0 0 1-1.031.253.603.603 0 0 1 .316-.978.593.593 0 0 1 .715.725Z"/>
            <path fill="#435A4E" d="M52.942 26.252a.598.598 0 0 0 1.03.254.603.603 0 0 0-.314-.978.593.593 0 0 0-.716.724Z"/>
            <path fill="#FDE5A8" d="M65.873 25.45c-.06.483-.633.703-.99.381a.606.606 0 0 1 .191-1.011.591.591 0 0 1 .799.63ZM50.656 25.503c.066.482.642.694.995.367a.605.605 0 0 0-.206-1.009.592.592 0 0 0-.79.642Z"/>
            <path fill="#435A4E" d="M68 24.413c-.006.486-.548.771-.939.494a.607.607 0 0 1 .075-1.03.59.59 0 0 1 .864.536Z"/>
            <path fill="#B13434" d="M48.535 24.468c.006.486.548.771.939.494a.608.608 0 0 0-.075-1.03.59.59 0 0 0-.864.536ZM69.997 23.143c.046.484-.46.826-.878.593a.609.609 0 0 1-.038-1.032.589.589 0 0 1 .916.44Z"/>
            <path fill="#435A4E" d="M46.55 23.199c-.046.483.46.825.879.592a.609.609 0 0 0 .037-1.032.589.589 0 0 0-.916.44Z"/>
            <path stroke="#282536" stroke-width=".5" d="m43 9 2.59 3.337A15.319 15.319 0 0 0 70.6 11.19L72 9"/>
            <path fill="#FDE5A8" d="M58.463 19.112a.719.719 0 1 1-.677-.958.717.717 0 0 1 .677.958Z"/>
            <path fill="#435A4E" d="M60.914 18.767c-.172.672-1.053.835-1.333.247-.208-.438.093-.997.585-1.088.492-.09.876.341.748.84Z"/>
            <path fill="#B13434" d="M54.652 18.767c.173.672 1.053.835 1.333.247.208-.438-.092-.997-.585-1.088-.492-.09-.876.341-.748.84ZM63.315 18.034c-.122.7-.962.998-1.286.456-.245-.411.005-1.031.485-1.2.48-.17.894.214.801.744Z"/>
            <path fill="#435A4E" d="M52.202 18.035c.121.701.96 1 1.285.459.246-.41-.004-1.031-.484-1.202-.48-.171-.893.213-.801.743Z"/>
            <path fill="#FDE5A8" d="M65.68 16.878c-.063.724-.833 1.154-1.204.67-.29-.377-.107-1.064.35-1.318.458-.255.902.082.853.648ZM49.864 16.95c.07.723.849 1.138 1.214.648.285-.381.094-1.06-.367-1.306-.46-.246-.9.097-.847.658Z"/>
            <path fill="#435A4E" d="M67.859 15.386c-.006.735-.696 1.26-1.104.84-.332-.34-.223-1.083.207-1.41.43-.327.901-.027.897.57Z"/>
            <path fill="#B13434" d="M47.695 15.47c.006.734.696 1.259 1.104.84.332-.342.223-1.084-.207-1.411-.43-.327-.902-.027-.897.57ZM69.915 13.557c.048.733-.556 1.324-.994.971-.372-.3-.343-1.084.056-1.473.397-.388.897-.121.938.502Z"/>
            <path fill="#435A4E" d="M45.652 13.64c-.049.733.556 1.324.993.971.373-.3.343-1.084-.055-1.473-.398-.388-.897-.121-.938.502Z"/>
        </g>
        <path stroke="#282536" stroke-opacity=".6" d="M29 60.5h58M29 58.5h58"/>
        <path fill="#fff" d="M48.708 55v-.456l.936-.288c.608-.192.92-.592.936-1.2V41.632l-1.992.264v-.552c.896-.16 1.768-.392 2.616-.696a15.6 15.6 0 0 0 2.448-1.152l.288.24-.096 3.432v8.28c.016.544.024 1.072.024 1.584 0 .624.304 1.032.912 1.224l.984.288V55h-7.056Zm9.209-11.256.168-3.384c.48-.272 1.08-.496 1.8-.672a9.591 9.591 0 0 1 2.424-.288c1.856 0 3.2.392 4.032 1.176.832.784 1.248 1.768 1.248 2.952 0 1.104-.496 2.176-1.488 3.216s-2.416 2.24-4.272 3.6c-.352.256-.76.568-1.224.936-.448.352-.888.712-1.32 1.08h8.736V55H57.557v-1.944a159.097 159.097 0 0 0 3.288-3.288c1.168-1.2 2.032-2.264 2.592-3.192.56-.944.84-1.936.84-2.976 0-1.056-.2-1.904-.6-2.544-.4-.64-.984-.96-1.752-.96-.512 0-.968.12-1.368.36-.384.24-.704.648-.96 1.224l-.936 2.064h-.744ZM26.207 65H3L34.784 6H59L26.207 65Z"/>
        <mask id="12mask2_58_271" width="56" height="59" x="3" y="6" maskUnits="userSpaceOnUse" style="mask-type:alpha">
            <path fill="#fff" d="M26.207 65H3L34.784 6H59L26.207 65Z"/>
        </mask>
        <g stroke="#F4F4F5" stroke-dasharray="2 2" mask="url(#12mask2_58_271)">
            <path d="M14 33.5h49M2 61.5h54M14 29.5h49M2 57.5h54M14 25.5h49M2 53.5h54M14 21.5h49M2 49.5h54M14 17.5h49M2 45.5h54M14 13.5h49M2 41.5h54M14 9.5h49M2 37.5h54M15 31.5h49M3 59.5h54M15 27.5h49M3 55.5h54M15 23.5h49M3 51.5h54M15 19.5h49M3 47.5h54M15 15.5h49M3 43.5h54M15 11.5h49M3 39.5h54M15 7.5h49M3 35.5h54"/>
        </g>
        <path stroke="#282536" stroke-opacity=".6" d="M26.5 67v27"/>
        <path stroke="#fff" stroke-linecap="round" stroke-width="3" d="M57.5 6 26 66M33.5 6 2 66M58 6l32 59"/>
        <path fill="#282536" d="M53 72h11v22H53zM32 70h15v16H32z"/>
        <path fill="#403C54" d="M32.5 70.47h14v15.06h-14V70.47Z"/>
        <path fill="currentColor" d="M33 70.941h5.909v6.516H33zM40.091 70.941H46v6.516h-5.909zM40.091 78.543H46v6.516h-5.909zM33 78.543h5.909v6.516H33z"/>
        <path fill="#282536" d="M7 70h16v16H7z"/>
        <path fill="#403C54" d="M7.533 70.47h14.934v15.06H7.533V70.47Z"/>
        <path fill="currentColor" d="M8.067 70.941h6.303v6.516H8.067zM15.63 70.941h6.303v6.516H15.63zM15.63 78.543h6.303v6.516H15.63zM8.067 78.543h6.303v6.516H8.067z"/>
        <path fill="#282536" d="M70 70h15v16H70z"/>
        <path fill="#403C54" d="M70.5 70.47h14v15.06h-14V70.47Z"/>
        <path fill="currentColor" d="M71 70.941h5.909v6.516H71zM78.091 70.941H84v6.516h-5.909zM78.091 78.543H84v6.516h-5.909zM71 78.543h5.909v6.516H71z"/>
        <path fill="#435A4E" d="m54.143 66.638-2.68-.487 1.762-2.077.918 2.564Z"/>
        <path fill="#435A4E" d="m53.233 65.866-2.68-.487 1.762-2.076.918 2.563Z"/>
        <path fill="#435A4E" d="m50.215 63.307.728 2.033 1.397-1.647-2.125-.386ZM53.99 66.932l-1.76 2.076-.919-2.563 2.68.487Z"/>
        <path fill="#435A4E" d="m52.868 67.334-1.762 2.076-.917-2.563 2.679.487Z"/>
        <path fill="#435A4E" d="m49.142 68.668 2.125.386-.728-2.033-1.397 1.647Z"/>
        <circle cx="54.388" cy="68.112" r=".784" fill="#B13434" transform="rotate(-13.018 54.388 68.112)"/>
        <circle cx="55.169" cy="66.678" r=".784" fill="#B13434" transform="rotate(-13.018 55.17 66.678)"/>
        <circle cx="56.059" cy="68.102" r=".784" fill="#B13434" transform="rotate(-13.018 56.06 68.102)"/>
        <path fill="#435A4E" d="m62.857 66.638 2.68-.487-1.762-2.077-.918 2.564Z"/>
        <path fill="#435A4E" d="m63.767 65.866 2.68-.487-1.762-2.076-.918 2.563Z"/>
        <path fill="#435A4E" d="m66.785 63.307-.728 2.033-1.397-1.647 2.125-.386ZM63.01 66.932l1.76 2.076.919-2.563-2.68.487Z"/>
        <path fill="#435A4E" d="m64.132 67.334 1.762 2.076.917-2.563-2.679.487Z"/>
        <path fill="#435A4E" d="m67.858 68.668-2.125.386.728-2.033 1.397 1.647Z"/>
        <circle r=".784" fill="#B13434" transform="scale(-1 1) rotate(-13.018 267.179 308.44)"/>
        <circle r=".784" fill="#B13434" transform="scale(-1 1) rotate(-13.018 261.285 304.297)"/>
        <circle r=".784" fill="#B13434" transform="scale(-1 1) rotate(-13.018 267.97 301.11)"/>
        <path fill="#282536" fill-opacity=".6" d="M90 91H3v3h87z"/>
        <path fill="#403C54" d="M54 83h1v2h-1z"/>
        <path fill="#fff" d="M21.983 93.253C21.753 83.35 35.164 80.094 39.5 89l.258-.144C43.68 86.678 48.5 89.513 48.5 94H22l-.017-.747ZM73 94a2 2 0 0 0-2-2h-1a2 2 0 0 0-2 2h5ZM73.51 85.5c.484-.63 1.235-1 2.03-1h3.96l3.988.123c.504.016.93.38 1.021.877h-11ZM7.525 85.5a3.1 3.1 0 0 1 2.489-.837l2.965.337 8.455-.317c.51-.02.965.321 1.09.817h-15Z"/>
    </g>
    <defs>
        <linearGradient id="12paint0_linear_58_271" x1="79.167" x2="79.167" y1="-3.095" y2="35.533" gradientUnits="userSpaceOnUse">
            <stop stop-color="#D9D9D9" stop-opacity="0"/>
            <stop offset=".849" stop-color="#F5F5F5"/>
        </linearGradient>
        <linearGradient id="12paint1_linear_58_271" x1="74.167" x2="74.167" y1="-3.095" y2="35.533" gradientUnits="userSpaceOnUse">
            <stop stop-color="#D9D9D9" stop-opacity="0"/>
            <stop offset=".849" stop-color="#F5F5F5"/>
        </linearGradient>
        <clipPath id="12clip0_58_271">
            <path fill="#fff" d="M0 0h100v100H0z"/>
        </clipPath>
    </defs>
</svg>