<svg xmlns="http://www.w3.org/2000/svg" xmlns:xlink="http://www.w3.org/1999/xlink" width="100" height="100" fill="none" viewBox="0 0 100 100">
    <defs>
        <path id="reuse-0" fill="#282536" fill-opacity=".8" d="M96 65.5C96 58.596 90.404 53 83.5 53S71 58.596 71 65.5V90h25V65.5Z"/>
        <path id="reuse-1" fill="#282536" fill-opacity=".6" d="M5 87a8 8 0 1 1 16 0v7H5v-7Z"/>
    </defs>
    <g clip-path="url(#clip0_92_1930)">
        <use xlink:href="#reuse-0" fill-opacity=".8"/>
        <mask id="mask0_92_1930" width="25" height="37" x="71" y="53" maskUnits="userSpaceOnUse" style="mask-type:alpha">
            <use xlink:href="#reuse-0"/>
        </mask>
        <g mask="url(#mask0_92_1930)">
            <path fill="#fff" d="M67.875 50.533h35.937V64.63c-5.754 3.385-13.087 2.751-18.24-1.493-2.06-1.696-4.855-2.285-7.414-1.532l-10.283 3.025V50.533Z"/>
        </g>
        <path fill="#282536" d="M82 69h-2v22h2zM85 69h-2v22h2zM88 69h-2v22h2zM91 69h-2v22h2zM94 69h-2v22h2z"/>
        <path fill="#282536" d="M80 87v2h17v-2zM80 72v2h17v-2z"/>
        <path fill="#282536" d="M97 69h-2v22h2z"/>
        <path fill="url(#paint0_linear_92_1930)" d="m20.442-3 4.779.578L30-1.844 28.458 8.13a14.996 14.996 0 0 0-.038 4.324L29.862 23h-8.255L19.5 13.197a15 15 0 0 1-.255-4.702L20.443-3Z"/>
        <path fill="#403C54" d="M19 45h63v49H19z"/>
        <path fill="#282536" fill-opacity=".4" d="M19 84h63v10H19z"/>
        <path fill="#282536" d="m50 5 43.301 43.5H6.7L50 5Z"/>
        <path fill="#282536" d="M20 20h10v23H20z"/>
        <path fill="#fff" d="M40.708 37v-.456l.936-.288c.608-.192.92-.592.936-1.2V23.632l-1.992.264v-.552c.896-.16 1.768-.392 2.616-.696a15.6 15.6 0 0 0 2.448-1.152l.288.24-.096 3.432v8.28c.016.544.024 1.072.024 1.584 0 .624.304 1.032.912 1.224l.984.288V37h-7.056Zm13.649.336c-1.024 0-1.88-.112-2.568-.336a12.335 12.335 0 0 1-2.016-.864l.24-3.12h.696l.84 1.872c.544 1.184 1.44 1.776 2.688 1.776.752 0 1.368-.296 1.848-.888.48-.592.72-1.576.72-2.952 0-1.232-.216-2.112-.648-2.64-.432-.528-1.12-.792-2.064-.792h-1.416v-.72h1.272c.848 0 1.48-.248 1.896-.744.416-.512.624-1.376.624-2.592 0-1.152-.192-1.976-.576-2.472-.384-.496-.872-.744-1.464-.744s-1.072.152-1.44.456c-.352.304-.64.712-.864 1.224l-.912 1.944-.72-.024.24-3.504a8.42 8.42 0 0 1 1.728-.576c.64-.16 1.352-.24 2.136-.24 1.648 0 2.904.36 3.768 1.08.864.72 1.296 1.632 1.296 2.736 0 .784-.32 1.528-.96 2.232-.624.704-1.6 1.208-2.928 1.512 1.52.144 2.624.584 3.312 1.32.704.72 1.056 1.592 1.056 2.616 0 .848-.232 1.608-.696 2.28-.464.672-1.128 1.2-1.992 1.584-.864.384-1.896.576-3.096.576Z"/>
        <path fill="#fff" fill-opacity=".6" d="M5 87a8 8 0 1 1 16 0v7H5v-7Z"/>
        <use xlink:href="#reuse-1" fill-opacity=".6"/>
        <mask id="mask1_92_1930" width="16" height="15" x="5" y="79" maskUnits="userSpaceOnUse" style="mask-type:alpha">
            <use xlink:href="#reuse-1"/>
        </mask>
        <g mask="url(#mask1_92_1930)">
            <path fill="#282536" d="m7.494 88.823.548-1.017 5.213 4.958-.548 1.017zM9.483 85.345l.548-1.017 3.554 3.38-.548 1.016z"/>
            <path fill="#282536" d="M16.63 85.016 16.083 84l-3.553 3.38.548 1.016zM18.647 88.766l-.548-1.016-5.213 4.958.548 1.016 5.213-4.958Z"/>
            <path fill="#282536" d="M12.53 80.25h.94V94h-.94V80.25Z"/>
            <path fill="#fff" d="M23 78H0v5.714l.295.11a13.996 13.996 0 0 0 11.362-.706 6.998 6.998 0 0 1 4.52-.675L23 83.714V78Z"/>
        </g>
        <path fill="#fff" d="M16 95c.519-4.408 4.926-7.25 9.156-5.905L28 90l2.77-1.154C35.16 87.016 40 90.243 40 95H16Z"/>
        <path stroke="#282536" stroke-linecap="round" stroke-width="2" d="M20 20h10"/>
        <circle cx="60.5" cy="66.5" r="1.5" fill="#282536"/>
        <circle cx="60.5" cy="66.5" r=".5" fill="#403C54"/>
        <path fill="#282536" d="M44 63c1.514-6.99 11.486-6.99 13 0v26H44V63Z"/>
        <path fill="#282536" d="M40 86h20v3H40zM36 89h27v3H36zM34 92h31v3H34z"/>
        <circle cx="46" cy="75" r="1" fill="#403C54"/>
        <path fill="currentColor" d="M46 64.692A3.692 3.692 0 0 1 49.692 61h.399v3.692H46ZM50.909 61h.398A3.692 3.692 0 0 1 55 64.692h-4.091V61ZM50.909 65.308H55V69h-4.091zM46 65.308h4.091V69H46z"/>
        <path fill="#282536" d="M64 55h15v21H64z"/>
        <path fill="#403C54" d="M64.5 55.618h14v19.764h-14V55.618Z"/>
        <path fill="currentColor" d="M65 56.235h5.909v8.552H65zM72.091 56.235H78v8.552h-5.909zM72.091 66.213H78v8.552h-5.909zM65 66.213h5.909v8.552H65z"/>
        <path fill="#282536" d="M23 55h15v21H23z"/>
        <path fill="#403C54" d="M23.5 55.618h14v19.764h-14V55.618Z"/>
        <path fill="currentColor" d="M24 56.235h5.909v8.552H24zM31.091 56.235H37v8.552h-5.909zM31.091 66.213H37v8.552h-5.909zM24 66.213h5.909v8.552H24z"/>
        <path stroke="#282536" stroke-opacity=".6" d="M19 82.5h63"/>
        <path fill="#322E42" d="m30.364 77 .295 1.477 1.174.457-1.174.43-.295 1.772-.296-1.772-1.173-.43 1.173-.457.296-1.477ZM71.5 77l.296 1.477 1.173.457-1.173.43-.296 1.772-.296-1.772-1.173-.43 1.173-.457L71.5 77Z"/>
        <path stroke="#282536" stroke-width=".5" d="m41 48-.786.45a31.61 31.61 0 0 1-15.71 4.18h-1.025C17.978 52.63 12.597 51.022 8 48"/>
        <path fill="#FDE5A8" d="M23.945 53.469a.548.548 0 1 0 .855-.687.548.548 0 0 0-.855.687Z"/>
        <path fill="#435A4E" d="M21.101 53.306c.168.29.588.325.86.07.354-.33.197-.875-.263-.913-.46-.038-.815.464-.597.843Z"/>
        <path fill="#B13434" d="M27.654 53.306c-.167.29-.587.325-.86.07-.353-.33-.197-.875.263-.913.46-.038.816.464.597.843ZM18.315 52.917c.12.308.553.377.873.138.403-.3.326-.839-.13-.91-.456-.072-.895.385-.743.772Z"/>
        <path fill="#435A4E" d="M30.498 52.917c-.12.309-.553.377-.873.14-.404-.3-.329-.839.127-.911.456-.072.896.383.746.771Z"/>
        <path fill="#FDE5A8" d="M15.566 52.282c.063.327.515.439.89.222.45-.26.45-.778.002-.89-.448-.11-.968.279-.892.668ZM33.206 52.327c-.07.324-.52.43-.889.21-.444-.264-.436-.785.013-.891.45-.107.96.29.876.68Z"/>
        <path fill="#435A4E" d="M13.054 51.46c.006.34.479.5.904.305.478-.218.535-.71.1-.857-.436-.147-1.01.169-1.004.551Z"/>
        <path fill="#B13434" d="M35.716 51.5c-.006.34-.479.5-.904.307-.478-.219-.535-.71-.1-.858.436-.147 1.01.17 1.004.552ZM10.711 50.456c-.052.349.437.561.905.394.495-.177.594-.64.176-.822-.417-.181-1.027.06-1.081.428Z"/>
        <path fill="#435A4E" d="M38.045 50.498c.051.348-.437.56-.905.393-.495-.177-.594-.64-.177-.822.418-.181 1.027.06 1.082.428Z"/>
        <path stroke="#282536" stroke-width=".5" d="m69 48-.786.45a31.61 31.61 0 0 1-15.71 4.18h-1.025C45.978 52.63 40.597 51.022 36 48"/>
        <path fill="#FDE5A8" d="M51.945 53.469a.548.548 0 1 0 .855-.687.548.548 0 0 0-.855.687Z"/>
        <path fill="#435A4E" d="M49.101 53.306c.168.29.588.325.86.07.354-.33.197-.875-.263-.913-.46-.038-.815.464-.597.843Z"/>
        <path fill="#B13434" d="M55.654 53.306c-.167.29-.587.325-.86.07-.353-.33-.197-.875.263-.913.46-.038.816.464.597.843ZM46.315 52.917c.12.308.553.377.873.138.403-.3.326-.839-.13-.91-.456-.072-.895.385-.743.772Z"/>
        <path fill="#435A4E" d="M58.498 52.917c-.12.309-.553.377-.873.14-.404-.3-.329-.839.127-.911.456-.072.896.383.746.771Z"/>
        <path fill="#FDE5A8" d="M43.566 52.282c.063.327.515.439.89.222.45-.26.45-.778.002-.89-.448-.11-.968.279-.892.668ZM61.206 52.327c-.07.324-.52.43-.889.21-.444-.264-.436-.785.013-.891.45-.107.96.29.876.68Z"/>
        <path fill="#435A4E" d="M41.054 51.46c.006.34.479.5.904.305.478-.218.535-.71.1-.857-.436-.147-1.01.169-1.004.551Z"/>
        <path fill="#B13434" d="M63.716 51.5c-.006.34-.479.5-.904.307-.478-.219-.535-.71-.1-.858.436-.147 1.01.17 1.004.552ZM38.711 50.456c-.052.349.437.561.905.394.495-.177.594-.64.176-.822-.417-.181-1.026.06-1.081.428Z"/>
        <path fill="#435A4E" d="M66.045 50.498c.051.348-.437.56-.905.393-.495-.177-.594-.64-.177-.822.418-.181 1.027.06 1.082.428Z"/>
        <path stroke="#282536" stroke-width=".5" d="m94 48-.786.45a31.61 31.61 0 0 1-15.71 4.18h-1.025C70.978 52.63 65.597 51.022 61 48"/>
        <path fill="#FDE5A8" d="M76.945 53.469a.548.548 0 1 0 .855-.687.548.548 0 0 0-.855.687Z"/>
        <path fill="#435A4E" d="M74.101 53.306c.168.29.588.325.86.07.354-.33.197-.875-.263-.913-.46-.038-.815.464-.597.843Z"/>
        <path fill="#B13434" d="M80.654 53.306c-.167.29-.587.325-.86.07-.353-.33-.197-.875.263-.913.46-.038.816.464.597.843ZM71.315 52.917c.12.308.553.377.873.138.403-.3.326-.839-.13-.91-.456-.072-.895.385-.743.772Z"/>
        <path fill="#435A4E" d="M83.498 52.917c-.12.309-.553.377-.874.14-.403-.3-.328-.839.128-.911.456-.072.897.383.746.771Z"/>
        <path fill="#FDE5A8" d="M68.566 52.282c.063.327.516.439.89.222.45-.26.45-.778.001-.89-.447-.11-.967.279-.891.668ZM86.206 52.327c-.07.324-.52.43-.889.21-.444-.264-.436-.785.013-.891.45-.107.96.29.876.68Z"/>
        <path fill="#435A4E" d="M66.054 51.46c.006.34.479.5.904.305.478-.218.535-.71.1-.857-.436-.147-1.01.169-1.004.551Z"/>
        <path fill="#B13434" d="M88.716 51.5c-.006.34-.479.5-.904.307-.478-.219-.535-.71-.1-.858.436-.147 1.01.17 1.004.552ZM63.711 50.456c-.052.349.437.561.905.394.495-.177.594-.64.176-.822-.417-.181-1.026.06-1.081.428Z"/>
        <path fill="#435A4E" d="M91.045 50.498c.051.348-.437.56-.905.393-.495-.177-.594-.64-.177-.822.418-.181 1.027.06 1.082.428Z"/>
        <path stroke="#fff" stroke-linecap="round" stroke-width="3" d="M7 48h86"/>
        <path fill="#FDE5A8" d="M62 85v3.818h-7V85z"/>
        <path stroke="#B13434" stroke-width=".2" d="M62 86.373h-7M59.991 88.818V85"/>
        <path fill="#B13434" d="M61.034 86.751c0 .099-.108.16-.193.11l-.762-.458-.762.457a.127.127 0 0 1-.192-.109v-.412h1.909v.412Z"/>
        <path fill="#B13434" d="M61.034 85.928a.127.127 0 0 0-.193-.11l-.762.458-.762-.457a.127.127 0 0 0-.192.109v.412h1.909v-.412Z"/>
    </g>
    <defs>
        <linearGradient id="paint0_linear_92_1930" x1="23.7" x2="23.7" y1="-3" y2="23" gradientUnits="userSpaceOnUse">
            <stop offset=".031" stop-color="#D9D9D9" stop-opacity="0"/>
            <stop offset=".994" stop-color="#fff"/>
        </linearGradient>
        <clipPath id="clip0_92_1930">
            <path fill="#fff" d="M0 0h100v100H0z"/>
        </clipPath>
    </defs>
</svg>