<svg xmlns="http://www.w3.org/2000/svg" xmlns:xlink="http://www.w3.org/1999/xlink" width="100" height="100" fill="none" viewBox="0 0 100 100">
    <defs>
        <path id="14reuse-0" fill="#fff" d="M93.404 22.236A4 4 0 0 0 89.478 19H24.591a4 4 0 0 0-3.948 3.36L16 51h83l-5.596-28.764Z"/>
        <path id="14reuse-1" d="M0-.5h49.655"/>
        <path id="14reuse-2" fill="#282536" d="m34 59.222.729-.476A15.167 15.167 0 0 1 52 59.222V61H34v-1.778Z"/>
    </defs>
    <g clip-path="url(#14clip0_92_1763)">
        <path fill="#282536" d="M18.582 79.773h-5.489v10.825h5.49z"/>
        <path fill="#282536" d="M15.838 4 .39 82.865h30.897L15.838 4Z"/>
        <ellipse cx="10.193" cy="49.62" fill="url(#14paint0_linear_92_1763)" fill-opacity=".8" rx="1.738" ry="1.959" transform="rotate(-180 10.193 49.62)"/>
        <ellipse cx="18.495" cy="39.225" fill="url(#14paint1_linear_92_1763)" fill-opacity=".8" rx="1.738" ry="1.959" transform="rotate(-180 18.495 39.225)"/>
        <ellipse cx="11.116" cy="32.987" fill="url(#14paint2_linear_92_1763)" fill-opacity=".8" rx="1.738" ry="1.959" transform="rotate(-180 11.116 32.987)"/>
        <ellipse cx="17.573" cy="22.592" fill="url(#14paint3_linear_92_1763)" fill-opacity=".8" rx="1.738" ry="1.959" transform="rotate(-180 17.573 22.592)"/>
        <ellipse cx="13.883" cy="14.275" fill="url(#14paint4_linear_92_1763)" fill-opacity=".8" rx="1.738" ry="1.959" transform="rotate(-180 13.883 14.275)"/>
        <ellipse cx="20.34" cy="55.857" fill="url(#14paint5_linear_92_1763)" fill-opacity=".8" rx="1.738" ry="1.959" transform="rotate(-180 20.34 55.857)"/>
        <ellipse cx="12.96" cy="61.055" fill="url(#14paint6_linear_92_1763)" fill-opacity=".8" rx="1.738" ry="1.959" transform="rotate(-180 12.96 61.055)"/>
        <ellipse cx="19.417" cy="72.49" fill="url(#14paint7_linear_92_1763)" fill-opacity=".8" rx="1.738" ry="1.959" transform="rotate(-180 19.417 72.49)"/>
        <ellipse cx="5.581" cy="68.332" fill="url(#14paint8_linear_92_1763)" fill-opacity=".8" rx="1.738" ry="1.959" transform="rotate(-180 5.58 68.332)"/>
        <ellipse cx="13.883" cy="75.609" fill="url(#14paint9_linear_92_1763)" fill-opacity=".8" rx="1.738" ry="1.959" transform="rotate(-180 13.883 75.609)"/>
        <use xlink:href="#14reuse-0"/>
        <mask id="14mask0_92_1763" width="83" height="32" x="16" y="19" maskUnits="userSpaceOnUse" style="mask-type:alpha">
            <use xlink:href="#14reuse-0"/>
        </mask>
        <g stroke="#282536" stroke-opacity=".05" mask="url(#14mask0_92_1763)">
            <use xlink:href="#14reuse-1" transform="matrix(0 -1 -1 0 58 53.655)"/>
            <use xlink:href="#14reuse-1" transform="matrix(0 -1 -1 0 16 54)"/>
            <use xlink:href="#14reuse-1" transform="matrix(0 -1 -1 0 70 54)"/>
            <use xlink:href="#14reuse-1" transform="matrix(0 -1 -1 0 22 54)"/>
            <use xlink:href="#14reuse-1" transform="matrix(0 -1 -1 0 76 54)"/>
            <use xlink:href="#14reuse-1" transform="matrix(0 -1 -1 0 28 54)"/>
            <use xlink:href="#14reuse-1" transform="matrix(0 -1 -1 0 82 54)"/>
            <use xlink:href="#14reuse-1" transform="matrix(0 -1 -1 0 34 54)"/>
            <use xlink:href="#14reuse-1" transform="matrix(0 -1 -1 0 88 54)"/>
            <use xlink:href="#14reuse-1" transform="matrix(0 -1 -1 0 40 54)"/>
            <use xlink:href="#14reuse-1" transform="matrix(0 -1 -1 0 94 54)"/>
            <use xlink:href="#14reuse-1" transform="matrix(0 -1 -1 0 46 54)"/>
            <use xlink:href="#14reuse-1" transform="matrix(0 -1 -1 0 52 54)"/>
            <use xlink:href="#14reuse-1" transform="matrix(0 -1 -1 0 64 54)"/>
        </g>
        <path fill="#403C54" d="M99 50H72l-8.5-10H23l-7 7.26V94h83V50Z"/>
        <path stroke="#282536" stroke-opacity=".6" d="M16 87.5h83M16 53.5h83M16 89.5h83"/>
        <path fill="#403C54" d="M43 14 22.5 40.5H64L43 14Z"/>
        <path stroke="#fff" stroke-linecap="round" stroke-width="3" d="M43.5 15 72 50.5M43.5 15 15 49.5"/>
        <path fill="#fff" d="M33.137 50v-.456l.936-.288c.608-.192.92-.592.936-1.2V36.632l-1.992.264v-.552c.896-.16 1.768-.392 2.616-.696a15.6 15.6 0 0 0 2.448-1.152l.288.24-.096 3.432v8.28c.016.544.024 1.072.024 1.584 0 .624.304 1.032.912 1.224l.984.288V50h-7.056Zm14.537 0v-3.912h-6.336v-1.464l7.032-10.056h2.232v9.672h2.304v1.848h-2.304V50h-2.928Zm-5.064-5.76h5.064v-7.248L42.61 44.24Z"/>
        <path fill="#282536" d="M51 68c-2.185-8.195-13.815-8.195-16 0v26h16V68Z"/>
        <path fill="#403C54" d="M48 15H38v11h10z"/>
        <path fill="url(#14paint10_linear_92_1763)" d="M48.333-5H39a29.193 29.193 0 0 1 0 18h9.333l2.334-4.5a12.089 12.089 0 0 0 .759-9.318l-.176-.54L48.333-5Z"/>
        <path stroke="#403C54" stroke-linecap="square" stroke-width="3" d="M47.5 14.5h-9"/>
        <ellipse fill="#403C54" rx="1" ry="2" transform="matrix(-1 0 0 1 49 79)"/>
        <path fill="#282536" d="M30 59h-9v24h9V59Z"/>
        <path fill="#403C54" d="M29.503 59.5H21.52v23h7.983v-23Z"/>
        <path fill="currentColor" d="M28.415 59.97h-5.897v10.182h5.897zM28.415 71.848h-5.897V82.03h5.897z"/>
        <path fill="#282536" d="M66 59h-9v24h9V59Z"/>
        <path fill="#403C54" d="M65.503 59.5H57.52v23h7.983v-23Z"/>
        <path fill="currentColor" d="M64.415 59.97h-5.897v10.182h5.897zM64.415 71.848h-5.897V82.03h5.897z"/>
        <path fill="#fff" d="M72 50h2v.75L73 56l-1-5.25V50ZM95 50h2v.75L96 56l-1-5.25V50Z"/>
        <path fill="#fff" d="M73 50h2v.5L74 54l-1-3.5V50Z"/>
        <path fill="#fff" d="M74 50h2v.375L75 53l-1-2.625V50ZM94 50h1v.375L94.5 53l-.5-2.625V50ZM97 50h2v.5L98 54l-1-3.5V50ZM71 50h2v.625L72 55l-1-4.375V50Z"/>
        <path fill="#282536" d="M78 65a6 6 0 0 1 6-6h3a6 6 0 0 1 6 6v18H78V65Z"/>
        <path fill="#403C54" d="M78.5 65.706a6 6 0 0 1 6-6h2a6 6 0 0 1 6 6v16.588h-14V65.706Z"/>
        <path fill="currentColor" d="M79 66.32a5.91 5.91 0 0 1 5.91-5.908v9.774H79V66.32ZM86.09 60.412A5.91 5.91 0 0 1 92 66.32v3.865h-5.91v-9.774ZM86.091 71.814H92v9.774h-5.909zM79 71.814h5.909v9.774H79z"/>
        <circle cx="43" cy="73" r="3.75" stroke="#435A4E" stroke-width="2.5"/>
        <circle cx="43" cy="77.286" r=".714" fill="#B13434"/>
        <circle cx="44.429" cy="75.857" r=".714" fill="#B13434"/>
        <circle cx="41.571" cy="75.857" r=".714" fill="#B13434"/>
        <path fill="#FDE5A8" d="m58.136 40 .448 2.24 1.78.693-1.78.651-.448 2.689-.448-2.689-1.779-.651 1.78-.693.447-2.24ZM28.137 40l.447 2.24 1.78.693-1.78.651-.447 2.689-.449-2.689-1.779-.651 1.78-.693.448-2.24Z"/>
        <path fill="#fff" d="M51 95c.489-5.82 6.665-9.376 12-7 5.32-3.103 12 .842 12 7H51Z"/>
        <use xlink:href="#14reuse-2"/>
        <mask id="14mask1_92_1763" width="18" height="5" x="34" y="56" maskUnits="userSpaceOnUse" style="mask-type:alpha">
            <use xlink:href="#14reuse-2"/>
        </mask>
        <g mask="url(#14mask1_92_1763)">
            <path fill="#fff" d="M52.932 54.147c-.254 3.824-4.169 6.283-7.724 4.853-5.151 2.342-11-1.424-11-7.083V50h19l-.276 4.147Z"/>
        </g>
    </g>
    <defs>
        <linearGradient id="14paint0_linear_92_1763" x1="10.193" x2="10.193" y1="47.661" y2="51.579" gradientUnits="userSpaceOnUse">
            <stop stop-color="#FDE5A8"/>
            <stop offset=".677" stop-color="#FDE5A8" stop-opacity=".7"/>
            <stop offset="1" stop-color="#FDE5A8" stop-opacity="0"/>
        </linearGradient>
        <linearGradient id="14paint1_linear_92_1763" x1="18.495" x2="18.495" y1="37.265" y2="41.184" gradientUnits="userSpaceOnUse">
            <stop stop-color="#FDE5A8"/>
            <stop offset=".677" stop-color="#FDE5A8" stop-opacity=".7"/>
            <stop offset="1" stop-color="#FDE5A8" stop-opacity="0"/>
        </linearGradient>
        <linearGradient id="14paint2_linear_92_1763" x1="11.116" x2="11.116" y1="31.028" y2="34.946" gradientUnits="userSpaceOnUse">
            <stop stop-color="#FDE5A8"/>
            <stop offset=".677" stop-color="#FDE5A8" stop-opacity=".7"/>
            <stop offset="1" stop-color="#FDE5A8" stop-opacity="0"/>
        </linearGradient>
        <linearGradient id="14paint3_linear_92_1763" x1="17.573" x2="17.573" y1="20.633" y2="24.551" gradientUnits="userSpaceOnUse">
            <stop stop-color="#FDE5A8"/>
            <stop offset=".677" stop-color="#FDE5A8" stop-opacity=".7"/>
            <stop offset="1" stop-color="#FDE5A8" stop-opacity="0"/>
        </linearGradient>
        <linearGradient id="14paint4_linear_92_1763" x1="13.883" x2="13.883" y1="12.316" y2="16.235" gradientUnits="userSpaceOnUse">
            <stop stop-color="#FDE5A8"/>
            <stop offset=".677" stop-color="#FDE5A8" stop-opacity=".7"/>
            <stop offset="1" stop-color="#FDE5A8" stop-opacity="0"/>
        </linearGradient>
        <linearGradient id="14paint5_linear_92_1763" x1="20.34" x2="20.34" y1="53.898" y2="57.816" gradientUnits="userSpaceOnUse">
            <stop stop-color="#FDE5A8"/>
            <stop offset=".677" stop-color="#FDE5A8" stop-opacity=".7"/>
            <stop offset="1" stop-color="#FDE5A8" stop-opacity="0"/>
        </linearGradient>
        <linearGradient id="14paint6_linear_92_1763" x1="12.96" x2="12.96" y1="59.096" y2="63.014" gradientUnits="userSpaceOnUse">
            <stop stop-color="#FDE5A8"/>
            <stop offset=".677" stop-color="#FDE5A8" stop-opacity=".7"/>
            <stop offset="1" stop-color="#FDE5A8" stop-opacity="0"/>
        </linearGradient>
        <linearGradient id="14paint7_linear_92_1763" x1="19.417" x2="19.417" y1="70.531" y2="74.449" gradientUnits="userSpaceOnUse">
            <stop stop-color="#FDE5A8"/>
            <stop offset=".677" stop-color="#FDE5A8" stop-opacity=".7"/>
            <stop offset="1" stop-color="#FDE5A8" stop-opacity="0"/>
        </linearGradient>
        <linearGradient id="14paint8_linear_92_1763" x1="5.581" x2="5.581" y1="66.373" y2="70.291" gradientUnits="userSpaceOnUse">
            <stop stop-color="#FDE5A8"/>
            <stop offset=".677" stop-color="#FDE5A8" stop-opacity=".7"/>
            <stop offset="1" stop-color="#FDE5A8" stop-opacity="0"/>
        </linearGradient>
        <linearGradient id="14paint9_linear_92_1763" x1="13.883" x2="13.883" y1="73.65" y2="77.568" gradientUnits="userSpaceOnUse">
            <stop stop-color="#FDE5A8"/>
            <stop offset=".677" stop-color="#FDE5A8" stop-opacity=".7"/>
            <stop offset="1" stop-color="#FDE5A8" stop-opacity="0"/>
        </linearGradient>
        <linearGradient id="14paint10_linear_92_1763" x1="37.833" x2="37.833" y1="-3.929" y2="17.5" gradientUnits="userSpaceOnUse">
            <stop offset=".281" stop-color="#D9D9D9" stop-opacity="0"/>
            <stop offset="1" stop-color="#F5F5F5"/>
        </linearGradient>
        <clipPath id="14clip0_92_1763">
            <path fill="#fff" d="M0 0h100v100H0z"/>
        </clipPath>
    </defs>
</svg>