<svg xmlns="http://www.w3.org/2000/svg" xmlns:xlink="http://www.w3.org/1999/xlink" width="100" height="100" fill="none" viewBox="0 0 100 100">
    <defs>
        <path id="15reuse-0" fill="#282536" fill-opacity=".8" d="M88 74.5C88 67.596 82.404 62 75.5 62S63 67.596 63 74.5V89h25V74.5Z"/>
        <path id="15reuse-1" fill="#282536" d="M67.107 26H42v19h37L67.107 26Z"/>
    </defs>
    <g clip-path="url(#15clip0_91_1501)">
        <use xlink:href="#15reuse-0" fill-opacity=".8"/>
        <mask id="15mask0_91_1501" width="25" height="27" x="63" y="62" maskUnits="userSpaceOnUse" style="mask-type:alpha">
            <use xlink:href="#15reuse-0"/>
        </mask>
        <g mask="url(#15mask0_91_1501)">
            <path fill="#fff" d="M101.938 61H66v10.286l.316.135a19.691 19.691 0 0 0 17.912-1.217 9.846 9.846 0 0 1 7.138-1.188l10.572 2.27V61Z"/>
        </g>
        <path fill="#282536" d="M75 68h-2v22h2zM78 68h-2v22h2zM81 68h-2v22h2zM84 68h-2v22h2zM87 68h-2v22h2z"/>
        <path fill="#282536" d="M73 86v2h17v-2zM73 71v2h17v-2z"/>
        <path fill="#282536" d="M90 68h-2v22h2z"/>
        <path fill="#403C54" d="M79 45H42v49h37zM42 17H4v77h38z"/>
        <path stroke="#282536" stroke-opacity=".6" d="M4 86h75"/>
        <path fill="#403C54" d="m22.5 2 20.352 18H2.148L22.5 2Z"/>
        <path stroke="#282536" stroke-width=".5" d="m37 15-.805.46a25.893 25.893 0 0 1-12.826 3.399H22.05c-4.412 0-8.719-1.346-12.346-3.859"/>
        <path fill="#FDE5A8" d="M22.725 19.56a.458.458 0 1 0 .713-.576.458.458 0 0 0-.713.575Z"/>
        <path fill="#435A4E" d="M20.344 19.423c.14.242.49.27.717.06.296-.277.166-.732-.218-.764-.384-.031-.682.389-.499.704Z"/>
        <path fill="#B13434" d="M25.828 19.423c-.14.242-.49.27-.717.06-.296-.277-.166-.732.218-.764.384-.031.682.389.499.704ZM18.012 19.1c.1.256.46.312.727.114.338-.25.275-.7-.106-.76-.381-.06-.749.322-.621.646Z"/>
        <path fill="#435A4E" d="M28.208 19.1c-.1.256-.46.313-.728.115-.338-.25-.276-.7.105-.76.381-.06.75.321.623.645Z"/>
        <path fill="#FDE5A8" d="M15.71 18.57c.053.272.43.365.744.184.375-.217.377-.65.002-.742-.374-.092-.81.233-.746.558ZM9.79 16.222c.053.271.43.365.744.184.376-.217.377-.65.002-.742-.374-.092-.809.233-.746.558ZM30.476 18.607c-.059.27-.434.359-.742.176-.373-.221-.367-.656.008-.745.376-.088.804.244.734.57ZM36.216 16.407c-.058.27-.433.358-.742.175-.372-.22-.366-.656.01-.744.375-.089.803.244.732.569Z"/>
        <path fill="#435A4E" d="M13.607 17.884c.005.283.4.416.755.254.4-.182.45-.592.085-.715-.364-.122-.846.142-.84.46Z"/>
        <path fill="#B13434" d="M32.577 17.918c-.005.284-.4.416-.755.255-.4-.182-.45-.593-.085-.715.364-.123.845.141.84.46ZM11.646 17.048c-.043.29.365.467.756.327.415-.148.498-.534.149-.685-.35-.151-.86.05-.905.358Z"/>
        <path fill="#435A4E" d="M34.526 17.082c.043.29-.365.467-.757.328-.414-.148-.498-.535-.148-.686.35-.15.86.051.905.358Z"/>
        <path fill="#fff" d="M86 91a6 6 0 0 0-6-6h-5a3 3 0 0 0-3 3v7h14v-4Z"/>
        <path stroke="#fff" stroke-linecap="round" stroke-width="3" d="M23 3 2 20M23 3l20 17"/>
        <path fill="#282536" fill-opacity=".6" d="M79 88H4v6h75z"/>
        <path fill="url(#15paint0_linear_91_1501)" d="m62.393 0 1.304.467L65 .933l-.512 9.8L64.962 21H62.5l-.5-9.8.393-11.2Z"/>
        <path fill="#403C54" d="M65 19h-3v12h3z"/>
        <path fill="#282536" d="M11 55h15v18H11z"/>
        <path fill="#403C54" d="M11.5 55.53h14v16.94h-14V55.53Z"/>
        <path fill="currentColor" d="M12 56.059h5.909v7.33H12zM19.091 56.059H25v7.33h-5.909zM19.091 64.611H25v7.33h-5.909zM12 64.611h5.909v7.33H12z"/>
        <path fill="#282536" d="M34 55h15v18H34z"/>
        <path fill="#403C54" d="M34.5 55.53h14v16.94h-14V55.53Z"/>
        <path fill="currentColor" d="M35 56.059h5.909v7.33H35zM42.091 56.059H48v7.33h-5.909zM42.091 64.611H48v7.33h-5.909zM35 64.611h5.909v7.33H35z"/>
        <path stroke="#282536" stroke-width=".5" d="m78.5 44.5-.869.687a27.782 27.782 0 0 1-17.229 5.987H59.9A26.4 26.4 0 0 1 42.932 45"/>
        <path fill="#FDE5A8" d="M60.044 52.156a.678.678 0 1 0 1.128-.752.678.678 0 0 0-1.128.752Z"/>
        <path fill="#435A4E" d="M56.922 51.936c.204.425.795.484 1.125.112.369-.416.141-1.044-.398-1.097-.538-.054-.954.51-.727.985Z"/>
        <path fill="#B13434" d="M64.305 51.936c-.204.425-.795.484-1.125.112-.369-.416-.141-1.044.398-1.097.538-.054.954.51.727.985ZM53.865 51.427c.144.444.737.557 1.12.213.421-.379.276-1.013-.256-1.114-.53-.1-1.023.412-.864.9Z"/>
        <path fill="#435A4E" d="M67.425 51.427c-.143.444-.736.558-1.12.215-.422-.378-.277-1.013.254-1.114.53-.102 1.024.41.866.899Z"/>
        <path fill="#FDE5A8" d="M50.849 50.6c.074.461.668.639 1.107.332.471-.33.413-.959-.103-1.112-.516-.154-1.084.287-1.004.78ZM43.026 46.843c.074.461.668.639 1.108.332.47-.329.412-.958-.104-1.112-.515-.154-1.083.287-1.004.78ZM70.399 50.657c-.082.459-.676.629-1.11.317-.465-.334-.397-.965.12-1.113.518-.148 1.078.303.99.796ZM77.184 47.136c-.082.46-.676.63-1.11.318-.465-.335-.397-.966.12-1.114.518-.147 1.078.303.99.796Z"/>
        <path fill="#435A4E" d="M48.087 49.53c.006.47.599.712 1.086.443.506-.279.52-.894.024-1.096-.495-.201-1.118.164-1.11.652Z"/>
        <path fill="#B13434" d="M73.156 49.585c-.007.47-.599.712-1.087.443-.506-.279-.52-.893-.024-1.095.495-.202 1.118.163 1.111.652ZM45.503 48.22c-.058.475.526.782 1.054.554.53-.23.605-.824.135-1.07-.47-.246-1.13.041-1.19.517Z"/>
        <path fill="#435A4E" d="M75.249 48.07c.058.475-.527.782-1.055.554-.53-.23-.605-.824-.135-1.07.47-.246 1.131.041 1.19.517Z"/>
        <use xlink:href="#15reuse-1"/>
        <mask id="15mask1_91_1501" width="37" height="19" x="42" y="26" maskUnits="userSpaceOnUse" style="mask-type:alpha">
            <use xlink:href="#15reuse-1"/>
        </mask>
        <g stroke="#403C54" stroke-width=".5" mask="url(#15mask1_91_1501)">
            <path d="M39 43.75h70M39 41.75h70M39 39.75h70M39 37.75h70M39 35.75h70M39 33.75h70M39 31.75h70M39 29.75h70M39 27.75h70"/>
        </g>
        <path fill="#fff" d="M12.708 41v-.456l.936-.288c.608-.192.92-.592.936-1.2V27.632l-1.992.264v-.552c.896-.16 1.768-.392 2.616-.696a15.6 15.6 0 0 0 2.448-1.152l.288.24-.096 3.432v8.28c.016.544.024 1.072.024 1.584 0 .624.304 1.032.912 1.224l.984.288V41h-7.056Zm13.385.336c-1.92 0-3.384-.368-4.392-1.104l.144-2.928h.624l.936 1.776c.288.544.648.944 1.08 1.2.432.256.928.384 1.488.384.912 0 1.608-.336 2.088-1.008.496-.688.744-1.696.744-3.024 0-2.512-1.024-3.768-3.072-3.768-.4 0-.816.048-1.248.144a5.574 5.574 0 0 0-1.2.408l-.504-.288.528-7.392h8.352v2.64h-7.656l-.312 4.008a6.476 6.476 0 0 1 1.368-.6 5.58 5.58 0 0 1 1.728-.264c1.6 0 2.904.408 3.912 1.224 1.008.816 1.512 2.008 1.512 3.576 0 1.072-.264 1.984-.792 2.736-.528.736-1.256 1.304-2.184 1.704-.912.384-1.96.576-3.144.576ZM43 91a6 6 0 0 1 6-6h5a3 3 0 0 1 3 3v7H43v-4Z"/>
        <path fill="#fff" d="M35 95a5 5 0 0 1 5-5h6a3 3 0 0 1 3 3v2H35ZM22 95a2 2 0 0 1 2-2h1a2 2 0 0 1 2 2h-5Z"/>
        <path fill="#282536" d="M71 62H59v24h12z"/>
        <path stroke="#322E42" d="M72.5 59.5h-15v26h15z"/>
        <path fill="#282536" d="M75 86H55v3h20zM79 89H52v3h27zM81 92H50v3h31z"/>
        <path stroke="#282536" stroke-linecap="round" d="M47.5 74.5h-12M24.5 74.5h-12"/>
        <path fill="#fff" d="M23 74a1.498 1.498 0 0 0-1.422-.783L17.5 73.5l-4.387-.399A.623.623 0 0 0 12.5 74H23Z"/>
        <circle r="3" stroke="#435A4E" stroke-width="2" transform="matrix(-1 0 0 1 65 71)"/>
        <path fill="#B13434" d="M67.222 72.687a.2.2 0 0 0-.303-.172L65 73.667l-1.918-1.152a.2.2 0 0 0-.303.172v2.018a.2.2 0 0 0 .274.185L65 74.111l1.948.78a.2.2 0 0 0 .274-.186v-2.018Z"/>
        <path fill="#B13434" d="M64.852 74.111h-.296l-.593 2.667h.889V74.11ZM65.148 74.111h.296l.593 2.667h-.889V74.11Z"/>
        <path fill="#403C54" d="M70 75v1h-1v-1z"/>
        <path fill="#fff" d="M42 45c-.784-1.175.176-2.728 1.578-2.553L52 43.5l24.37-1.74A2.547 2.547 0 0 1 79 45H42Z"/>
        <path fill="#435A4E" d="m18.509 79.218 1.614 1.597.841-1.972-2.455.374Z"/>
        <path fill="#435A4E" d="m19.538 79.527 1.614 1.597.842-1.972-2.456.375Z"/>
        <path fill="#435A4E" d="m22.953 80.553-1.948.297.668-1.564 1.28 1.267ZM18.491 79.218l-1.614 1.597-.842-1.972 2.456.374Z"/>
        <path fill="#435A4E" d="m17.462 79.527-1.614 1.597-.842-1.972 2.456.375Z"/>
        <path fill="#435A4E" d="m14.047 80.553 1.947.297-.667-1.564-1.28 1.267Z"/>
        <ellipse fill="#FDE5A8" fill-opacity=".8" rx=".423" ry=".385" transform="matrix(1 0 0 -1 18.5 81.23)"/>
        <path fill="#FDE5A8" d="M17.654 79.99a.846.846 0 1 1 1.692 0v1.13a2.33 2.33 0 0 1-1.692 0v-1.13Z"/>
        <path fill="#B13434" d="M17.23 78.875a.2.2 0 0 1 .296-.175l.974.53.973-.53a.2.2 0 0 1 .296.175v.762a.2.2 0 0 1-.268.188l-1.001-.364-1.001.364a.2.2 0 0 1-.268-.188v-.762Z"/>
        <path fill="#B13434" d="m18.625 79.411-.125-.103-1.275.817.375.31 1.025-1.024Z"/>
        <path fill="#B13434" d="m18.368 79.411.126-.103 1.275.817-.376.31-1.025-1.024Z"/>
        <path fill="#435A4E" d="m41.509 79.218 1.614 1.597.841-1.972-2.455.375Z"/>
        <path fill="#435A4E" d="m42.538 79.527 1.614 1.597.842-1.972-2.456.375Z"/>
        <path fill="#435A4E" d="m45.953 80.553-1.948.297.668-1.564 1.28 1.267ZM41.491 79.218l-1.614 1.597-.842-1.972 2.456.374Z"/>
        <path fill="#435A4E" d="m40.462 79.527-1.614 1.597-.842-1.972 2.456.375Z"/>
        <path fill="#435A4E" d="m37.047 80.553 1.947.297-.667-1.564-1.28 1.267Z"/>
        <ellipse fill="#FDE5A8" fill-opacity=".8" rx=".423" ry=".385" transform="matrix(1 0 0 -1 41.5 81.23)"/>
        <path fill="#FDE5A8" d="M40.654 79.99a.846.846 0 1 1 1.692 0v1.13a2.33 2.33 0 0 1-1.692 0v-1.13Z"/>
        <path fill="#B13434" d="M40.23 78.875a.2.2 0 0 1 .296-.175l.974.53.973-.53a.2.2 0 0 1 .296.175v.762a.2.2 0 0 1-.268.188l-1.001-.364-1.001.364a.2.2 0 0 1-.269-.188v-.762Z"/>
        <path fill="#B13434" d="m41.625 79.411-.125-.103-1.275.817.375.31 1.025-1.024Z"/>
        <path fill="#B13434" d="m41.368 79.411.126-.103 1.275.817-.376.31-1.025-1.024Z"/>
    </g>
    <defs>
        <linearGradient id="15paint0_linear_91_1501" x1="63.585" x2="63.585" y1="0" y2="21" gradientUnits="userSpaceOnUse">
            <stop offset=".081" stop-color="#D9D9D9" stop-opacity="0"/>
            <stop offset="1" stop-color="#fff"/>
        </linearGradient>
        <clipPath id="15clip0_91_1501">
            <path fill="#fff" d="M100 0H0v100h100z"/>
        </clipPath>
    </defs>
</svg>