<svg xmlns="http://www.w3.org/2000/svg" xmlns:xlink="http://www.w3.org/1999/xlink" width="100" height="100" fill="none" viewBox="0 0 100 100">
    <defs>
        <path id="16reuse-0" fill="#282536" fill-opacity=".8" d="M9 63.5C9 56.596 14.596 51 21.5 51S34 56.596 34 63.5V90H9V63.5Z"/>
        <path id="16reuse-1" fill="#282536" fill-opacity=".8" d="M94 75.5C94 68.596 88.404 63 81.5 63S69 68.596 69 75.5V90h25V75.5Z"/>
        <path id="16reuse-2" fill="#282536" d="M35.476 12H71.27L80 41H25l10.476-29Z"/>
    </defs>
    <g clip-path="url(#16clip0_85_2793)">
        <use xlink:href="#16reuse-0" fill-opacity=".8"/>
        <mask id="16mask0_85_2793" width="25" height="39" x="9" y="51" maskUnits="userSpaceOnUse" style="mask-type:alpha">
            <use xlink:href="#16reuse-0"/>
        </mask>
        <g mask="url(#16mask0_85_2793)">
            <path fill="#fff" d="M37.125 48.4H1.187v14.857a15.304 15.304 0 0 0 18.099-1.45l.18-.156a7.814 7.814 0 0 1 7.437-1.563l10.222 3.17V48.4Z"/>
        </g>
        <use xlink:href="#16reuse-1" fill-opacity=".8"/>
        <mask id="16mask1_85_2793" width="25" height="27" x="69" y="63" maskUnits="userSpaceOnUse" style="mask-type:alpha">
            <use xlink:href="#16reuse-1"/>
        </mask>
        <g mask="url(#16mask1_85_2793)">
            <path fill="#fff" d="M65.875 61.2h35.937v10.286l-.315.135a19.691 19.691 0 0 1-17.912-1.217 9.846 9.846 0 0 0-7.139-1.187l-10.571 2.269V61.2Z"/>
        </g>
        <path fill="#282536" d="M23 69h2v22h-2zM20 69h2v22h-2zM17 69h2v22h-2zM14 69h2v22h-2zM11 69h2v22h-2z"/>
        <path fill="#282536" d="M25 87v2H8v-2zM25 72v2H8v-2z"/>
        <path fill="#282536" d="M8 69h2v22H8zM81 69h-2v22h2zM84 69h-2v22h2zM87 69h-2v22h2zM90 69h-2v22h2zM93 69h-2v22h2z"/>
        <path fill="#282536" d="M79 87v2h17v-2zM79 72v2h17v-2z"/>
        <path fill="#282536" d="M96 69h-2v22h2z"/>
        <path fill="#403C54" d="M25 41h55v53H25z"/>
        <path stroke="#282536" stroke-opacity=".6" d="M25 91.5h55M25 89.5h55M25 67.5h55M25 41.5h55M25 43.5h55"/>
        <path stroke="#282536" stroke-width=".5" d="m26 39 1.188.903a22.127 22.127 0 0 0 13.375 4.5A21.99 21.99 0 0 0 55 39"/>
        <path fill="#FDE5A8" d="M41.096 45.2a.567.567 0 1 1-.97-.587.567.567 0 0 1 .97.587Z"/>
        <path fill="#435A4E" d="M43.567 45.006c-.168.385-.694.443-.965.106a.551.551 0 0 1 .36-.905c.44-.048.778.4.605.8Z"/>
        <path fill="#B13434" d="M37.648 45.006c.167.385.694.443.965.106a.551.551 0 0 0-.36-.905c-.44-.048-.779.4-.605.8ZM45.986 44.564c-.118.4-.64.51-.953.2-.322-.319-.183-.838.25-.929.43-.09.825.318.703.73Z"/>
        <path fill="#435A4E" d="M35.179 44.565c.117.4.64.51.953.2.323-.318.184-.837-.248-.928-.431-.09-.826.316-.705.727Z"/>
        <path fill="#FDE5A8" d="M48.373 43.85c-.06.412-.574.581-.932.307-.361-.279-.291-.802.126-.94.418-.137.866.216.806.633ZM32.825 43.898c.066.411.581.573.934.294.358-.283.28-.807-.14-.938-.42-.132-.862.227-.794.644Z"/>
        <path fill="#435A4E" d="M50.56 42.925c-.005.418-.507.643-.9.404-.392-.237-.382-.757.017-.936.399-.18.889.116.883.532Z"/>
        <path fill="#B13434" d="M30.642 42.973c.006.418.507.643.9.404.392-.237.383-.757-.017-.936-.398-.18-.888.116-.883.532ZM52.61 41.793c.046.418-.438.698-.862.497-.413-.197-.458-.707-.08-.924.376-.217.896.018.941.427Z"/>
        <path fill="#435A4E" d="M28.605 41.84c-.046.42.438.699.861.498.413-.197.458-.707.081-.924-.376-.217-.896.018-.942.427Z"/>
        <path stroke="#282536" stroke-width=".5" d="m51 39 1.217.958a20.73 20.73 0 0 0 12.826 4.445c5.135 0 10.147-1.96 13.957-5.403"/>
        <path fill="#FDE5A8" d="M65.589 45.178a.557.557 0 1 1-.963-.562.557.557 0 0 1 .963.562Z"/>
        <path fill="#435A4E" d="M67.97 44.984c-.163.389-.692.449-.956.108a.546.546 0 0 1 .363-.885c.428-.048.758.384.593.777Z"/>
        <path fill="#B13434" d="M62.237 44.984c.163.389.692.449.956.108a.546.546 0 0 0-.363-.885c-.427-.048-.758.384-.593.777ZM70.303 44.543c-.115.404-.638.517-.943.204-.306-.313-.163-.82.257-.912.42-.09.802.303.686.708Z"/>
        <path fill="#435A4E" d="M59.856 44.543c.114.404.637.518.943.206.307-.313.165-.82-.255-.912-.42-.092-.803.301-.688.706Z"/>
        <path fill="#FDE5A8" d="M72.604 43.832c-.059.415-.57.589-.917.312-.345-.274-.27-.789.137-.927.405-.138.838.203.78.615ZM57.586 43.88c.065.413.578.58.921.3.34-.28.257-.794-.15-.926-.408-.133-.835.214-.77.625Z"/>
        <path fill="#435A4E" d="M74.713 42.91c-.005.42-.5.651-.882.411-.374-.235-.358-.748.03-.928.386-.18.858.106.852.517Z"/>
        <path fill="#B13434" d="M55.482 42.959c.005.42.5.65.882.41.375-.235.358-.748-.03-.928-.386-.18-.857.106-.852.517ZM76.69 41.783c.046.42-.429.704-.839.502-.396-.195-.434-.701-.069-.92.365-.217.865.013.909.418Z"/>
        <path fill="#435A4E" d="M53.517 41.831c-.046.42.43.704.839.502.396-.195.434-.701.07-.92-.366-.217-.866.013-.91.418Z"/>
        <path fill="url(#16paint0_linear_85_2793)" d="M41.667-8H47a34.574 34.574 0 0 0 0 15h-5.333l-1.334-3.75a13.79 13.79 0 0 1-.463-7.634l.13-.58L41.667-8Z"/>
        <path fill="#282536" d="M41 6h6v12h-6z"/>
        <use xlink:href="#16reuse-2"/>
        <mask id="16mask2_85_2793" width="55" height="29" x="25" y="12" maskUnits="userSpaceOnUse" style="mask-type:alpha">
            <use xlink:href="#16reuse-2"/>
        </mask>
        <g stroke="#403C54" stroke-width=".5" mask="url(#16mask2_85_2793)">
            <path d="m21.241.355 14.194 53.137M84.31 1.355 70.115 54.492M27.435-.419l14.194 53.137M78.115.58 63.922 53.719M33.629-1.194l14.194 53.137M71.922-.194 57.728 52.943M39.823-1.968l14.194 53.137M65.728-.968 51.534 52.17M46.017-2.742l14.194 53.137M59.534-1.742 45.34 51.395M52.211-3.516l14.193 53.137M53.34-2.516 39.146 50.62M58.405-4.29l14.193 53.137M47.146-3.29 32.952 49.847M64.599-5.065l14.193 53.137M40.952-4.065 26.76 49.072"/>
        </g>
        <path fill="#fff" d="M25 41a7.487 7.487 0 0 1 7.109-3.916L52.5 38.5l22.52-2.047A4.566 4.566 0 0 1 80 41H25ZM28.743 64v-.456l.936-.288c.608-.192.92-.592.936-1.2V50.632l-1.992.264v-.552c.896-.16 1.768-.392 2.616-.696a15.6 15.6 0 0 0 2.448-1.152l.288.24-.096 3.432v8.28c.016.544.024 1.072.024 1.584 0 .624.304 1.032.912 1.224l.984.288V64h-7.056Zm14.033.336c-1.696 0-3.064-.568-4.104-1.704-1.04-1.136-1.56-2.736-1.56-4.8 0-1.632.408-3.12 1.224-4.464.832-1.36 2-2.48 3.504-3.36 1.504-.88 3.264-1.416 5.28-1.608l.072.552c-1.936.416-3.424 1.16-4.464 2.232-1.04 1.072-1.72 2.48-2.04 4.224a5.185 5.185 0 0 1 1.488-.648 6.008 6.008 0 0 1 1.704-.24c.944 0 1.736.2 2.376.6.64.4 1.12.944 1.44 1.632.32.688.48 1.464.48 2.328 0 1.12-.264 2.072-.792 2.856a5.26 5.26 0 0 1-2.04 1.8c-.816.4-1.672.6-2.568.6Zm-2.328-6.024c0 1.904.184 3.272.552 4.104.368.832.936 1.248 1.704 1.248.736 0 1.288-.336 1.656-1.008.368-.672.552-1.776.552-3.312 0-1.424-.184-2.416-.552-2.976-.352-.56-.928-.84-1.728-.84-.736 0-1.416.168-2.04.504a16.91 16.91 0 0 0-.144 2.28ZM91 95c-.587-4.3-4.91-7.03-9.045-5.715l-5.017 1.597-2.805-1.396C69.757 87.306 64.546 90.142 64 95h27Z"/>
        <path fill="#282536" fill-opacity=".6" d="m53.138 75 .251 3.619 2.688.25-2.688.323-.25 4.085-.287-4.085-2.652-.322 2.652-.251.286-3.619ZM53.138 52l.251 3.619 2.688.25-2.688.323-.25 4.085-.287-4.085-2.652-.322 2.652-.251.286-3.619Z"/>
        <path fill="#fff" d="M78 41h2v.625L79 46l-1-4.375V41ZM77 41h1v.375L77.5 44l-.5-2.625V41Z"/>
        <path fill="#282536" d="M61 48h14.167v17H61z"/>
        <path fill="#403C54" d="M61.472 48.5h13.222v16H61.472v-16Z"/>
        <path fill="currentColor" d="M61.944 49h5.581v6.923h-5.581zM68.641 49h5.581v6.923h-5.581zM68.641 57.077h5.581V64h-5.581zM61.944 57.077h5.581V64h-5.581z"/>
        <path fill="#282536" d="M61 70h14.167v17H61z"/>
        <path fill="#403C54" d="M61.472 70.5h13.222v16H61.472v-16Z"/>
        <path fill="currentColor" d="M61.944 71h5.581v6.923h-5.581zM68.641 71h5.581v6.923h-5.581zM68.641 79.077h5.581V86h-5.581zM61.944 79.077h5.581V86h-5.581z"/>
        <path fill="#282536" d="M31 70h14.167v17H31z"/>
        <path fill="#403C54" d="M31.472 70.5h13.222v16H31.472v-16Z"/>
        <path fill="currentColor" d="M31.944 71h5.581v6.923h-5.581zM38.641 71h5.581v6.923h-5.581zM38.641 79.077h5.581V86h-5.581zM31.944 79.077h5.581V86h-5.581z"/>
    </g>
    <defs>
        <linearGradient id="16paint0_linear_85_2793" x1="44.333" x2="44.333" y1="-7.107" y2="11" gradientUnits="userSpaceOnUse">
            <stop offset=".323" stop-color="#D9D9D9" stop-opacity="0"/>
            <stop offset="1" stop-color="#F5F5F5"/>
        </linearGradient>
        <clipPath id="16clip0_85_2793">
            <path fill="#fff" d="M0 0h100v100H0z"/>
        </clipPath>
    </defs>
</svg>