<svg xmlns="http://www.w3.org/2000/svg" xmlns:xlink="http://www.w3.org/1999/xlink" width="100" height="100" fill="none" viewBox="0 0 100 100">
    <defs>
        <path id="17reuse-0" fill="#282536" d="M85.823 89.706h5.353L90.412 95h-3.824l-.764-5.294Z"/>
        <path id="17reuse-1" fill="#282536" fill-opacity=".6" d="M82 71.5a6.5 6.5 0 1 1 13 0v7.294a6.5 6.5 0 1 1-13 0V71.5Z"/>
        <path id="17reuse-2" fill="#282536" d="M9.823 89.706h5.353L14.412 95h-3.824l-.765-5.294Z"/>
        <path id="17reuse-3" fill="#282536" fill-opacity=".6" d="M6 71.5a6.5 6.5 0 1 1 13 0v7.294a6.5 6.5 0 1 1-13 0V71.5Z"/>
        <path id="17reuse-4" fill="#282536" d="m41 58.111.54-.542c5.156-5.183 13.617-4.934 18.46.542V61H41v-2.889Z"/>
    </defs>
    <g clip-path="url(#17clip0_82_1739)">
        <path fill="#403C54" d="M14 34h73v60H14z"/>
        <path fill="#282536" fill-opacity=".6" d="M14 82h73v12H14z"/>
        <path fill="#fff" d="M27 88.868c0-5.67-6.503-8.876-11-5.424-3.437-1.674-7.562.071-8.753 3.704L5 94h22v-5.132Z"/>
        <path fill="#282536" d="M35 92h31v3H35zM37 89h27v3H37zM72.375 8h3v6h-3zM77.375 8h3v6h-3z"/>
        <path fill="#fff" d="M16 13h69l5 29H10l6-29Z"/>
        <path stroke="#fff" stroke-linecap="square" stroke-width=".8" d="M16 13h69"/>
        <path fill="#403C54" d="m50 9 20.785 36.75h-41.57L50 9Z"/>
        <path fill="#fff" d="M40.712 46v-.456l.936-.288c.608-.192.92-.592.936-1.2V32.632l-1.992.264v-.552c.896-.16 1.768-.392 2.616-.696a15.6 15.6 0 0 0 2.448-1.152l.288.24-.096 3.432v8.28c.016.544.024 1.072.024 1.584 0 .624.304 1.032.912 1.224l.984.288V46h-7.056Zm10.048 0-.24-.24 7.776-12.552h-9.335v-2.472h10.488v1.56L53.785 46H50.76ZM98.517 94.253C98.747 84.35 85.336 81.094 81 90l-.258-.144C76.82 87.678 72 90.513 72 95h26.5l.017-.747Z"/>
        <path stroke="#fff" stroke-linecap="round" stroke-width="3" d="M50 7 30 42M50 7l20 35M70.5 42.5h19M10.5 42.5h19"/>
        <path fill="#fff" d="M24 43h2v.75L25 49l-1-5.25V43ZM21 43h2v.5L22 47l-1-3.5V43Z"/>
        <path fill="#fff" d="M23 43h2v.625L24 48l-1-4.375V43ZM82 43h2v.625L83 48l-1-4.375V43ZM81 43h1v.375L81.5 46l-.5-2.625V43Z"/>
        <path fill="url(#17paint0_linear_82_1739)" d="M73-1h2a32.71 32.71 0 0 0 0 9h-2l-.5-2.25a12.744 12.744 0 0 1-.18-4.533l.055-.396L73-1Z"/>
        <path fill="url(#17paint1_linear_82_1739)" d="M77.75-1h2a32.71 32.71 0 0 0 0 9h-2l-.5-2.25a12.744 12.744 0 0 1-.18-4.533l.055-.396L77.75-1Z"/>
        <use xlink:href="#17reuse-0"/>
        <mask id="17mask0_82_1739" width="7" height="6" x="85" y="89" maskUnits="userSpaceOnUse" style="mask-type:alpha">
            <use xlink:href="#17reuse-0"/>
        </mask>
        <g mask="url(#17mask0_82_1739)">
            <path stroke="#403C54" stroke-width=".2" d="M91.177 90.688h-5.353"/>
        </g>
        <use xlink:href="#17reuse-1" fill-opacity=".6"/>
        <path fill="#282536" d="M88.118 65.882h.764v24.706h-.764V65.882Z"/>
        <mask id="17mask1_82_1739" width="13" height="21" x="82" y="65" maskUnits="userSpaceOnUse" style="mask-type:alpha">
            <use xlink:href="#17reuse-1"/>
        </mask>
        <g mask="url(#17mask1_82_1739)">
            <path fill="#282536" d="m84.026 71.051.445-.717 4.236 3.5-.445.717zM84.026 74.58l.445-.716 4.236 3.5-.445.716zM84.026 78.11l.445-.717 4.236 3.5-.445.717zM84.026 81.64l.445-.718 4.236 3.5-.445.717zM85.643 68.596l.445-.717 2.887 2.386-.445.717z"/>
            <path fill="#282536" d="m91.45 68.364-.445-.717-2.887 2.386.445.717zM93.088 71.011l-.445-.717-4.235 3.5.445.717 4.235-3.5ZM93.088 74.54l-.445-.716-4.235 3.5.445.717 4.235-3.5ZM93.088 78.07l-.445-.717-4.235 3.5.445.717 4.235-3.5ZM93.088 81.6l-.445-.718-4.235 3.5.445.717 4.235-3.5Z"/>
            <path stroke="#282536" stroke-width=".5" d="m97.18 78.277-.54.181a14.72 14.72 0 0 1-7.712.448l-.71-.15a12.451 12.451 0 0 1-6.6-3.756"/>
            <path fill="#FDE5A8" d="M88.474 79.231a.272.272 0 1 0 .487-.24.272.272 0 0 0-.487.24Z"/>
            <path fill="#435A4E" d="M87.134 78.865c.051.162.255.223.413.125.202-.126.179-.404-.038-.47-.218-.064-.44.14-.375.345Z"/>
            <path fill="#B13434" d="M90.27 79.526c-.112.127-.323.101-.428-.053-.134-.196 0-.442.224-.414.225.028.346.305.204.467ZM85.846 78.396c.026.165.231.244.41.159.222-.106.237-.374.025-.456-.212-.081-.468.093-.435.297Z"/>
            <path fill="#435A4E" d="M91.665 79.622c-.09.14-.31.13-.44-.02-.16-.187-.066-.438.16-.427.227.01.392.273.28.447Z"/>
            <path fill="#FDE5A8" d="M84.6 77.81c-.003.168.207.27.41.201.24-.081.289-.332.085-.432-.203-.1-.49.035-.494.232ZM93.017 79.605c-.067.153-.298.16-.453.015-.184-.174-.124-.424.103-.43.227-.008.43.234.35.415Z"/>
            <path fill="#435A4E" d="M83.487 77.157c-.032.168.18.296.404.243.25-.058.324-.292.13-.408-.192-.116-.498-.022-.534.165Z"/>
            <path fill="#B13434" d="M94.299 79.455c-.038.166-.284.198-.468.06-.205-.155-.179-.398.045-.427.224-.028.465.181.423.367ZM82.473 76.432c-.061.166.152.32.394.286.253-.037.346-.253.165-.384-.18-.131-.496-.076-.56.098Z"/>
            <path fill="#435A4E" d="M95.513 79.2c-.012.176-.27.231-.476.102-.217-.136-.215-.372.003-.418.219-.047.484.13.473.315Z"/>
            <path stroke="#282536" stroke-width=".5" d="m97.18 73.277-.54.181a14.72 14.72 0 0 1-7.712.448l-.71-.15a12.451 12.451 0 0 1-6.6-3.756"/>
            <path fill="#FDE5A8" d="M88.474 74.231a.272.272 0 1 0 .487-.24.272.272 0 0 0-.487.24Z"/>
            <path fill="#435A4E" d="M87.134 73.865c.051.162.255.223.413.125.202-.126.179-.404-.038-.47-.218-.064-.44.14-.375.345Z"/>
            <path fill="#B13434" d="M90.27 74.526c-.112.127-.323.101-.428-.053-.134-.196 0-.442.224-.414.225.028.346.305.204.467ZM85.846 73.396c.026.165.231.244.41.159.222-.106.237-.374.025-.456-.212-.081-.468.093-.435.297Z"/>
            <path fill="#435A4E" d="M91.665 74.622c-.09.14-.31.13-.44-.02-.16-.187-.066-.438.16-.427.227.01.392.273.28.447Z"/>
            <path fill="#FDE5A8" d="M84.6 72.81c-.003.168.207.27.41.201.24-.081.289-.332.085-.432-.203-.1-.49.035-.494.232ZM93.017 74.605c-.067.153-.298.16-.453.015-.184-.174-.124-.424.103-.43.227-.008.43.234.35.415Z"/>
            <path fill="#435A4E" d="M83.487 72.157c-.032.168.18.296.404.243.25-.058.324-.292.13-.408-.192-.116-.498-.022-.534.165Z"/>
            <path fill="#B13434" d="M94.299 74.455c-.038.166-.284.198-.468.06-.205-.155-.179-.398.045-.427.224-.028.465.181.423.367ZM82.473 71.432c-.061.166.152.32.394.286.253-.037.346-.253.165-.384-.18-.131-.496-.076-.56.098Z"/>
            <path fill="#435A4E" d="M95.513 74.2c-.012.176-.27.231-.476.102-.217-.136-.215-.372.003-.418.219-.047.484.13.473.315Z"/>
            <path stroke="#282536" stroke-width=".5" d="m97.18 69.277-.54.181a14.72 14.72 0 0 1-7.712.448l-.71-.15a12.451 12.451 0 0 1-6.6-3.756"/>
            <path fill="#FDE5A8" d="M88.474 70.231a.272.272 0 1 0 .487-.24.272.272 0 0 0-.487.24Z"/>
            <path fill="#435A4E" d="M87.134 69.865c.051.162.255.223.413.125.202-.126.179-.404-.038-.47-.218-.064-.44.14-.375.345Z"/>
            <path fill="#B13434" d="M90.27 70.526c-.112.127-.323.101-.428-.053-.134-.196 0-.442.224-.414.225.028.346.305.204.467ZM85.846 69.396c.026.165.231.244.41.159.222-.106.237-.374.025-.456-.212-.081-.468.093-.435.297Z"/>
            <path fill="#435A4E" d="M91.665 70.622c-.09.14-.31.13-.44-.02-.16-.187-.066-.438.16-.427.227.01.392.273.28.447Z"/>
            <path fill="#FDE5A8" d="M84.6 68.81c-.003.168.207.27.41.201.24-.081.289-.332.085-.432-.203-.1-.49.035-.494.232ZM93.017 70.605c-.067.153-.298.16-.453.015-.184-.174-.124-.424.103-.43.227-.008.43.234.35.415Z"/>
            <path fill="#435A4E" d="M83.487 68.157c-.032.168.18.296.404.243.25-.058.324-.292.13-.408-.192-.116-.498-.022-.534.165Z"/>
            <path fill="#B13434" d="M94.299 70.455c-.038.166-.284.198-.468.06-.205-.155-.179-.398.045-.427.224-.028.465.181.423.367ZM82.473 67.432c-.061.166.152.32.394.286.253-.037.346-.253.165-.384-.18-.131-.496-.076-.56.098Z"/>
            <path fill="#435A4E" d="M95.513 70.2c-.012.176-.27.231-.476.102-.217-.136-.215-.372.003-.418.219-.047.484.13.473.315Z"/>
            <path stroke="#282536" stroke-width=".5" d="m97.18 82.277-.54.181a14.72 14.72 0 0 1-7.712.448l-.71-.15a12.451 12.451 0 0 1-6.6-3.756"/>
            <path fill="#FDE5A8" d="M88.474 83.231a.272.272 0 1 0 .487-.24.272.272 0 0 0-.487.24Z"/>
            <path fill="#435A4E" d="M87.134 82.865c.051.162.255.223.413.125.202-.126.179-.404-.038-.47-.218-.064-.44.14-.375.345Z"/>
            <path fill="#B13434" d="M90.27 83.526c-.112.127-.323.101-.428-.053-.134-.196 0-.442.224-.414.225.028.346.305.204.467ZM85.846 82.396c.026.165.231.244.41.159.222-.106.237-.374.025-.456-.212-.081-.468.093-.435.297Z"/>
            <path fill="#435A4E" d="M91.665 83.622c-.09.14-.31.13-.44-.02-.16-.187-.066-.438.16-.427.227.01.392.273.28.447Z"/>
            <path fill="#FDE5A8" d="M84.6 81.81c-.003.168.207.27.41.201.24-.081.289-.332.085-.432-.203-.1-.49.035-.494.232ZM93.017 83.605c-.067.153-.298.16-.453.015-.184-.174-.124-.424.103-.43.227-.008.43.234.35.415Z"/>
            <path fill="#435A4E" d="M83.487 81.157c-.032.168.18.296.404.243.25-.058.324-.292.13-.408-.192-.116-.498-.022-.534.165Z"/>
            <path fill="#B13434" d="M94.299 83.455c-.038.166-.284.198-.468.06-.205-.155-.179-.398.045-.427.224-.028.465.181.423.367ZM82.473 80.432c-.061.166.152.32.394.286.253-.037.346-.253.165-.384-.18-.131-.496-.076-.56.098Z"/>
            <path fill="#435A4E" d="M95.513 83.2c-.012.176-.27.231-.476.102-.217-.136-.215-.372.003-.418.219-.047.484.13.473.315Z"/>
            <path fill="#fff" d="M82.765 64.118h11.47v4.411l-.31.18a7.477 7.477 0 0 0-3.518 4.663c-.938 3.752-6.257 3.785-7.243.046L82 69l.765-4.882Z"/>
        </g>
        <use xlink:href="#17reuse-2"/>
        <mask id="17mask2_82_1739" width="7" height="6" x="9" y="89" maskUnits="userSpaceOnUse" style="mask-type:alpha">
            <use xlink:href="#17reuse-2"/>
        </mask>
        <g mask="url(#17mask2_82_1739)">
            <path stroke="#403C54" stroke-width=".2" d="M15.177 90.688H9.824"/>
        </g>
        <use xlink:href="#17reuse-3" fill-opacity=".6"/>
        <path fill="#282536" d="M12.118 65.882h.764v24.706h-.764V65.882Z"/>
        <path fill="#282536" d="M43 62h15v27H43z"/>
        <path fill="#403C54" d="M55 77h2v2h-2z"/>
        <circle cx="50.5" cy="71.5" r="3.5" stroke="#435A4E" stroke-width="2"/>
        <path fill="#B13434" d="M48 73.353a.2.2 0 0 1 .303-.171L50.5 74.5l2.197-1.318a.2.2 0 0 1 .303.171v2.352a.2.2 0 0 1-.274.185L50.5 75l-2.226.89a.2.2 0 0 1-.274-.185v-2.352Z"/>
        <path fill="#B13434" d="M50.667 75H51l.667 3h-1v-3ZM50.333 75H50l-.667 3h1v-3Z"/>
        <use xlink:href="#17reuse-4"/>
        <mask id="17mask4_82_1739" width="19" height="8" x="41" y="53" maskUnits="userSpaceOnUse" style="mask-type:alpha">
            <use xlink:href="#17reuse-4"/>
        </mask>
        <g mask="url(#17mask4_82_1739)">
            <path fill="#fff" d="M68.818 47.85c-.443 7.068-8.21 11.159-14.289 7.525C48.63 59.994 40 55.791 40 48.297V44h29.059l-.241 3.85Z"/>
        </g>
        <path fill="#282536" d="M20 57a6 6 0 0 1 6-6h3a6 6 0 0 1 6 6v21H20V57Z"/>
        <path fill="#403C54" d="M20.5 57.794a6 6 0 0 1 6-6h2a6 6 0 0 1 6 6v19.412h-14V57.794Z"/>
        <path fill="currentColor" d="M21 58.497a5.909 5.909 0 0 1 5.91-5.909v10.996H21v-5.087ZM28.09 52.588a5.909 5.909 0 0 1 5.91 5.91v5.086h-5.91V52.588ZM28.091 65.416H34v10.995h-5.909zM21 65.416h5.909v10.995H21z"/>
        <path fill="#282536" d="M66 57a6 6 0 0 1 6-6h3a6 6 0 0 1 6 6v21H66V57Z"/>
        <path fill="#403C54" d="M66.5 57.794a6 6 0 0 1 6-6h2a6 6 0 0 1 6 6v19.412h-14V57.794Z"/>
        <path fill="currentColor" d="M67 58.497a5.909 5.909 0 0 1 5.91-5.909v10.996H67v-5.087ZM74.09 52.588a5.909 5.909 0 0 1 5.91 5.91v5.086h-5.91V52.588ZM74.091 65.416H80v10.995h-5.909zM67 65.416h5.909v10.995H67z"/>
    </g>
    <defs>
        <linearGradient id="17paint0_linear_82_1739" x1="74.5" x2="74.5" y1="-.464" y2="8.536" gradientUnits="userSpaceOnUse">
            <stop offset=".151" stop-color="#D9D9D9" stop-opacity="0"/>
            <stop offset="1" stop-color="#F5F5F5"/>
        </linearGradient>
        <linearGradient id="17paint1_linear_82_1739" x1="80" x2="80" y1="-.464" y2="8.536" gradientUnits="userSpaceOnUse">
            <stop offset=".318" stop-color="#D9D9D9" stop-opacity="0"/>
            <stop offset="1" stop-color="#F5F5F5"/>
        </linearGradient>
        <clipPath id="17clip0_82_1739">
            <path fill="#fff" d="M0 0h100v100H0z"/>
        </clipPath>
    </defs>
</svg>