<svg xmlns="http://www.w3.org/2000/svg" xmlns:xlink="http://www.w3.org/1999/xlink" width="100" height="100" fill="none" viewBox="0 0 100 100">
    <defs>
        <path id="18reuse-0" fill="#403C54" fill-rule="evenodd" d="M84.708 53.75 50.5 5 16.292 53.75H19V94h63V53.75h2.708Z" clip-rule="evenodd"/>
    </defs>
    <g clip-path="url(#18clip0_58_361)">
        <path fill="#403C54" d="M68.75 19h7.5v23h-7.5z"/>
        <path stroke="#403C54" stroke-linecap="round" stroke-width="2" d="M69 19h7"/>
        <use xlink:href="#18reuse-0" fill-rule="evenodd" clip-rule="evenodd"/>
        <mask id="18mask0_58_361" width="69" height="89" x="16" y="5" maskUnits="userSpaceOnUse" style="mask-type:alpha">
            <use xlink:href="#18reuse-0" fill-rule="evenodd" clip-rule="evenodd"/>
        </mask>
        <g stroke="#282536" stroke-opacity=".6" mask="url(#18mask0_58_361)">
            <path d="M19 88.5h78M19 91.5h78M19 85.5h78M19 82.5h78M19 79.5h78M19 76.5h78M19 73.5h78M19 70.5h78M19 67.5h78M19 64.5h78M19 61.5h78M19 58.5h78M19 55.5h78M19 52.5h78M19 49.5h78M19 46.5h78M19 43.5h78M19 40.5h78M19 37.5h78M19 34.5h78M19 31.5h78M19 28.5h78M19 25.5h78M19 22.5h78M19 19.5h78M19 16.5h78M19 13.5h78M19 10.5h78"/>
        </g>
        <path fill="url(#18paint0_linear_58_361)" d="M75.605-2.5 68.5-2.964l.947 11.813.474 9.187h5.053l.157-3.28V1.5l.474-4Z"/>
        <path fill="#282536" d="M26 60h15v18H26z"/>
        <path fill="#403C54" d="M26.5 60.53h14v16.94h-14V60.53Z"/>
        <path fill="currentColor" d="M27 61.059h5.909v7.33H27zM34.091 61.059H40v7.33h-5.909zM34.091 69.611H40v7.33h-5.909zM27 69.611h5.909v7.33H27z"/>
        <path fill="#fff" d="M26 77.35c.65-.64 1.526-1 2.438-1h5.459l5.29.124A2.433 2.433 0 0 1 41 77.35H26Z"/>
        <path fill="#282536" d="M43 60h15v18H43z"/>
        <path fill="#403C54" d="M43.5 60.53h14v16.94h-14V60.53Z"/>
        <path fill="currentColor" d="M44 61.059h5.909v7.33H44zM51.091 61.059H57v7.33h-5.909zM51.091 69.611H57v7.33h-5.909zM44 69.611h5.909v7.33H44z"/>
        <path fill="#fff" d="M43 77.35c.65-.64 1.526-1 2.438-1h5.459l5.29.124A2.433 2.433 0 0 1 58 77.35H43Z"/>
        <path fill="#282536" d="M60 60h15v18H60z"/>
        <path fill="#403C54" d="M60.5 60.53h14v16.94h-14V60.53Z"/>
        <path fill="currentColor" d="M61 61.059h5.909v7.33H61zM68.091 61.059H74v7.33h-5.909zM68.091 69.611H74v7.33h-5.909zM61 69.611h5.909v7.33H61z"/>
        <path fill="#fff" d="M60 77.35c.65-.64 1.526-1 2.438-1h5.459l5.29.124A2.433 2.433 0 0 1 75 77.35H60Z"/>
        <path stroke="#282536" stroke-width=".5" d="M18.5 50a26.04 26.04 0 0 0 15.579 5.174h.695A24.407 24.407 0 0 0 51 49"/>
        <path fill="#FDE5A8" d="M34.896 56.113a.66.66 0 1 1-1.118-.702.66.66 0 0 1 1.118.702Z"/>
        <path fill="#435A4E" d="M37.831 55.892c-.196.435-.794.498-1.112.117-.34-.406-.109-1.004.407-1.058.516-.054.915.477.705.94Z"/>
        <path fill="#B13434" d="M30.833 55.892c.197.435.794.498 1.112.117.34-.406.11-1.004-.407-1.058-.516-.054-.914.477-.705.94ZM40.707 55.385c-.139.453-.734.573-1.102.223-.389-.37-.234-.98.274-1.082.508-.102.974.382.828.86Z"/>
        <path fill="#435A4E" d="M27.899 55.386c.137.453.733.573 1.101.223.39-.369.236-.978-.272-1.081-.507-.103-.975.38-.83.858Z"/>
        <path fill="#FDE5A8" d="M43.543 54.565c-.071.467-.661.655-1.082.343-.435-.322-.362-.933.13-1.088.491-.156 1.025.262.952.745ZM50.832 50.922c-.071.467-.661.654-1.082.343-.435-.323-.362-.933.13-1.089.491-.156 1.025.262.952.745ZM25.102 54.62c.078.467.67.646 1.084.33.43-.328.349-.94-.145-1.089-.494-.15-1.02.277-.94.76Z"/>
        <path fill="#435A4E" d="M46.141 53.502c-.006.475-.587.727-1.05.456-.47-.275-.468-.877.003-1.08.47-.204 1.054.144 1.047.624Z"/>
        <path fill="#B13434" d="M22.509 53.557c.006.476.587.727 1.05.456.47-.275.468-.877-.003-1.08-.47-.204-1.054.144-1.047.624ZM48.574 52.203c.056.477-.51.791-1.01.562-.494-.226-.554-.814-.109-1.061.446-.248 1.065.029 1.12.5Z"/>
        <path fill="#435A4E" d="M20.09 52.258c-.055.477.51.791 1.011.562.494-.226.554-.814.108-1.061-.445-.247-1.064.029-1.119.5Z"/>
        <path stroke="#282536" stroke-width=".5" d="m51 49 1.725 1.342a22.92 22.92 0 0 0 14.077 4.832h1.745c5.066 0 9.917-2.046 13.453-5.674"/>
        <path fill="#FDE5A8" d="M67.869 56.07a.64.64 0 1 1-1.104-.653.64.64 0 0 1 1.104.652Z"/>
        <path fill="#435A4E" d="M70.625 55.847c-.188.443-.791.51-1.097.123a.626.626 0 0 1 .414-1.02c.494-.054.875.446.683.897Z"/>
        <path fill="#B13434" d="M64 55.847c.189.443.792.51 1.097.123a.626.626 0 0 0-.414-1.02c-.493-.054-.874.446-.683.897ZM73.324 55.343c-.132.46-.73.588-1.081.232-.357-.36-.195-.945.29-1.049.485-.104.925.352.791.817Z"/>
        <path fill="#435A4E" d="M61.245 55.343c.132.46.73.59 1.082.234.357-.36.196-.945-.289-1.05-.484-.104-.926.35-.792.816Z"/>
        <path fill="#FDE5A8" d="M75.987 54.529c-.068.473-.653.67-1.054.355-.4-.315-.316-.907.152-1.064.468-.158.969.236.902.709ZM58.62 54.584c.074.472.662.66 1.057.34.396-.32.303-.911-.168-1.063-.47-.151-.965.25-.89.723Z"/>
        <path fill="#435A4E" d="M78.427 53.474c-.006.48-.574.741-1.015.468-.434-.27-.418-.86.029-1.065.447-.205.993.125.986.597Z"/>
        <path fill="#B13434" d="M56.184 53.53c.006.479.575.74 1.016.467.434-.27.418-.859-.03-1.064-.446-.206-.992.125-.986.597ZM80.715 52.184c.052.48-.494.803-.968.572-.459-.223-.505-.804-.083-1.052.421-.249 1 .016 1.051.48Z"/>
        <path fill="#435A4E" d="M53.91 52.24c-.052.479.495.802.968.571.46-.223.506-.803.084-1.052s-1 .016-1.052.48Z"/>
        <path fill="#fff" d="M41.06 47v-.456l.935-.288c.608-.192.92-.592.936-1.2V33.632l-1.992.264v-.552c.896-.16 1.768-.392 2.616-.696a15.6 15.6 0 0 0 2.448-1.152l.288.24-.096 3.432v8.28c.016.544.024 1.072.024 1.584 0 .624.304 1.032.912 1.224l.984.288V47H41.06Zm8.296-3.36c0-.832.312-1.552.936-2.16.624-.624 1.432-1.152 2.424-1.584-2-1.056-3-2.48-3-4.272 0-.88.216-1.632.648-2.256.448-.624 1.056-1.104 1.824-1.44.768-.352 1.624-.528 2.568-.528 1.456 0 2.56.344 3.312 1.032.752.672 1.128 1.48 1.128 2.424 0 .704-.264 1.376-.792 2.016-.528.624-1.216 1.144-2.064 1.56 1.2.576 2.096 1.24 2.688 1.992.608.736.912 1.624.912 2.664 0 .848-.224 1.592-.672 2.232-.448.64-1.08 1.136-1.896 1.488-.816.352-1.768.528-2.856.528-1.648 0-2.92-.32-3.816-.96-.896-.656-1.344-1.568-1.344-2.736Zm3.072-9.216c0 .448.088.872.264 1.272.176.384.496.776.96 1.176.464.384 1.144.8 2.04 1.248.528-.56.872-1.088 1.032-1.584.16-.496.24-1.008.24-1.536 0-.992-.208-1.72-.624-2.184-.416-.48-.976-.72-1.68-.72-.608 0-1.136.208-1.584.624-.432.4-.648.968-.648 1.704Zm-.552 9.024c0 .944.256 1.72.768 2.328.512.592 1.176.888 1.992.888.8 0 1.408-.256 1.824-.768.416-.512.624-1.16.624-1.944 0-.512-.112-.96-.336-1.344-.224-.4-.608-.792-1.152-1.176-.528-.384-1.272-.792-2.232-1.224l-.072-.024c-.544.496-.92.976-1.128 1.44-.192.464-.288 1.072-.288 1.824Z"/>
        <path stroke="#fff" stroke-linecap="round" stroke-width="3" d="M49.5 6 15 54M50 6l35 47"/>
        <path fill="#FDE5A8" d="m49.855 17 .355 5.12 3.803.355-3.803.456-.355 5.78-.405-5.78-3.753-.456 3.753-.355.405-5.12Z"/>
        <path fill="#282536" d="m22.281 78.2.72.35-2.455 5.034-.719-.35z"/>
        <circle r="8" fill="#fff" transform="matrix(-1 0 0 1 15 87)"/>
        <circle r="4" fill="#fff" transform="matrix(-1 0 0 1 15 76.6)"/>
        <circle r=".4" fill="#B13434" transform="matrix(-1 0 0 1 17.8 85)"/>
        <circle r=".4" fill="#B13434" transform="matrix(-1 0 0 1 17 82.6)"/>
        <circle r=".4" fill="#B13434" transform="matrix(-1 0 0 1 17 87.4)"/>
        <path fill="#282536" d="M17 75.8a.4.4 0 1 0 .8 0 .4.4 0 0 0-.8 0ZM13 75.8a.4.4 0 1 0 .8 0 .4.4 0 0 0-.8 0ZM7.746 78.2l-.719.35 2.454 5.034.719-.35z"/>
        <path stroke="#000" stroke-width=".5" d="m13.4 77 .215.322c.947 1.422 3.09 1.24 3.785-.322"/>
        <path fill="#282536" d="m31.55 84.5.45.219-1.534 3.146-.45-.22z"/>
        <circle r="5" fill="#fff" transform="matrix(-1 0 0 1 27 90)"/>
        <circle r="2.5" fill="#fff" transform="matrix(-1 0 0 1 27 83.5)"/>
        <circle r=".25" fill="#B13434" transform="matrix(-1 0 0 1 28.75 88.75)"/>
        <circle r=".25" fill="#B13434" transform="matrix(-1 0 0 1 28.25 87.25)"/>
        <circle r=".25" fill="#B13434" transform="matrix(-1 0 0 1 28.25 90.25)"/>
        <path fill="#282536" d="M28.25 83a.25.25 0 1 0 .5 0 .25.25 0 0 0-.5 0ZM25.75 83a.25.25 0 1 0 .5 0 .25.25 0 0 0-.5 0ZM22.467 84.5l-.45.22 1.534 3.145.45-.219z"/>
        <path stroke="#000" stroke-width=".2" d="m26 83.75.134.201a1.355 1.355 0 0 0 2.366-.201"/>
        <path fill="#fff" d="M18 94c0-4.375 4.347-7.42 8.458-5.924L29 89a9.834 9.834 0 0 1 10.297 3.985L40 94H18ZM76 94c0-4.177-4.355-6.926-8.126-5.13L65.5 90l-4.806-.48A6.331 6.331 0 0 0 54 94h22Z"/>
    </g>
    <defs>
        <linearGradient id="18paint0_linear_58_361" x1="71.947" x2="71.947" y1="-.516" y2="23.25" gradientUnits="userSpaceOnUse">
            <stop stop-color="#D9D9D9" stop-opacity="0"/>
            <stop offset=".896" stop-color="#F5F5F5"/>
        </linearGradient>
        <clipPath id="18clip0_58_361">
            <path fill="#fff" d="M0 0h100v100H0z"/>
        </clipPath>
    </defs>
</svg>