<svg xmlns="http://www.w3.org/2000/svg" width="100" height="100" fill="none" viewBox="0 0 100 100">
    <g clip-path="url(#2a)">
        <path fill="#403C54" d="M0 45h72v49H0z"/>
        <path fill="#403C54" d="M70 17h28v77H70z"/>
        <path fill="#282536" fill-opacity=".6" d="M0 82h98v12H0z"/>
        <path fill="#fff" d="m84 1 14 16H70L84 1Z"/>
        <mask id="2b" width="28" height="16" x="70" y="1" maskUnits="userSpaceOnUse" style="mask-type:alpha">
            <path fill="#fff" d="m84 1 14 16H70L84 1Z"/>
        </mask>
        <g stroke="#282536" stroke-opacity=".05" mask="url(#2b)">
            <path d="M23 15.5h91M22 13.5h91M21 11.5h91M20 9.5h91M19 7.5h91M18 5.5h91M17 3.5h91"/>
        </g>
        <path fill="url(#2c)" d="m39.951 4-3.476.378L33 4.756l.952 5.538c.273 1.586.289 3.206.047 4.797L33.1 21h6.566l.981-5.836c.234-1.391.27-2.808.108-4.21L39.951 4Z"/>
        <path fill="#403C54" d="M33 19h8v12h-8z"/>
        <path stroke="#282536" stroke-width=".5" d="m0 45 1.44.994a29.257 29.257 0 0 0 16.621 5.18h1.04A26.4 26.4 0 0 0 36.068 45"/>
        <path fill="#FDE5A8" d="M18.956 52.156a.678.678 0 1 1-1.128-.752.678.678 0 0 1 1.128.752Z"/>
        <path fill="#435A4E" d="M22.077 51.936c-.204.425-.794.484-1.125.112-.368-.416-.14-1.044.398-1.097.539-.054.954.51.727.985Z"/>
        <path fill="#B13434" d="M14.695 51.936c.204.425.795.484 1.125.112.369-.416.141-1.044-.398-1.097-.538-.054-.954.51-.727.985ZM25.135 51.427c-.144.444-.737.557-1.12.213-.421-.379-.276-1.013.256-1.114.53-.1 1.023.412.864.9Z"/>
        <path fill="#435A4E" d="M11.575 51.427c.143.444.736.558 1.12.215.421-.378.277-1.013-.254-1.114-.53-.102-1.024.41-.866.899Z"/>
        <path fill="#FDE5A8" d="M28.151 50.6c-.074.461-.668.639-1.108.332-.47-.33-.412-.959.104-1.112.515-.154 1.083.287 1.004.78ZM35.974 46.843c-.074.461-.668.639-1.108.332-.47-.329-.412-.958.104-1.112.515-.154 1.083.287 1.004.78ZM8.601 50.657c.082.459.676.629 1.11.317.466-.334.397-.965-.12-1.113-.518-.148-1.078.303-.99.796ZM1.015 47.136c.082.46.676.63 1.11.318.465-.335.397-.966-.12-1.114-.518-.147-1.078.303-.99.796Z"/>
        <path fill="#435A4E" d="M30.913 49.53c-.007.47-.599.712-1.086.443-.507-.279-.52-.894-.025-1.096.495-.201 1.119.164 1.111.652Z"/>
        <path fill="#B13434" d="M5.844 49.585c.007.47.599.712 1.087.443.506-.279.52-.893.024-1.095-.495-.202-1.118.163-1.111.652ZM33.497 48.22c.058.475-.527.782-1.055.554-.53-.23-.605-.824-.135-1.07.47-.246 1.131.041 1.19.517Z"/>
        <path fill="#435A4E" d="M3.276 48.276c-.058.474.526.78 1.054.553.53-.229.605-.824.135-1.07-.47-.246-1.13.041-1.19.517Z"/>
        <path stroke="#282536" stroke-width=".5" d="m36 45 1.489 1.1a25.924 25.924 0 0 0 15.406 5.074h.687c5.95 0 11.692-2.199 16.12-6.174"/>
        <path fill="#FDE5A8" d="M53.743 52.106a.657.657 0 1 1-1.116-.694.657.657 0 0 1 1.116.694Z"/>
        <path fill="#435A4E" d="M56.651 51.885c-.195.437-.793.5-1.11.119-.335-.405-.104-.999.409-1.053.512-.055.908.472.701.934Z"/>
        <path fill="#B13434" d="M49.709 51.885c.195.437.794.5 1.11.119.335-.405.105-.999-.408-1.053-.513-.055-.909.472-.702.934ZM59.5 51.379c-.137.454-.733.575-1.099.224-.383-.369-.227-.975.277-1.077.505-.102.967.377.823.853Z"/>
        <path fill="#435A4E" d="M46.801 51.38c.137.453.733.576 1.1.225.383-.368.228-.974-.276-1.077-.504-.103-.967.376-.824.851Z"/>
        <path fill="#FDE5A8" d="M62.31 50.56c-.07.468-.66.657-1.077.345-.43-.322-.355-.93.133-1.085.488-.156 1.017.258.944.74ZM69.62 46.803c-.07.468-.66.657-1.078.345-.43-.322-.355-.93.133-1.085.488-.156 1.017.258.945.74ZM44.03 50.615c.078.467.668.648 1.08.331.425-.327.342-.935-.149-1.085-.49-.15-1.012.273-.931.754ZM36.941 47.095c.079.467.669.647 1.08.33.426-.326.343-.935-.148-1.084-.49-.15-1.012.272-.931.754Z"/>
        <path fill="#435A4E" d="M64.886 49.498c-.007.476-.586.729-1.046.457-.465-.274-.46-.874.007-1.078.467-.203 1.045.142 1.039.621Z"/>
        <path fill="#B13434" d="M41.46 49.553c.007.476.585.729 1.046.457.464-.273.46-.873-.008-1.077-.467-.204-1.045.141-1.038.62ZM67.297 48.2c.055.477-.508.793-1.004.564-.49-.226-.547-.813-.105-1.06.442-.248 1.055.027 1.11.496Z"/>
        <path fill="#435A4E" d="M39.063 48.256c-.055.477.508.792 1.005.563.489-.226.547-.813.104-1.06-.441-.248-1.055.027-1.109.497Z"/>
        <path stroke="#282536" stroke-width=".5" d="m70 17 .805.46a25.893 25.893 0 0 0 12.826 3.399h1.318c4.412 0 8.719-1.346 12.346-3.859"/>
        <path fill="#FDE5A8" d="M84.275 21.56a.458.458 0 1 1-.713-.576.458.458 0 0 1 .713.575Z"/>
        <path fill="#435A4E" d="M86.656 21.423c-.14.242-.49.27-.717.06-.296-.277-.166-.732.218-.764.384-.031.682.389.499.704Z"/>
        <path fill="#B13434" d="M81.172 21.423c.14.242.49.27.717.06.296-.277.166-.732-.218-.764-.384-.031-.682.389-.499.704ZM88.989 21.1c-.101.256-.461.312-.728.114-.338-.25-.275-.7.106-.76.381-.06.749.322.621.646Z"/>
        <path fill="#435A4E" d="M78.792 21.1c.1.256.46.313.728.115.339-.25.276-.7-.105-.76-.381-.06-.75.321-.623.645Z"/>
        <path fill="#FDE5A8" d="M91.29 20.57c-.053.272-.43.365-.744.184-.375-.217-.377-.65-.002-.742.374-.092.81.233.746.558ZM97.21 18.222c-.053.271-.43.365-.744.184-.376-.217-.377-.65-.002-.742.374-.092.809.233.746.558ZM76.524 20.607c.059.27.434.359.742.176.372-.221.367-.656-.009-.745-.375-.088-.803.244-.733.57ZM70.784 18.407c.058.27.433.358.742.175.372-.22.367-.656-.01-.744-.375-.089-.803.244-.732.569Z"/>
        <path fill="#435A4E" d="M93.393 19.884c-.005.283-.4.416-.755.254-.4-.182-.45-.592-.085-.715.364-.122.846.142.84.46Z"/>
        <path fill="#B13434" d="M74.423 19.918c.005.284.4.416.755.255.4-.182.45-.593.085-.715-.364-.123-.845.141-.84.46ZM95.354 19.048c.043.29-.365.467-.756.327-.415-.148-.498-.534-.149-.685.35-.151.86.05.905.358Z"/>
        <path fill="#435A4E" d="M72.474 19.082c-.043.29.365.467.757.328.414-.148.498-.535.148-.686-.35-.15-.86.051-.905.358Z"/>
        <path fill="#fff" d="M22.5 26H70v19H0l22.5-19Z"/>
        <mask id="2d" width="70" height="19" x="0" y="26" maskUnits="userSpaceOnUse" style="mask-type:alpha">
            <path fill="#fff" d="M22.5 26H70v19H0l22.5-19Z"/>
        </mask>
        <g stroke="#282536" stroke-opacity=".05" mask="url(#2d)">
            <path d="M1 42.5h91M2 39.5h91M3 36.5h91M4 33.5h91M5 30.5h91M6 27.5h91"/>
        </g>
        <path fill="#fff" d="m78.768 29.744.168-3.384c.48-.272 1.08-.496 1.8-.672a9.591 9.591 0 0 1 2.424-.288c1.856 0 3.2.392 4.032 1.176.832.784 1.248 1.768 1.248 2.952 0 1.104-.496 2.176-1.488 3.216s-2.416 2.24-4.272 3.6c-.352.256-.76.568-1.224.936-.448.352-.888.712-1.32 1.08h8.736V41H78.408v-1.944a159.097 159.097 0 0 0 3.288-3.288c1.168-1.2 2.032-2.264 2.592-3.192.56-.944.84-1.936.84-2.976 0-1.056-.2-1.904-.6-2.544-.4-.64-.984-.96-1.752-.96-.512 0-.968.12-1.368.36-.384.24-.704.648-.96 1.224l-.936 2.064h-.744ZM16 91a6 6 0 0 1 6-6h5a3 3 0 0 1 3 3v7H16v-4ZM59 91a6 6 0 0 0-6-6h-5a3 3 0 0 0-3 3v7h14v-4Z"/>
        <path fill="#fff" d="M67 95a5 5 0 0 0-5-5h-6a3 3 0 0 0-3 3v2h14ZM9 94a6 6 0 0 1 6-6h4a3 3 0 0 1 3 3v4H9v-1ZM80 95a2 2 0 0 0-2-2h-1a2 2 0 0 0-2 2h5Z"/>
        <path fill="#282536" d="M31 64h11v22H31zM27 86h20v3H27zM23 89h27v3H23zM21 92h31v3H21z"/>
        <path stroke="#403C54" stroke-width=".2" d="M32.1 65.1h8.8v7.8h-8.8zM32.1 74.1h8.8v1.8h-8.8zM32.1 77.1h8.8v7.8h-8.8z"/>
        <path fill="url(#2e)" d="M35 62h3l4.5 21.5H30L35 62Z"/>
        <path fill="#282536" d="M36.5 63a2 2 0 0 1-2-2h4a2 2 0 0 1-2 2ZM53 56h15v17H53z"/>
        <path fill="#403C54" d="M53.5 56.5h14v16h-14v-16Z"/>
        <path fill="currentColor" d="M54 57h5.909v6.923H54zM61.091 57H67v6.923h-5.909zM61.091 65.077H67V72h-5.909zM54 65.077h5.909V72H54z"/>
        <path fill="#282536" d="M7 56h15v17H7z"/>
        <path fill="#403C54" d="M7.5 56.5h14v16h-14v-16Z"/>
        <path fill="currentColor" d="M8 57h5.909v6.923H8zM15.091 57H21v6.923h-5.909zM15.091 65.077H21V72h-5.909zM8 65.077h5.909V72H8z"/>
        <path fill="#282536" d="M76 56h15v17H76z"/>
        <path fill="#403C54" d="M76.5 56.5h14v16h-14v-16Z"/>
        <path fill="currentColor" d="M77 57h5.909v6.923H77zM84.091 57H90v6.923h-5.909zM84.091 65.077H90V72h-5.909zM77 65.077h5.909V72H77z"/>
        <path stroke="#282536" stroke-linecap="round" d="M8.5 74.5h12M54.5 74.5h12M77.5 74.5h12"/>
        <path fill="#fff" d="M79 74a2.52 2.52 0 0 1 2.995-2.022l2.505.522 2.566-.7A1.948 1.948 0 0 1 89.5 74H79Z"/>
    </g>
    <defs>
        <linearGradient id="2c" x1="36.772" x2="36.772" y1="4" y2="21" gradientUnits="userSpaceOnUse">
            <stop offset=".031" stop-color="#D9D9D9" stop-opacity="0"/>
            <stop offset=".994" stop-color="#fff"/>
        </linearGradient>
        <linearGradient id="2e" x1="36.25" x2="36.25" y1="61" y2="83.5" gradientUnits="userSpaceOnUse">
            <stop stop-color="#FDE5A8"/>
            <stop offset="1" stop-color="#FDE5A8" stop-opacity="0"/>
        </linearGradient>
        <clipPath id="2a">
            <path fill="#fff" d="M0 0h100v100H0z"/>
        </clipPath>
    </defs>
</svg>