<svg xmlns="http://www.w3.org/2000/svg" width="100" height="100" fill="none" viewBox="0 0 100 100">
    <g clip-path="url(#20clip0_82_1565)">
        <path fill="#282536" d="M10 79.412h4v9.059h-4z"/>
        <path fill="#282536" d="m12 16 11.258 66H.742L12 16Z"/>
        <path fill="#282536" d="M19 79.412h4v9.059h-4z"/>
        <path fill="#282536" d="m21 16 11.258 66H9.742L21 16Z"/>
        <path fill="#282536" d="M29 79.412h4v9.059h-4z"/>
        <path fill="#282536" d="m31 16 11.258 66H19.742L31 16Z"/>
        <path fill="#403C54" d="M13 61h77v33H13z"/>
        <path fill="url(#20paint0_linear_82_1565)" d="M67 6h8l-.075.299a40 40 0 0 0 0 19.402L75 26h-8l-2-5a16.6 16.6 0 0 1-.684-10.222l.184-.73L67 6Z"/>
        <path fill="#282536" d="M65 24h10v16H65z"/>
        <path fill="#282536" d="M64 23h12v3H64zM21 32h60.5L90 61H13l8-29Z"/>
        <mask id="20mask0_82_1565" width="77" height="29" x="13" y="32" maskUnits="userSpaceOnUse" style="mask-type:alpha">
            <path fill="#282536" d="M21 32h60.5L90 61H13l8-29Z"/>
        </mask>
        <g stroke="#403C54" stroke-dasharray="2 2" mask="url(#20mask0_82_1565)">
            <path d="M9 59.5h83M9 55.5h83M9 51.5h83M9 47.5h83M9 43.5h83M9 39.5h83M9 35.5h83M11 57.5h83M11 53.5h83M11 49.5h83M11 45.5h83M11 41.5h83M11 37.5h83M11 33.5h83"/>
        </g>
        <path fill="#fff" d="m40.792 43.744.168-3.384c.48-.272 1.08-.496 1.8-.672a9.591 9.591 0 0 1 2.424-.288c1.856 0 3.2.392 4.032 1.176.832.784 1.248 1.768 1.248 2.952 0 1.104-.496 2.176-1.488 3.216s-2.416 2.24-4.272 3.6c-.352.256-.76.568-1.224.936-.448.352-.888.712-1.32 1.08h8.736V55H40.432v-1.944a159.097 159.097 0 0 0 3.288-3.288c1.168-1.2 2.032-2.264 2.592-3.192.56-.944.84-1.936.84-2.976 0-1.056-.2-1.904-.6-2.544-.4-.64-.984-.96-1.752-.96-.512 0-.968.12-1.368.36-.384.24-.704.648-.96 1.224l-.936 2.064h-.744Zm17.047 11.592c-.944 0-1.832-.264-2.664-.792-.832-.544-1.504-1.4-2.016-2.568-.512-1.168-.768-2.696-.768-4.584 0-1.904.256-3.44.768-4.608.512-1.168 1.184-2.024 2.016-2.568.832-.544 1.72-.816 2.664-.816.944 0 1.832.272 2.664.816.832.544 1.504 1.4 2.016 2.568.512 1.168.768 2.704.768 4.608 0 1.888-.256 3.416-.768 4.584-.512 1.168-1.184 2.024-2.016 2.568-.832.528-1.72.792-2.664.792Zm0-.672c.416 0 .768-.104 1.056-.312.288-.208.52-.568.696-1.08.192-.528.328-1.264.408-2.208.096-.96.144-2.184.144-3.672 0-1.504-.048-2.728-.144-3.672-.08-.96-.216-1.704-.408-2.232-.176-.528-.408-.896-.696-1.104-.288-.208-.64-.312-1.056-.312-.4 0-.752.104-1.056.312-.288.192-.52.552-.696 1.08-.176.528-.312 1.272-.408 2.232-.08.96-.12 2.192-.12 3.696 0 1.488.04 2.712.12 3.672.096.944.232 1.68.408 2.208.176.528.408.896.696 1.104.304.192.656.288 1.056.288Z"/>
        <path fill="#282536" d="M25 70h11v22H25zM21 92h20v3H21z"/>
        <path fill="#403C54" d="M34 83v-2h1v2z"/>
        <path fill="#282536" d="m22 67.222.663-.459a13.814 13.814 0 0 1 16.337.46V69H22v-1.778Z"/>
        <path fill="currentColor" d="M26 72h4.091v2.308H26zM30.909 72H35v2.308h-4.091zM30.909 74.692H35V77h-4.091zM26 74.692h4.091V77H26zM19.137 73l.447 2.24 1.78.693-1.78.651-.447 2.689-.449-2.689-1.779-.651 1.78-.693.448-2.24ZM41.136 73l.448 2.24 1.78.693-1.78.651-.448 2.689-.448-2.689-1.779-.651 1.78-.693.447-2.24Z"/>
        <path stroke="#282536" stroke-linecap="round" d="M48.5 86.5h12M70.5 86.5h12"/>
        <path fill="#fff" d="M48.4 86a3.155 3.155 0 0 1 1.835-.588h4.575l4.429.075c.491.008.964.19 1.335.513H48.401ZM70.4 86a3.155 3.155 0 0 1 1.835-.588h4.575l4.429.075c.491.008.964.19 1.335.513H70.401ZM69 95a3 3 0 0 0-3-3h-4a3 3 0 0 0-3 3h10Z"/>
        <path fill="#fff" d="M73 95a4 4 0 0 0-4-4h-3a4 4 0 0 0-4 4h11Z"/>
        <path fill="#435A4E" d="M33 88h7v4h-7z"/>
        <path stroke="#B13434" d="M39 92v-4"/>
        <path fill="#B13434" d="M37 87.353a.2.2 0 0 1 .303-.171l1.197.718 1.197-.718a.2.2 0 0 1 .303.171V88h-3v-.647Z"/>
        <path fill="#fff" d="M13 61a14.013 14.013 0 0 1 6.838-1.628L51.5 60l36.5-.948c1.096-.029 2 .852 2 1.948H13Z"/>
        <path fill="#282536" d="M48 69h13.333v16H48z"/>
        <path fill="#403C54" d="M48.444 69.47H60.89v15.06H48.444V69.47Z"/>
        <path fill="currentColor" d="M48.889 69.941h5.253v6.516h-5.253zM55.192 69.941h5.253v6.516h-5.253zM55.192 77.543h5.253v6.516h-5.253zM48.889 77.543h5.253v6.516h-5.253z"/>
        <path fill="#282536" d="M70 69h13.333v16H70z"/>
        <path fill="#403C54" d="M70.444 69.47H82.89v15.06H70.444V69.47Z"/>
        <path fill="currentColor" d="M70.889 69.941h5.253v6.516h-5.253zM77.192 69.941h5.253v6.516h-5.253zM77.192 77.543h5.253v6.516h-5.253zM70.889 77.543h5.253v6.516h-5.253z"/>
    </g>
    <defs>
        <linearGradient id="20paint0_linear_82_1565" x1="71" x2="71" y1="7.19" y2="27.191" gradientUnits="userSpaceOnUse">
            <stop stop-color="#D9D9D9" stop-opacity="0"/>
            <stop offset="1" stop-color="#F5F5F5"/>
        </linearGradient>
        <clipPath id="20clip0_82_1565">
            <path fill="#fff" d="M0 0h100v100H0z"/>
        </clipPath>
    </defs>
</svg>