<svg xmlns="http://www.w3.org/2000/svg" xmlns:xlink="http://www.w3.org/1999/xlink" width="100" height="100" fill="none" viewBox="0 0 100 100">
    <defs>
        <path id="21reuse-0" fill="#282536" d="M83 20H29.5L11 51h52.5L83 20Z"/>
    </defs>
    <g clip-path="url(#21clip0_83_2240)">
        <path fill="#403C54" d="M97 51H11v43h86z"/>
        <path stroke="#282536" stroke-opacity=".6" d="M11 91.5h86M11 88.5h86"/>
        <path stroke="#282536" stroke-opacity=".6" stroke-width="2" d="M11 55h86"/>
        <path fill="#403C54" d="M80.5 20 62.746 53h35.508L80.5 20Z"/>
        <path stroke="#282536" stroke-opacity=".6" d="M61.5 52v42"/>
        <path fill="url(#21paint0_linear_83_2240)" d="m44.083-2-3.042.333L38-1.333l.789 4.624a15 15 0 0 1 .045 4.759L38.088 13h5.253l1.053-4.443a15 15 0 0 0 .307-5.168L44.083-2Z"/>
        <path fill="#282536" d="M45 13h-8v11h8z"/>
        <path stroke="#282536" stroke-width=".5" d="m63 49 1.462 1.04a27.725 27.725 0 0 0 16.073 5.134h.882c6.09 0 11.976-2.191 16.583-6.174"/>
        <path fill="#FDE5A8" d="M81.409 56.134a.669.669 0 1 1-1.123-.726.669.669 0 0 1 1.123.726Z"/>
        <path fill="#435A4E" d="M84.434 55.913c-.2.431-.794.492-1.119.115-.353-.41-.124-1.024.403-1.077.527-.054.934.493.716.962Z"/>
        <path fill="#B13434" d="M77.25 55.913c.2.431.794.492 1.119.115.353-.41.124-1.024-.403-1.077-.527-.054-.934.493-.716.962ZM87.398 55.406c-.142.448-.736.565-1.111.217-.405-.374-.254-.995.265-1.097.519-.101.998.397.846.88Z"/>
        <path fill="#435A4E" d="M74.225 55.406c.141.449.735.566 1.111.22.405-.374.256-.996-.263-1.098-.519-.102-.999.395-.847.878Z"/>
        <path fill="#FDE5A8" d="M90.32 54.582c-.072.465-.664.647-1.094.338-.452-.326-.386-.946.117-1.1.503-.155 1.054.274.977.762ZM71.343 54.638c.08.463.673.638 1.097.324.447-.332.372-.952-.134-1.101-.505-.149-1.048.29-.963.777Z"/>
        <path fill="#435A4E" d="M92.998 53.516c-.006.473-.593.72-1.068.45-.487-.278-.493-.886-.01-1.089.483-.202 1.085.154 1.078.639Z"/>
        <path fill="#B13434" d="M68.67 53.57c.007.474.594.72 1.07.45.486-.276.492-.885.009-1.087-.483-.203-1.085.154-1.078.638ZM95.504 52.212c.057.475-.518.786-1.032.557-.511-.227-.579-.819-.121-1.065.457-.247 1.097.035 1.153.508Z"/>
        <path fill="#435A4E" d="M66.18 52.267c-.057.475.518.786 1.032.557.511-.227.579-.819.121-1.065-.457-.247-1.097.035-1.153.508Z"/>
        <path stroke="#282536" stroke-linecap="round" stroke-width="2" d="M45 13h-8"/>
        <use xlink:href="#21reuse-0"/>
        <mask id="21mask0_83_2240" width="72" height="31" x="11" y="20" maskUnits="userSpaceOnUse" style="mask-type:alpha">
            <use xlink:href="#21reuse-0"/>
        </mask>
        <g stroke="#403C54" stroke-width=".5" mask="url(#21mask0_83_2240)">
            <path d="M13 48.75h69M13 46.75h70M13 44.75h70M13 42.75h70M13 40.75h70M13 38.75h70M13 36.75h70M13 34.75h70M13 32.75h70M13 30.75h70M13 28.75h70M13 26.75h70M13 24.75h70M13 22.75h70M13 20.75h70"/>
        </g>
        <path stroke="#fff" stroke-linecap="round" stroke-width="3" d="m82 20 16 32M82 20 62 52M30 20 10 52"/>
        <path fill="#282536" d="M40 72H29v22h11z"/>
        <path fill="#fff" d="m35.62 30.744.168-3.384c.48-.272 1.08-.496 1.8-.672a9.591 9.591 0 0 1 2.424-.288c1.856 0 3.2.392 4.032 1.176.832.784 1.248 1.768 1.248 2.952 0 1.104-.496 2.176-1.488 3.216s-2.416 2.24-4.272 3.6c-.352.256-.76.568-1.224.936-.448.352-.888.712-1.32 1.08h8.736V42H35.26v-1.944a159.097 159.097 0 0 0 3.288-3.288c1.168-1.2 2.032-2.264 2.592-3.192.56-.944.84-1.936.84-2.976 0-1.056-.2-1.904-.6-2.544-.4-.64-.984-.96-1.752-.96-.512 0-.968.12-1.368.36-.384.24-.704.648-.96 1.224l-.936 2.064h-.744ZM47.387 42v-.456l.936-.288c.608-.192.92-.592.936-1.2V28.632l-1.992.264v-.552c.896-.16 1.768-.392 2.616-.696a15.6 15.6 0 0 0 2.448-1.152l.288.24-.096 3.432v8.28c.016.544.024 1.072.024 1.584 0 .624.304 1.032.912 1.224l.984.288V42h-7.056Z"/>
        <circle r="2.5" stroke="#435A4E" stroke-width="2" transform="matrix(-1 0 0 1 34.5 66.5)"/>
        <circle r=".5" fill="#B13434" transform="matrix(-1 0 0 1 34.5 69.5)"/>
        <circle r=".5" fill="#B13434" transform="matrix(-1 0 0 1 33.5 68.5)"/>
        <circle r=".5" fill="#B13434" transform="matrix(-1 0 0 1 35.5 68.5)"/>
        <path fill="#403C54" d="M32 82h-2v1h2z"/>
        <path stroke="#fff" stroke-linecap="round" stroke-width="3" d="M11.5 50.5h50"/>
        <path fill="#fff" d="M58.983 94.253C58.753 84.35 72.164 81.094 76.5 90l.258-.144C80.68 87.678 85.5 90.513 85.5 95H59l-.017-.747ZM28 95a3 3 0 0 0-3-3h-5a3 3 0 0 0-3 3h11ZM54 52h2v.5L55 56l-1-3.5V52ZM12 52h2v.25L13 54l-1-1.75V52ZM14 51h3v.625L15.5 56 14 51.625V51ZM56 52h2v.625L57 57l-1-4.375V52Z"/>
        <path fill="#fff" d="M14 52h1v.375L14.5 55l-.5-2.625V52Z"/>
        <path fill="#282536" d="M42 64h15v16H42z"/>
        <path fill="#403C54" d="M42.5 64.47h14v15.06h-14V64.47Z"/>
        <path fill="currentColor" d="M43 64.941h5.909v6.516H43zM50.091 64.941H56v6.516h-5.909zM50.091 72.543H56v6.516h-5.909zM43 72.543h5.909v6.516H43z"/>
        <path fill="#fff" d="M45 79.429c.2-.678.823-1.143 1.53-1.143h1.102l1.136.091A1.382 1.382 0 0 1 50 79.43h-5Z"/>
        <path fill="#282536" d="M71 64h19v16H71z"/>
        <path fill="#403C54" d="M71.633 64.47h17.734v15.06H71.633V64.47Z"/>
        <path fill="currentColor" d="M72.267 64.941h7.485v6.516h-7.485zM81.248 64.941h7.485v6.516h-7.485zM81.248 72.543h7.485v6.516h-7.485zM72.267 72.543h7.485v6.516h-7.485z"/>
        <path fill="#fff" d="M78.5 79.5a2.903 2.903 0 0 1 1.98-1.15l5.732-.694a3.153 3.153 0 0 1 3.07 1.487l.218.357h-11Z"/>
        <rect width="14" height="11.79" x="74" y="37" fill="#282536" rx="5.895"/>
        <path fill="#403C54" d="M74.467 42.895a5.548 5.548 0 0 1 5.548-5.548h1.97a5.548 5.548 0 1 1 0 11.096h-1.97a5.548 5.548 0 0 1-5.548-5.548Z"/>
        <path fill="currentColor" d="M74.933 42.495a4.801 4.801 0 0 1 4.801-4.802h.715v4.802h-5.516ZM81.551 37.693h.714a4.801 4.801 0 0 1 4.801 4.802h-5.515v-4.802ZM81.551 43.295h5.515a4.801 4.801 0 0 1-4.8 4.8h-.715v-4.8ZM74.933 43.295h5.515v4.8h-.713a4.801 4.801 0 0 1-4.802-4.8Z"/>
        <path fill="#282536" d="M13 64h14v16H13z"/>
        <path fill="#403C54" d="M13.467 64.47h13.066v15.06H13.467V64.47Z"/>
        <path fill="currentColor" d="M13.933 64.941h5.515v6.516h-5.515zM20.552 64.941h5.515v6.516h-5.515zM20.552 72.543h5.515v6.516h-5.515zM13.933 72.543h5.515v6.516h-5.515z"/>
        <path fill="#fff" d="M13.5 79.5a2.48 2.48 0 0 1 1.99-1h3.801l3.695.118c.62.02 1.19.352 1.514.882h-11Z"/>
    </g>
    <defs>
        <linearGradient id="21paint0_linear_83_2240" x1="42.009" x2="42" y1="-2" y2="16" gradientUnits="userSpaceOnUse">
            <stop offset=".318" stop-color="#D9D9D9" stop-opacity="0"/>
            <stop offset=".994" stop-color="#fff"/>
        </linearGradient>
        <clipPath id="21clip0_83_2240">
            <path fill="#fff" d="M100 0H0v100h100z"/>
        </clipPath>
    </defs>
</svg>