<svg xmlns="http://www.w3.org/2000/svg" xmlns:xlink="http://www.w3.org/1999/xlink" width="100" height="100" fill="none" viewBox="0 0 100 100">
    <defs>
        <path id="22reuse-0" fill="#fff" d="M22.125 19h47.438L73 48H18l4.125-29Z"/>
    </defs>
    <g clip-path="url(#22clip0_85_2945)">
        <path fill="#282536" d="M11.423 84.06h4.154v6.723h-4.154z"/>
        <path fill="#282536" d="m13.5 37 11.691 48.98H1.81L13.5 37ZM78.878 81.728h5.774v10.104h-5.774z"/>
        <path fill="#282536" d="m81.765 11 16.25 73.615H65.514L81.764 11Z"/>
        <use xlink:href="#22reuse-0"/>
        <mask id="22mask0_85_2945" width="55" height="29" x="18" y="19" maskUnits="userSpaceOnUse" style="mask-type:alpha">
            <use xlink:href="#22reuse-0"/>
        </mask>
        <g stroke="#282536" stroke-opacity=".05" mask="url(#22mask0_85_2945)">
            <path d="M46.5 50V5M72.5 50V5M42.5 50V5M68.5 50V5M39.5 50V5M65.5 50V5M35.5 50V5M61.5 50V5M31.5 50V5M57.5 50V5M27.5 50V5M53.5 50V5M24.5 50V5M50.5 50V5M20.5 50V5M46.5 50V5"/>
        </g>
        <path fill="#403C54" d="M18 47.26 25 40h41l7 7.26V94H18V47.26Z"/>
        <circle cx="66.5" cy="67.5" r="1.5" fill="#282536"/>
        <circle cx="66.5" cy="67.5" r=".5" fill="#403C54"/>
        <path fill="#403C54" d="m46 14 20.5 26.5H25L46 14Z"/>
        <path stroke="#fff" stroke-linecap="round" stroke-width="3" d="M45.5 15 17 50.5M45.5 15 74 49.5"/>
        <path fill="#fff" d="m33.928 39.744.168-3.384c.48-.272 1.08-.496 1.8-.672a9.591 9.591 0 0 1 2.424-.288c1.856 0 3.2.392 4.032 1.176.832.784 1.248 1.768 1.248 2.952 0 1.104-.496 2.176-1.488 3.216s-2.416 2.24-4.272 3.6c-.352.256-.76.568-1.224.936-.448.352-.888.712-1.32 1.08h8.736V51H33.568v-1.944a159.097 159.097 0 0 0 3.288-3.288c1.168-1.2 2.032-2.264 2.592-3.192.56-.944.84-1.936.84-2.976 0-1.056-.2-1.904-.6-2.544-.4-.64-.984-.96-1.752-.96-.512 0-.968.12-1.368.36-.384.24-.704.648-.96 1.224l-.936 2.064h-.744Zm12.68 0 .168-3.384c.48-.272 1.08-.496 1.8-.672A9.591 9.591 0 0 1 51 35.4c1.856 0 3.2.392 4.032 1.176.832.784 1.248 1.768 1.248 2.952 0 1.104-.496 2.176-1.488 3.216s-2.416 2.24-4.272 3.6c-.352.256-.76.568-1.224.936-.448.352-.888.712-1.32 1.08h8.736V51H46.248v-1.944a159.097 159.097 0 0 0 3.288-3.288c1.168-1.2 2.032-2.264 2.592-3.192.56-.944.84-1.936.84-2.976 0-1.056-.2-1.904-.6-2.544-.4-.64-.984-.96-1.752-.96-.512 0-.968.12-1.368.36-.384.24-.704.648-.96 1.224l-.936 2.064h-.744Z"/>
        <path fill="#282536" d="M50 64c1.514-6.99 11.486-6.99 13 0v26H50V64Z"/>
        <path fill="#403C54" d="M38 15h14v16H38z"/>
        <path fill="#282536" d="M42 7h2v7h-2zM46 7h4v2h-4V7Z"/>
        <path fill="#282536" d="M46.5 8h3v6h-3V8Z"/>
        <path fill="url(#22paint0_linear_85_2945)" d="M47-3h2a40.627 40.627 0 0 0 0 10h-2l-.5-2.5a15.66 15.66 0 0 1-.181-5.03l.056-.446L47-3Z"/>
        <path fill="url(#22paint1_linear_85_2945)" d="M42-3h2a40.627 40.627 0 0 0 0 10h-2l-.5-2.5a15.66 15.66 0 0 1-.181-5.03l.056-.446L42-3Z"/>
        <path stroke="#fff" stroke-linecap="round" stroke-width="3" d="M38.5 14.5h13"/>
        <path fill="#fff" d="M35 92a6 6 0 0 1 6-6h5a3 3 0 0 1 3 3v7H35v-4Z"/>
        <path fill="#fff" d="M28 95a6 6 0 0 1 6-6h4a3 3 0 0 1 3 3v4H28v-1Z"/>
        <path fill="#282536" d="M46 87h20v3H46zM42 90h27v3H42zM40 93h31v3H40z"/>
        <circle cx="52" cy="76" r="1" fill="#403C54"/>
        <path fill="currentColor" d="M52 65.692A3.692 3.692 0 0 1 55.692 62h.399v3.692H52ZM56.909 62h.398A3.692 3.692 0 0 1 61 65.692h-4.091V62ZM56.909 66.308H61V70h-4.091zM52 66.308h4.091V70H52z"/>
        <path fill="#435A4E" d="m51.457 56.89-1.83.659.345-1.914 1.485 1.255Z"/>
        <path fill="#435A4E" d="m50.619 56.739-1.83.659.344-1.914 1.486 1.255Z"/>
        <path fill="#435A4E" d="m47.837 56.239 1.178.995.273-1.518-1.451.523ZM51.469 57.126l-.344 1.914-1.486-1.255 1.83-.66Z"/>
        <path fill="#435A4E" d="m50.919 57.776-.344 1.915-1.486-1.256 1.83-.659Z"/>
        <path fill="#435A4E" d="m49.095 59.936 1.451-.523-1.178-.995-.273 1.518Z"/>
        <circle cx="52.137" cy="57.713" r=".56" fill="#B13434" transform="rotate(-43.128 52.137 57.713)"/>
        <circle cx="52.106" cy="56.547" r=".56" fill="#B13434" transform="rotate(-43.128 52.106 56.547)"/>
        <circle cx="53.166" cy="57.107" r=".56" fill="#B13434" transform="rotate(-43.128 53.166 57.107)"/>
        <path fill="#435A4E" d="m61.397 56.882 1.855.583-.422-1.898-1.433 1.315Z"/>
        <path fill="#435A4E" d="m62.228 56.697 1.856.583-.423-1.898-1.433 1.315Z"/>
        <path fill="#435A4E" d="m64.987 56.083-1.136 1.043-.335-1.506 1.471.463ZM61.395 57.118l.422 1.899L63.25 57.7l-1.855-.583Z"/>
        <path fill="#435A4E" d="m61.971 57.746.423 1.898 1.433-1.315-1.856-.583Z"/>
        <path fill="#435A4E" d="m63.883 59.828-1.472-.462 1.136-1.044.336 1.506Z"/>
        <circle r=".56" fill="#B13434" transform="scale(-1 1) rotate(-40.769 47.307 110.61)"/>
        <circle r=".56" fill="#B13434" transform="scale(-1 1) rotate(-40.769 45.746 110.005)"/>
        <circle r=".56" fill="#B13434" transform="scale(-1 1) rotate(-40.769 47.077 108.912)"/>
        <path fill="#282536" d="M25 62a6 6 0 0 1 6-6h3a6 6 0 0 1 6 6v18H25V62Z"/>
        <path fill="#403C54" d="M25.5 62.706a6 6 0 0 1 6-6h2a6 6 0 0 1 6 6v16.588h-14V62.706Z"/>
        <path fill="currentColor" d="M26 63.32a5.91 5.91 0 0 1 5.91-5.908v9.774H26V63.32ZM33.09 57.412A5.91 5.91 0 0 1 39 63.32v3.865h-5.91v-9.774ZM33.091 68.814H39v9.774h-5.909zM26 68.814h5.909v9.774H26z"/>
    </g>
    <defs>
        <linearGradient id="22paint0_linear_85_2945" x1="49.25" x2="49.25" y1="-2.405" y2="9.5" gradientUnits="userSpaceOnUse">
            <stop offset=".281" stop-color="#D9D9D9" stop-opacity="0"/>
            <stop offset="1" stop-color="#F5F5F5"/>
        </linearGradient>
        <linearGradient id="22paint1_linear_85_2945" x1="44.25" x2="44.25" y1="-2.405" y2="9.5" gradientUnits="userSpaceOnUse">
            <stop offset=".281" stop-color="#D9D9D9" stop-opacity="0"/>
            <stop offset="1" stop-color="#F5F5F5"/>
        </linearGradient>
        <clipPath id="22clip0_85_2945">
            <path fill="#fff" d="M0 0h100v100H0z"/>
        </clipPath>
    </defs>
</svg>