<svg xmlns="http://www.w3.org/2000/svg" xmlns:xlink="http://www.w3.org/1999/xlink" width="100" height="100" fill="none" viewBox="0 0 100 100">
    <defs>
        <path id="23reuse-0" fill="#282536" d="M14.375 9.345h73.313L93 26H8l6.375-16.655Z"/>
        <path id="23reuse-1" fill="#282536" fill-opacity=".6" d="M83 87a8 8 0 1 1 16 0v7H83v-7Z"/>
        <path id="23reuse-2" fill="#282536" fill-opacity=".6" d="M1 87a8 8 0 1 1 16 0v7H1v-7Z"/>
    </defs>
    <path fill="#403C54" d="M10 23h81v71H10z"/>
    <path fill="#282536" d="M42 68h17v25H42z"/>
    <path stroke="#322E42" d="M40.5 66.5h20v27h-20z"/>
    <path fill="#282536" fill-opacity=".6" d="M10 85h81v9H10z"/>
    <path fill="#403C54" d="M48 80h2v1h-2zM51 80h2v1h-2z"/>
    <path stroke="#282536" stroke-width=".5" d="m7.52 25.5.838.823a16.916 16.916 0 0 0 11.857 4.851h1.622c4.16 0 8.09-1.907 10.663-5.174"/>
    <path fill="#FDE5A8" d="M21.056 31.966a.594.594 0 1 1-1.058-.54.594.594 0 0 1 1.058.54Z"/>
    <path fill="#435A4E" d="M23.42 31.741a.594.594 0 0 1-1.048.136.598.598 0 0 1 .42-.926.59.59 0 0 1 .628.79Z"/>
    <path fill="#B13434" d="M17.626 31.741a.594.594 0 0 0 1.048.136.598.598 0 0 0-.42-.926.59.59 0 0 0-.628.79ZM25.735 31.242c-.117.472-.713.62-1.025.255a.602.602 0 0 1 .317-.97.586.586 0 0 1 .708.715Z"/>
    <path fill="#435A4E" d="M15.263 31.243c.117.472.713.62 1.025.256a.602.602 0 0 0-.316-.971.586.586 0 0 0-.709.715Z"/>
    <path fill="#FDE5A8" d="M28.018 30.442c-.06.483-.63.706-.984.384a.606.606 0 0 1 .195-1.006.582.582 0 0 1 .789.622ZM13.01 30.495c.066.482.64.696.989.37a.606.606 0 0 0-.21-1.004.582.582 0 0 0-.779.634ZM7.755 26.974c.066.482.64.697.989.37a.606.606 0 0 0-.21-1.003.582.582 0 0 0-.78.633Z"/>
    <path fill="#435A4E" d="M30.114 29.407c-.006.486-.545.774-.93.496-.358-.258-.316-.816.078-1.026a.58.58 0 0 1 .852.53Z"/>
    <path fill="#B13434" d="M10.92 29.462c.006.487.545.774.93.496.359-.257.316-.816-.078-1.025a.58.58 0 0 0-.852.529ZM32.083 28.14c.046.483-.457.827-.87.594-.384-.216-.402-.778-.033-1.03a.578.578 0 0 1 .903.435Z"/>
    <path fill="#435A4E" d="M8.963 28.194c-.045.484.457.828.87.596.384-.217.402-.779.033-1.031a.578.578 0 0 0-.903.435Z"/>
    <path stroke="#282536" stroke-width=".5" d="M68.5 26.5a14.757 14.757 0 0 0 10.775 4.674h2.062A15.45 15.45 0 0 0 92.874 26"/>
    <path fill="#FDE5A8" d="M80.764 31.977a.6.6 0 1 1-1.064-.551.6.6 0 0 1 1.064.552Z"/>
    <path fill="#435A4E" d="M83.17 31.753a.6.6 0 1 1-1.124-.415.6.6 0 0 1 1.124.415Z"/>
    <path fill="#B13434" d="M77.285 31.753a.6.6 0 1 0 1.125-.415.6.6 0 0 0-1.125.415ZM85.527 31.253a.6.6 0 0 1-1.032.253.604.604 0 0 1 .315-.98.595.595 0 0 1 .717.727Z"/>
    <path fill="#435A4E" d="M74.88 31.254a.6.6 0 0 0 1.032.254.604.604 0 0 0-.314-.98.595.595 0 0 0-.718.726Z"/>
    <path fill="#FDE5A8" d="M87.851 30.452a.6.6 0 0 1-.992.38.605.605 0 0 1 .191-1.012.593.593 0 0 1 .801.632ZM93.589 26.986a.6.6 0 0 1-.992.381.606.606 0 0 1 .19-1.013.593.593 0 0 1 .802.633ZM72.586 30.505a.6.6 0 0 0 .997.366.605.605 0 0 0-.205-1.01.594.594 0 0 0-.792.644Z"/>
    <path fill="#435A4E" d="M89.985 29.415c-.006.486-.549.77-.94.492a.607.607 0 0 1 .073-1.03c.4-.208.872.084.867.538Z"/>
    <path fill="#B13434" d="M70.459 29.47c.005.486.548.77.94.492a.607.607 0 0 0-.073-1.03.592.592 0 0 0-.867.538ZM91.988 28.145c.046.483-.46.824-.88.592a.608.608 0 0 1-.039-1.033.591.591 0 0 1 .92.44Z"/>
    <path fill="#435A4E" d="M68.468 28.2c-.047.483.46.825.88.592a.608.608 0 0 0 .039-1.033.591.591 0 0 0-.92.44Z"/>
    <path fill="#282536" d="M76 6h9v4h-9z"/>
    <use xlink:href="#23reuse-0"/>
    <mask id="23mask0_89_765" width="85" height="17" x="8" y="9" maskUnits="userSpaceOnUse" style="mask-type:alpha">
        <use xlink:href="#23reuse-0"/>
    </mask>
    <g stroke="#403C54" mask="url(#23mask0_89_765)">
        <path d="m26.442.234-18 34M22.442.234l-18 34M30.442.234l-18 34M34.442.234l-18 34M38.442.234l-18 34M42.442.234l-18 34M46.442.234l-18 34M50.442.234l-18 34M54.442.234l-18 34M58.442.234l-18 34M62.442.234l-18 34M66.442.234l-18 34M70.442.234l-18 34M74.442.234l-18 34M78.442.234l-18 34M82.442.234l-18 34M86.442.234l-18 34M90.442.234l-18 34M94.442.234l-18 34M98.442.234l-18 34M102.442.234l-18 34"/>
    </g>
    <path fill="#fff" d="M70 27H31c0-11.598 8.73-21 19.5-21S70 15.402 70 27Z"/>
    <path fill="#403C54" d="M68 28H33c0-11.046 7.835-20 17.5-20S68 16.954 68 28Z"/>
    <path stroke="#fff" stroke-linecap="round" stroke-width="3" d="M69.5 25.5h23M8.5 25.5h23"/>
    <path fill="#282536" d="m36.5 73 .212 3.06 2.274.213-2.274.273L36.5 80l-.242-3.454-2.244-.273 2.244-.212L36.5 73ZM64.5 73l.212 3.06 2.274.213-2.274.273L64.5 80l-.242-3.454-2.244-.273 2.244-.212L64.5 73Z"/>
    <path fill="url(#23paint0_linear_89_765)" d="M77.667 0H83a6.177 6.177 0 0 0 0 6h-5.333l-1.334-1.5a2.82 2.82 0 0 1-.352-3.251L76 1.214 77.667 0Z"/>
    <path fill="#fff" d="m38.928 19.744.168-3.384c.48-.272 1.08-.496 1.8-.672a9.591 9.591 0 0 1 2.424-.288c1.856 0 3.2.392 4.032 1.176.832.784 1.248 1.768 1.248 2.952 0 1.104-.496 2.176-1.488 3.216s-2.416 2.24-4.272 3.6c-.352.256-.76.568-1.224.936-.448.352-.888.712-1.32 1.08h8.736V31H38.568v-1.944a159.097 159.097 0 0 0 3.288-3.288c1.168-1.2 2.032-2.264 2.592-3.192.56-.944.84-1.936.84-2.976 0-1.056-.2-1.904-.6-2.544-.4-.64-.984-.96-1.752-.96-.512 0-.968.12-1.368.36-.384.24-.704.648-.96 1.224l-.936 2.064h-.744Zm17.12 11.592c-1.024 0-1.88-.112-2.568-.336a12.335 12.335 0 0 1-2.016-.864l.24-3.12h.696l.84 1.872c.544 1.184 1.44 1.776 2.688 1.776.752 0 1.368-.296 1.848-.888.48-.592.72-1.576.72-2.952 0-1.232-.216-2.112-.648-2.64-.432-.528-1.12-.792-2.064-.792h-1.416v-.72h1.272c.848 0 1.48-.248 1.896-.744.416-.512.624-1.376.624-2.592 0-1.152-.192-1.976-.576-2.472-.384-.496-.872-.744-1.464-.744s-1.072.152-1.44.456c-.352.304-.64.712-.864 1.224l-.912 1.944-.72-.024.24-3.504a8.42 8.42 0 0 1 1.728-.576c.64-.16 1.352-.24 2.136-.24 1.648 0 2.904.36 3.768 1.08.864.72 1.296 1.632 1.296 2.736 0 .784-.32 1.528-.96 2.232-.624.704-1.6 1.208-2.928 1.512 1.52.144 2.624.584 3.312 1.32.704.72 1.056 1.592 1.056 2.616 0 .848-.232 1.608-.696 2.28-.464.672-1.128 1.2-1.992 1.584-.864.384-1.896.576-3.096.576Z"/>
    <path fill="#282536" d="M16 55h15v24H16z"/>
    <path fill="#403C54" d="M16.5 55.706h14v22.588h-14V55.706Z"/>
    <path fill="currentColor" d="M17 56.412h5.909v9.774H17zM24.091 56.412H30v9.774h-5.909zM24.091 67.814H30v9.774h-5.909zM17 67.814h5.909v9.774H17z"/>
    <path fill="#282536" d="M70 55h15v24H70z"/>
    <path fill="#403C54" d="M70.5 55.706h14v22.588h-14V55.706Z"/>
    <path fill="currentColor" d="M71 56.412h5.909v9.774H71zM78.091 56.412H84v9.774h-5.909zM78.091 67.814H84v9.774h-5.909zM71 67.814h5.909v9.774H71z"/>
    <path fill="url(#23paint1_linear_89_765)" d="M48.88 64H52l4.68 26h-13l5.2-26Z"/>
    <path fill="#282536" d="M50.5 65a2 2 0 0 1-2-2h4a2 2 0 0 1-2 2Z"/>
    <path fill="#fff" fill-opacity=".6" d="M83 87a8 8 0 1 1 16 0v7H83v-7Z"/>
    <use xlink:href="#23reuse-1" fill-opacity=".6"/>
    <mask id="23mask1_89_765" width="16" height="15" x="83" y="79" maskUnits="userSpaceOnUse" style="mask-type:alpha">
        <use xlink:href="#23reuse-1"/>
    </mask>
    <g mask="url(#23mask1_89_765)">
        <path fill="#282536" d="m85.494 88.823.548-1.017 5.213 4.958-.548 1.017zM87.483 85.345l.548-1.017 3.554 3.38-.548 1.016z"/>
        <path fill="#282536" d="M94.63 85.016 94.083 84l-3.553 3.38.548 1.016zM96.647 88.766l-.548-1.016-5.213 4.958.548 1.016 5.213-4.958Z"/>
        <path fill="#282536" d="M90.53 80.25h.94V94h-.94V80.25Z"/>
        <path fill="#fff" d="M101 78H78v5.714l.295.11a13.996 13.996 0 0 0 11.362-.706 6.998 6.998 0 0 1 4.52-.675L101 83.714V78Z"/>
    </g>
    <path fill="#fff" fill-opacity=".6" d="M1 87a8 8 0 1 1 16 0v7H1v-7Z"/>
    <use xlink:href="#23reuse-2" fill-opacity=".6"/>
    <mask id="23mask2_89_765" width="16" height="15" x="1" y="79" maskUnits="userSpaceOnUse" style="mask-type:alpha">
        <use xlink:href="#23reuse-2"/>
    </mask>
    <g mask="url(#23mask2_89_765)">
        <path fill="#282536" d="m3.494 88.823.548-1.017 5.213 4.958-.548 1.017zM5.483 85.345l.548-1.017 3.554 3.38-.548 1.016z"/>
        <path fill="#282536" d="M12.63 85.016 12.083 84 8.53 87.38l.548 1.016zM14.647 88.766l-.548-1.016-5.213 4.958.548 1.016 5.213-4.958Z"/>
        <path fill="#282536" d="M8.53 80.25h.94V94h-.94V80.25Z"/>
        <path fill="#fff" d="M19 78H-4v5.714l.295.11a13.996 13.996 0 0 0 11.362-.706 6.998 6.998 0 0 1 4.52-.675L19 83.714V78Z"/>
    </g>
    <path fill="#435A4E" d="m50.515 56.213 2.789 3.035 1.453-3.746-4.242.711Z"/>
    <path fill="#435A4E" d="m52.293 56.8 2.789 3.036 1.453-3.747-4.242.712Z"/>
    <path fill="#435A4E" d="m58.192 58.75-3.364.565 1.153-2.972 2.211 2.407ZM50.485 56.213l-2.788 3.035-1.454-3.746 4.242.711Z"/>
    <path fill="#435A4E" d="m48.707 56.8-2.788 3.036-1.453-3.747 4.241.712Z"/>
    <path fill="#435A4E" d="m42.808 58.75 3.364.565-1.152-2.972-2.212 2.407Z"/>
    <circle r=".731" fill="#FDE5A8" fill-opacity=".8" transform="matrix(1 0 0 -1 50.5 60.038)"/>
    <path fill="#FDE5A8" d="M49.039 57.533a1.462 1.462 0 0 1 2.923 0v2.297c-.933.4-1.99.4-2.923 0v-2.297Z"/>
    <path fill="#B13434" d="M48.308 55.276a.2.2 0 0 1 .303-.171l1.89 1.134 1.889-1.134a.2.2 0 0 1 .302.171v1.982a.2.2 0 0 1-.274.186l-1.918-.767-1.918.767a.2.2 0 0 1-.274-.186v-1.982Z"/>
    <path fill="#B13434" d="m50.717 56.581-.217-.197-2.202 1.553.648.59 1.77-1.946Z"/>
    <path fill="#B13434" d="m50.274 56.581.216-.197 2.203 1.553-.65.59-1.77-1.946Z"/>
    <path fill="#282536" d="M43 36h15v14H43z"/>
    <path fill="#403C54" d="M43.5 36.412h14v13.176h-14V36.412Z"/>
    <path fill="currentColor" d="M44 36.824h5.909v5.701H44zM51.091 36.824H57v5.701h-5.909zM51.091 43.475H57v5.701h-5.909zM44 43.475h5.909v5.701H44z"/>
    <path fill="#fff" d="M43.566 49.5c.513-.633 1.284-1 2.099-1h4.218l4.096.12c.64.019 1.232.347 1.587.88h-12Z"/>
    <path fill="#282536" d="M70 36h15v14H70z"/>
    <path fill="#403C54" d="M70.5 36.412h14v13.176h-14V36.412Z"/>
    <path fill="currentColor" d="M71 36.824h5.909v5.701H71zM78.091 36.824H84v5.701h-5.909zM78.091 43.475H84v5.701h-5.909zM71 43.475h5.909v5.701H71z"/>
    <path fill="#fff" d="M74.324 49.5a2.942 2.942 0 0 1 2.787-2h2.477l2.505.176a2.498 2.498 0 0 1 2.231 1.824h-10Z"/>
    <path fill="#282536" d="M16 36h15v14H16z"/>
    <path fill="#403C54" d="M16.5 36.412h14v13.176h-14V36.412Z"/>
    <path fill="currentColor" d="M17 36.824h5.909v5.701H17zM24.091 36.824H30v5.701h-5.909zM24.091 43.475H30v5.701h-5.909zM17 43.475h5.909v5.701H17z"/>
    <path fill="#fff" d="M19 49.5c.202-.598.762-1 1.393-1h1.24l1.251.088c.527.037.974.402 1.116.912h-5ZM75 95c0-3.444 3.374-5.875 6.64-4.786l1.051.35c.861.287 1.643.77 2.284 1.411L88 95H75ZM33 95c0-4.177-4.355-6.926-8.126-5.13L22.5 91l-4.806-.48A6.331 6.331 0 0 0 11 95h22Z"/>
    <defs>
        <linearGradient id="23paint0_linear_89_765" x1="81" x2="81" y1=".357" y2="6.357" gradientUnits="userSpaceOnUse">
            <stop offset=".318" stop-color="#D9D9D9" stop-opacity="0"/>
            <stop offset="1" stop-color="#F5F5F5"/>
        </linearGradient>
        <linearGradient id="23paint1_linear_89_765" x1="50.5" x2="50.5" y1="62.791" y2="90" gradientUnits="userSpaceOnUse">
            <stop stop-color="#FDE5A8"/>
            <stop offset="1" stop-color="#FDE5A8" stop-opacity="0"/>
        </linearGradient>
    </defs>
</svg>