<svg xmlns="http://www.w3.org/2000/svg" width="100" height="100" fill="none" viewBox="0 0 100 100">
    <g clip-path="url(#clip0_58_181)">
        <path fill="#403C54" d="M14 26h81v68H14z"/>
        <path fill="#282536" fill-opacity=".6" d="M95 91H14v3h81z"/>
        <path stroke="#322E42" stroke-width="2" d="M45 62h17v28H45z"/>
        <path fill="#282536" d="M47 65h13v24H47z"/>
        <path fill="#403C54" d="M51 78h2v1h-2zM54 78h2v1h-2z"/>
        <path fill="#282536" d="M72 5h3v6h-3zM77 5h3v6h-3zM18.375 11h73.313L97 34H12l6.375-23Z"/>
        <mask id="mask0_58_181" width="85" height="23" x="12" y="11" maskUnits="userSpaceOnUse" style="mask-type:alpha">
            <path fill="#282536" d="M18.375 11h73.313L97 34H12l6.375-23Z"/>
        </mask>
        <g stroke="#403C54" mask="url(#mask0_58_181)">
            <path d="M16.5 6v31M20.5 6v31M24.5 6v31M28.5 6v31M32.5 6v31M36.5 6v31M40.5 6v31M44.5 6v31M48.5 6v31M52.5 6v31M56.5 6v31M60.5 6v31M64.5 6v31M68.5 6v31M72.5 6v31M76.5 6v31M80.5 6v31M84.5 6v31M88.5 6v31M92.5 6v31"/>
        </g>
        <path fill="#fff" d="M33 94a6 6 0 0 1 6-6h4a3 3 0 0 1 3 3v4H33v-1ZM75 94a6 6 0 0 1 6-6h4a3 3 0 0 1 3 3v4H75v-1Z"/>
        <path fill="#fff" d="M99 95a2 2 0 0 0-2-2h-9a2 2 0 0 0-2 2h13ZM37 95a4 4 0 0 0-4-4h-6a3 3 0 0 0-3 3v1h13Z"/>
        <path fill="#282536" d="M41 92h25v3H41zM43 89h21v3H43z"/>
        <path fill="#fff" d="M37.29 25.065c7.745-13.08 26.675-13.08 34.42 0L77 34H32l5.29-8.935Z"/>
        <path fill="#403C54" d="M36.795 29.723c7.656-13.768 27.484-13.692 35.034.135L74.5 34.75H34l2.795-5.027Z"/>
        <path stroke="#fff" stroke-linecap="round" stroke-width="3" d="M75.5 33.5h21M11.5 33.5h22"/>
        <path fill="#fff" d="M53.627 55.336c-1.696 0-3.064-.568-4.104-1.704-1.04-1.136-1.56-2.736-1.56-4.8 0-1.632.408-3.12 1.224-4.464.832-1.36 2-2.48 3.504-3.36 1.504-.88 3.264-1.416 5.28-1.608l.072.552c-1.936.416-3.424 1.16-4.464 2.232-1.04 1.072-1.72 2.48-2.04 4.224a5.185 5.185 0 0 1 1.488-.648 6.008 6.008 0 0 1 1.704-.24c.944 0 1.736.2 2.376.6.64.4 1.12.944 1.44 1.632.32.688.48 1.464.48 2.328 0 1.12-.264 2.072-.792 2.856a5.26 5.26 0 0 1-2.04 1.8c-.816.4-1.672.6-2.568.6ZM51.3 49.312c0 1.904.184 3.272.552 4.104.368.832.936 1.248 1.704 1.248.736 0 1.288-.336 1.656-1.008.368-.672.552-1.776.552-3.312 0-1.424-.184-2.416-.552-2.976-.352-.56-.928-.84-1.728-.84-.736 0-1.416.168-2.04.504a16.91 16.91 0 0 0-.144 2.28Z"/>
        <path fill="#435A4E" d="m63.857 56.638 2.68-.487-1.762-2.077-.918 2.564Z"/>
        <path fill="#435A4E" d="m64.767 55.866 2.68-.487-1.762-2.076-.918 2.563Z"/>
        <path fill="#435A4E" d="m67.785 53.307-.728 2.033-1.397-1.647 2.125-.386ZM64.01 56.931l1.76 2.077.919-2.563-2.68.486Z"/>
        <path fill="#435A4E" d="m65.132 57.334 1.762 2.076.917-2.563-2.679.487Z"/>
        <path fill="#435A4E" d="m68.858 58.668-2.125.386.728-2.034 1.397 1.648Z"/>
        <circle r=".784" fill="#B13434" transform="scale(-1 1) rotate(-13.018 222.856 307.822)"/>
        <circle r=".784" fill="#B13434" transform="scale(-1 1) rotate(-13.018 216.963 303.68)"/>
        <circle r=".784" fill="#B13434" transform="scale(-1 1) rotate(-13.018 223.647 300.491)"/>
        <path fill="#282536" d="M70 41h15v12H70z"/>
        <path fill="#403C54" d="M70.5 41.353h14v11.294h-14V41.353Z"/>
        <path fill="currentColor" d="M71 41.706h5.909v4.887H71zM78.091 41.706H84v4.887h-5.909zM78.091 47.407H84v4.887h-5.909zM71 47.407h5.909v4.887H71z"/>
        <path fill="#282536" d="M22 41h15v12H22z"/>
        <path fill="#403C54" d="M22.5 41.353h14v11.294h-14V41.353Z"/>
        <path fill="currentColor" d="M23 41.706h5.909v4.887H23zM30.091 41.706H36v4.887h-5.909zM30.091 47.407H36v4.887h-5.909zM23 47.407h5.909v4.887H23z"/>
        <path fill="#282536" d="M22 59h15v22H22z"/>
        <path fill="#403C54" d="M22.5 59.647h14v20.706h-14V59.647Z"/>
        <path fill="currentColor" d="M23 60.294h5.909v8.959H23zM30.091 60.294H36v8.959h-5.909zM30.091 70.747H36v8.959h-5.909zM23 70.747h5.909v8.959H23z"/>
        <path fill="#282536" d="M70 59h15v22H70z"/>
        <path fill="#403C54" d="M70.5 59.647h14v20.706h-14V59.647Z"/>
        <path fill="currentColor" d="M71 60.294h5.909v8.959H71zM78.091 60.294H84v8.959h-5.909zM78.091 70.747H84v8.959h-5.909zM71 70.747h5.909v8.959H71z"/>
        <path fill="#403C54" d="m79.899 74-.899.438 3.067 6.292.899-.438z"/>
        <circle cx="89" cy="85" r="10" fill="#fff"/>
        <circle cx="89" cy="72" r="5" fill="#fff"/>
        <circle cx="85.5" cy="82.5" r=".5" fill="#B13434"/>
        <circle cx="86.5" cy="79.5" r=".5" fill="#B13434"/>
        <circle cx="86.5" cy="85.5" r=".5" fill="#B13434"/>
        <path fill="#282536" d="M86.5 71a.5.5 0 1 1-1 0 .5.5 0 0 1 1 0ZM91.5 71a.5.5 0 1 1-1 0 .5.5 0 0 1 1 0ZM98.067 74l.899.438-3.067 6.292-.899-.438z"/>
        <path stroke="#000" stroke-width=".5" d="m91 72.5-.268.403C89.547 74.68 86.868 74.452 86 72.5"/>
        <path fill="#282536" d="m40.5 67 .212 3.06 2.274.213-2.274.273L40.5 74l-.242-3.454-2.244-.273 2.244-.212L40.5 67ZM66.5 67l.212 3.06 2.274.213-2.274.273L66.5 74l-.242-3.454-2.244-.273 2.244-.212L66.5 67Z"/>
        <path fill="url(#paint0_linear_58_181)" d="M72.5-1h2a14.71 14.71 0 0 0 0 6h-2L72 3.5a5.84 5.84 0 0 1-.175-3.047l.05-.239L72.5-1Z"/>
        <path fill="url(#paint1_linear_58_181)" d="M77.375-1h2a14.71 14.71 0 0 0 0 6h-2l-.5-1.5A5.84 5.84 0 0 1 76.7.453l.05-.239L77.375-1Z"/>
        <path fill="#435A4E" d="m43.143 56.638-2.68-.487 1.762-2.077.918 2.564Z"/>
        <path fill="#435A4E" d="m42.233 55.866-2.68-.487 1.762-2.076.918 2.563Z"/>
        <path fill="#435A4E" d="m39.215 53.307.728 2.033 1.397-1.647-2.125-.386ZM42.99 56.931l-1.76 2.077-.919-2.563 2.68.486Z"/>
        <path fill="#435A4E" d="m41.868 57.334-1.762 2.076-.917-2.563 2.679.487Z"/>
        <path fill="#435A4E" d="m38.142 58.668 2.125.386-.728-2.034-1.397 1.648Z"/>
        <circle cx="43.388" cy="58.112" r=".784" fill="#B13434" transform="rotate(-13.018 43.388 58.112)"/>
        <circle cx="44.169" cy="56.678" r=".784" fill="#B13434" transform="rotate(-13.018 44.17 56.678)"/>
        <circle cx="45.059" cy="58.102" r=".784" fill="#B13434" transform="rotate(-13.018 45.06 58.102)"/>
        <rect width="14" height="11.79" x="47" y="23" fill="#282536" rx="5.895"/>
        <path fill="#403C54" d="M47.467 28.895a5.548 5.548 0 0 1 5.548-5.548h1.97a5.548 5.548 0 1 1 0 11.096h-1.97a5.548 5.548 0 0 1-5.548-5.548Z"/>
        <path fill="currentColor" d="M47.933 28.495a4.801 4.801 0 0 1 4.801-4.802h.715v4.802h-5.516ZM54.551 23.693h.714a4.801 4.801 0 0 1 4.801 4.801h-5.515v-4.8ZM54.551 29.295h5.515a4.801 4.801 0 0 1-4.8 4.8h-.715v-4.8ZM47.933 29.295h5.516v4.8h-.715a4.801 4.801 0 0 1-4.8-4.8Z"/>
    </g>
    <defs>
        <linearGradient id="paint0_linear_58_181" x1="73.25" x2="73.25" y1="-.643" y2="5.357" gradientUnits="userSpaceOnUse">
            <stop offset=".151" stop-color="#D9D9D9" stop-opacity="0"/>
            <stop offset="1" stop-color="#F5F5F5"/>
        </linearGradient>
        <linearGradient id="paint1_linear_58_181" x1="78.625" x2="78.625" y1="-.643" y2="5.357" gradientUnits="userSpaceOnUse">
            <stop offset=".318" stop-color="#D9D9D9" stop-opacity="0"/>
            <stop offset="1" stop-color="#F5F5F5"/>
        </linearGradient>
        <clipPath id="clip0_58_181">
            <path fill="#fff" d="M0 0h100v100H0z"/>
        </clipPath>
    </defs>
</svg>