<svg xmlns="http://www.w3.org/2000/svg" width="100" height="100" fill="none" viewBox="0 0 100 100">
    <g clip-path="url(#clip0_58_325)">
        <path fill="#282536" d="M15.961 82.192h5.077v8.885h-5.077z"/>
        <path fill="#282536" d="m18.5 20 14.29 64.73H4.21L18.5 20ZM75.182 84.266h4.43v7.752h-4.43z"/>
        <path fill="#282536" d="m77.397 30 12.468 56.48H64.93L77.397 30Z"/>
        <path fill="#403C54" d="M22 47.26 29 40h41l7 7.26V94H22V47.26Z"/>
        <path fill="#403C54" d="m50 14 20.5 26.5H29L50 14Z"/>
        <path stroke="#282536" stroke-width=".5" d="m36.5 29.5 1.138 1.072a16.923 16.923 0 0 0 24.37-1.214L62.32 29"/>
        <path fill="#FDE5A8" d="M49.94 35.933a.578.578 0 1 1-1.04-.505.578.578 0 0 1 1.04.505Z"/>
        <path fill="#435A4E" d="M52.19 35.708c-.16.458-.77.54-1.03.14a.59.59 0 0 1 .42-.897.568.568 0 0 1 .61.757Z"/>
        <path fill="#B13434" d="M46.644 35.708c.16.458.77.54 1.03.14a.59.59 0 0 0-.42-.897.568.568 0 0 0-.61.757ZM54.393 35.21c-.112.474-.706.629-1.005.262-.266-.328-.092-.838.323-.946a.56.56 0 0 1 .682.684Z"/>
        <path fill="#435A4E" d="M44.395 35.21c.112.475.706.63 1.005.264.267-.327.094-.838-.321-.946a.56.56 0 0 0-.684.683Z"/>
        <path fill="#FDE5A8" d="M56.565 34.414c-.057.486-.622.717-.96.394-.304-.291-.194-.825.205-.988.398-.163.806.158.755.594ZM62.273 30.658c-.057.485-.622.716-.96.393-.304-.291-.193-.825.205-.988.398-.163.806.158.755.595ZM42.251 34.467c.064.484.632.707.966.378.3-.296.182-.827-.219-.984-.4-.157-.804.17-.747.606ZM36.716 30.946c.063.484.632.707.966.378.3-.295.181-.827-.22-.983-.4-.157-.803.17-.746.605Z"/>
        <path fill="#435A4E" d="M58.56 33.385c-.005.489-.534.784-.904.506-.335-.254-.286-.803.092-1.014.377-.21.817.065.812.508Z"/>
        <path fill="#B13434" d="M40.263 33.44c.005.489.534.785.904.506.335-.254.286-.803-.092-1.013-.377-.211-.817.064-.812.508ZM60.435 32.125c.044.485-.445.836-.84.602-.361-.214-.372-.77-.02-1.023.353-.253.82-.025.86.42Z"/>
        <path fill="#435A4E" d="M38.4 32.18c-.044.485.444.836.838.602.363-.214.374-.77.02-1.023-.352-.253-.819-.024-.859.42Z"/>
        <path stroke="#fff" stroke-linecap="round" stroke-width="3" d="M49.5 15 21 50.5M49.5 15 78 49.5"/>
        <path fill="#282536" fill-opacity=".6" d="M22 82h55v12H22z"/>
        <path fill="#fff" d="M32.708 52.64c0-.832.312-1.552.936-2.16.624-.624 1.432-1.152 2.424-1.584-2-1.056-3-2.48-3-4.272 0-.88.216-1.632.648-2.256.448-.624 1.056-1.104 1.824-1.44.768-.352 1.624-.528 2.568-.528 1.456 0 2.56.344 3.312 1.032.752.672 1.128 1.48 1.128 2.424 0 .704-.264 1.376-.792 2.016-.528.624-1.216 1.144-2.064 1.56 1.2.576 2.096 1.24 2.688 1.992.608.736.912 1.624.912 2.664 0 .848-.224 1.592-.672 2.232-.448.64-1.08 1.136-1.896 1.488-.816.352-1.768.528-2.856.528-1.648 0-2.92-.32-3.816-.96-.896-.656-1.344-1.568-1.344-2.736Zm3.072-9.216c0 .448.088.872.264 1.272.176.384.496.776.96 1.176.464.384 1.144.8 2.04 1.248.528-.56.872-1.088 1.032-1.584.16-.496.24-1.008.24-1.536 0-.992-.208-1.72-.624-2.184-.416-.48-.976-.72-1.68-.72-.608 0-1.136.208-1.584.624-.432.4-.648.968-.648 1.704Zm-.552 9.024c0 .944.256 1.72.768 2.328.512.592 1.176.888 1.992.888.8 0 1.408-.256 1.824-.768.416-.512.624-1.16.624-1.944 0-.512-.112-.96-.336-1.344-.224-.4-.608-.792-1.152-1.176-.528-.384-1.272-.792-2.232-1.224l-.072-.024c-.544.496-.92.976-1.128 1.44-.192.464-.288 1.072-.288 1.824Z"/>
        <path fill="#282536" d="M54 64h13v26H54z"/>
        <path fill="#403C54" d="M42 15h14v16H42z"/>
        <path fill="#282536" d="M45 10h3v4h-3zM50 7h4v2h-4V7Z"/>
        <path fill="#282536" d="M50.5 8h3v6h-3V8Z"/>
        <path fill="#fff" d="M45 10a.775.775 0 0 1 .958-.638l.542.138.551-.184A.72.72 0 0 1 48 10h-3Z"/>
        <path fill="url(#paint0_linear_58_325)" d="M51-3h2a40.627 40.627 0 0 0 0 10h-2l-.5-2.5a15.66 15.66 0 0 1-.181-5.03l.056-.446L51-3Z"/>
        <path stroke="#fff" stroke-linecap="round" stroke-width="3" d="M42.5 14.5h13"/>
        <path fill="#fff" d="M39 92a6 6 0 0 1 6-6h5a3 3 0 0 1 3 3v7H39v-4Z"/>
        <path fill="#fff" d="M32 95a6 6 0 0 1 6-6h4a3 3 0 0 1 3 3v4H32v-1Z"/>
        <path fill="#282536" d="M50 87h20v3H50zM46 90h27v3H46zM44 93h31v3H44z"/>
        <circle cx="56" cy="76" r="1" fill="#403C54"/>
        <path fill="currentColor" d="M56 66h4.091v2.769H56zM60.909 66H65v2.769h-4.091zM60.909 69.231H65V72h-4.091zM56 69.231h4.091V72H56z"/>
        <path fill="#322E42" d="m72.136 69 .449 2.24 1.779.693-1.78.651-.448 2.689-.448-2.689-1.779-.651 1.78-.693.448-2.24ZM49.136 69l.448 2.24 1.78.693-1.78.651-.448 2.689-.448-2.689-1.779-.651 1.78-.693.447-2.24Z"/>
        <path fill="#FDE5A8" d="m77.415 25 .898 2.764h2.906l-2.351 1.708.898 2.764-2.351-1.708-2.352 1.708.899-2.764-2.352-1.708h2.907L77.415 25Z"/>
        <path fill="#282536" d="M53 40h15v17H53z"/>
        <path fill="#403C54" d="M53.5 40.5h14v16h-14v-16Z"/>
        <path fill="currentColor" d="M54 41h5.909v6.923H54zM61.091 41H67v6.923h-5.909zM61.091 49.077H67V56h-5.909zM54 49.077h5.909V56H54z"/>
        <path fill="#282536" d="M30 64h15v17H30z"/>
        <path fill="#403C54" d="M30.5 64.5h14v16h-14v-16Z"/>
        <path fill="currentColor" d="M31 65h5.909v6.923H31zM38.091 65H44v6.923h-5.909zM38.091 73.077H44V80h-5.909zM31 73.077h5.909V80H31z"/>
    </g>
    <defs>
        <linearGradient id="paint0_linear_58_325" x1="53.25" x2="53.25" y1="-2.405" y2="9.5" gradientUnits="userSpaceOnUse">
            <stop offset=".281" stop-color="#D9D9D9" stop-opacity="0"/>
            <stop offset="1" stop-color="#F5F5F5"/>
        </linearGradient>
        <clipPath id="clip0_58_325">
            <path fill="#fff" d="M0 0h100v100H0z"/>
        </clipPath>
    </defs>
</svg>