<svg xmlns="http://www.w3.org/2000/svg" xmlns:xlink="http://www.w3.org/1999/xlink" width="100" height="100" fill="none" viewBox="0 0 100 100">
    <defs>
        <path id="reuse-0" fill="#282536" fill-opacity=".8" d="M3 72.5C3 65.596 8.596 60 15.5 60S28 65.596 28 72.5V90H3V72.5Z"/>
    </defs>
    <g clip-path="url(#clip0_89_497)">
        <use xlink:href="#reuse-0" fill-opacity=".8"/>
        <mask id="mask0_89_497" width="25" height="30" x="3" y="60" maskUnits="userSpaceOnUse" style="mask-type:alpha">
            <use xlink:href="#reuse-0"/>
        </mask>
        <g mask="url(#mask0_89_497)">
            <path fill="#fff" d="M31.125 58H-4.813V69.43l.188.09a18.31 18.31 0 0 0 18.053-1.3 9.155 9.155 0 0 1 7.208-1.292l10.489 2.502V58Z"/>
        </g>
        <path fill="#282536" d="M17 69h2v22h-2zM14 69h2v22h-2zM11 69h2v22h-2zM8 69h2v22H8zM5 69h2v22H5z"/>
        <path fill="#282536" d="M19 87v2H2v-2zM19 72v2H2v-2z"/>
        <path fill="#282536" d="M2 69h2v22H2z"/>
        <path fill="#403C54" d="M96 46H19v48h77z"/>
        <path fill="#282536" fill-opacity=".6" d="M96 91H19v3h77z"/>
        <path stroke="#282536" stroke-opacity=".6" d="M54.5 53v41"/>
        <path stroke="#282536" d="M84.5 66.584c0-1.491-.75-2.882-1.995-3.702a11.83 11.83 0 0 0-13.01 0 4.432 4.432 0 0 0-1.995 3.702V89.5h17V66.584Z"/>
        <path fill="#fff" d="M69 95c-.46-3.572-4-5.891-7.458-4.885L58.5 91l-3.024-1.152C51.867 88.473 48 91.138 48 95h21ZM94 94a6 6 0 0 0-6-6h-2a3 3 0 0 0-3 3v4h11v-1Z"/>
        <path fill="#282536" d="M88 92H64v3h24zM86 89H66v3h20zM92 22H23l-5 29h80l-6-29Z"/>
        <mask id="mask1_89_497" width="80" height="29" x="18" y="22" maskUnits="userSpaceOnUse" style="mask-type:alpha">
            <path fill="#282536" d="M92 22H23l-5 29h80l-6-29Z"/>
        </mask>
        <g stroke="#403C54" stroke-dasharray="2 2" mask="url(#mask1_89_497)">
            <path d="M15 49.5h83M15 45.5h83M15 41.5h83M15 37.5h83M15 33.5h83M15 29.5h83M15 25.5h83M17 47.5h83M17 43.5h83M17 39.5h83M17 35.5h83M17 31.5h83M17 27.5h83M17 23.5h83"/>
        </g>
        <path fill="#403C54" d="M75 18 54.215 52.5h41.57L75 18Z"/>
        <path stroke="#282536" stroke-width=".5" d="m94 47-1.274.892a29.22 29.22 0 0 1-16.757 5.282h-.422A28.021 28.021 0 0 1 58 47"/>
        <path fill="#FDE5A8" d="M75.299 54.146a.673.673 0 1 0 1.125-.74.673.673 0 0 0-1.125.74Z"/>
        <path fill="#435A4E" d="M72.222 53.925c.202.428.794.488 1.122.114.362-.414.133-1.035-.4-1.088-.534-.054-.945.502-.722.974Z"/>
        <path fill="#B13434" d="M79.511 53.925c-.202.428-.794.488-1.121.114-.362-.414-.134-1.035.4-1.088.533-.054.945.502.721.974ZM69.208 53.417c.143.446.736.56 1.116.215.413-.376.265-1.005-.26-1.106-.526-.1-1.012.405-.856.891Z"/>
        <path fill="#435A4E" d="M82.587 53.417c-.142.447-.735.562-1.115.217-.414-.376-.268-1.005.258-1.106.525-.102 1.012.403.857.89Z"/>
        <path fill="#FDE5A8" d="M66.235 52.592c.073.462.666.642 1.101.334.463-.327.4-.952-.11-1.107-.51-.154-1.069.282-.991.773ZM85.519 52.648c-.081.461-.675.633-1.104.32-.457-.333-.386-.959.127-1.107.512-.148 1.064.297.977.787Z"/>
        <path fill="#435A4E" d="M63.512 51.523c.007.472.597.716 1.079.446.497-.278.507-.89.017-1.092-.49-.202-1.103.16-1.096.646Z"/>
        <path fill="#B13434" d="M88.237 51.578c-.007.472-.596.716-1.079.447-.497-.278-.507-.89-.017-1.093.49-.202 1.103.16 1.096.646ZM60.965 50.217c-.058.474.522.783 1.044.555.521-.229.592-.822.128-1.068-.464-.247-1.115.038-1.172.513Z"/>
        <path fill="#435A4E" d="M90.769 50.272c.057.475-.523.783-1.044.555-.522-.228-.593-.822-.129-1.068.464-.246 1.115.038 1.173.513Z"/>
        <path fill="#fff" d="M81.052 38.784c0 1.616-.368 3.088-1.104 4.416-.736 1.328-1.816 2.448-3.24 3.36-1.424.896-3.176 1.536-5.256 1.92l-.168-.624c1.392-.352 2.52-.816 3.384-1.392.88-.576 1.552-1.288 2.016-2.136.464-.848.776-1.856.936-3.024-.368.24-.8.432-1.296.576a6.45 6.45 0 0 1-1.656.192c-.88 0-1.68-.176-2.4-.528a4.17 4.17 0 0 1-1.704-1.584c-.416-.688-.624-1.52-.624-2.496 0-1.04.248-1.936.744-2.688a5.036 5.036 0 0 1 1.992-1.752 6.181 6.181 0 0 1 2.76-.624c1.808 0 3.192.568 4.152 1.704.976 1.136 1.464 2.696 1.464 4.68Zm-7.872-1.632c0 1.376.208 2.376.624 3 .416.624 1.08.936 1.992.936.72 0 1.352-.144 1.896-.432.048-.592.072-1.24.072-1.944 0-1.424-.08-2.544-.24-3.36-.144-.816-.384-1.392-.72-1.728-.336-.352-.784-.528-1.344-.528-.736 0-1.304.32-1.704.96-.384.624-.576 1.656-.576 3.096Z"/>
        <path stroke="#fff" stroke-linecap="round" stroke-width="3" d="m75 16 20 35M75 16 55 51"/>
        <path fill="#282536" d="M83 68.048a3.698 3.698 0 0 0-1.497-2.972 9.245 9.245 0 0 0-11.006 0A3.698 3.698 0 0 0 69 68.048V89h14V68.048ZM34 16h-6v4h6v-4Z"/>
        <path fill="#282536" d="M33 17h-4v6h4v-6Z"/>
        <path stroke="#fff" stroke-linecap="round" stroke-width="3" d="M54.5 51.5h-36M97.5 51.5h-3"/>
        <circle r="1" fill="#403C54" transform="matrix(-1 0 0 1 71 79)"/>
        <circle r="3" stroke="#435A4E" stroke-width="2" transform="matrix(-1 0 0 1 76 72)"/>
        <path fill="#B13434" d="M78.222 73.687a.2.2 0 0 0-.303-.172L76 74.667l-1.918-1.152a.2.2 0 0 0-.303.172v2.018a.2.2 0 0 0 .274.185L76 75.111l1.948.78a.2.2 0 0 0 .274-.186v-2.018Z"/>
        <path fill="#B13434" d="M75.852 75.111h-.296l-.593 2.667h.889V75.11ZM76.148 75.111h.296l.593 2.667h-.889V75.11Z"/>
        <path fill="url(#paint0_linear_89_497)" d="M32.667 6H30c.552 3.31.552 6.69 0 10h2.667l.666-2.5c.44-1.648.52-3.37.238-5.052l-.071-.424L32.667 6Z"/>
        <path fill="#282536" d="M28 58h15v25H28z"/>
        <path fill="#403C54" d="M28.5 58.735h14v23.53h-14v-23.53Z"/>
        <path fill="currentColor" d="M29 59.471h5.909v10.181H29zM36.091 59.471H42v10.181h-5.909zM36.091 71.348H42v10.181h-5.909zM29 71.348h5.909v10.181H29z"/>
        <path fill="#282536" d="M57.402 58.5h7.215v24h-7.215v-24Z"/>
        <path fill="#403C54" d="M57.8 59h6.4v23h-6.4V59Z"/>
        <path fill="currentColor" d="M58.673 59.471H63.4v10.181h-4.727zM58.673 71.348H63.4v10.181h-4.727z"/>
        <path fill="#282536" d="M87 58.5h7.215v24H87v-24Z"/>
        <path fill="#403C54" d="M87.398 59h6.4v23h-6.4V59Z"/>
        <path fill="currentColor" d="M88.271 59.471h4.727v10.181h-4.727zM88.271 71.348h4.727v10.181h-4.727z"/>
        <path stroke="#282536" stroke-linecap="round" d="M28.5 84.5h14M57.5 83.5h7M87 83.5h7"/>
        <path fill="#fff" d="M30 84a2.7 2.7 0 0 1 3.109-2.098l3.391.598 3.52-.813A1.98 1.98 0 0 1 42.41 84H30Z"/>
    </g>
    <defs>
        <linearGradient id="paint0_linear_89_497" x1="29.667" x2="29.667" y1="6.595" y2="18.5" gradientUnits="userSpaceOnUse">
            <stop offset=".177" stop-color="#D9D9D9" stop-opacity="0"/>
            <stop offset="1" stop-color="#F5F5F5"/>
        </linearGradient>
        <clipPath id="clip0_89_497">
            <path fill="#fff" d="M100 0H0v100h100z"/>
        </clipPath>
    </defs>
</svg>