<svg xmlns="http://www.w3.org/2000/svg" width="258" height="144" fill="none" viewBox="0 0 258 144"><path stroke="#fff" stroke-linecap="round" stroke-width="5" d="M5 140h248"/><path stroke="#282536" d="M129 21v5.343"/><path fill="#fff" d="M121 28.235a2 2 0 0 1 2-2h12a2 2 0 0 1 2 2V74h-16V28.235Z"/><circle cx="129" cy="20" r="4" fill="url(#0paint0_linear_42_122)" fill-opacity=".8" transform="rotate(-180 129 20)"/><path stroke="#282536" d="M155 34v5.343"/><path fill="#fff" d="M147 41.235a2 2 0 0 1 2-2h12a2 2 0 0 1 2 2V87h-16V41.235Z"/><circle cx="155" cy="33" r="4" fill="url(#0paint1_linear_42_122)" fill-opacity=".8" transform="rotate(-180 155 33)"/><path stroke="#282536" d="M177 51v5.343"/><path fill="#fff" d="M169 58.235a2 2 0 0 1 2-2h12a2 2 0 0 1 2 2V104h-16V58.235Z"/><circle cx="177" cy="50" r="4" fill="url(#0paint2_linear_42_122)" fill-opacity=".8" transform="rotate(-180 177 50)"/><path stroke="#282536" d="M81 51v5.343"/><path fill="#fff" d="M73 58.235a2 2 0 0 1 2-2h12a2 2 0 0 1 2 2V104H73V58.235Z"/><circle cx="81" cy="50" r="4" fill="url(#0paint3_linear_42_122)" fill-opacity=".8" transform="rotate(-180 81 50)"/><path stroke="#282536" d="M199 68v5.343"/><path fill="#fff" d="M191 75.235a2 2 0 0 1 2-2h12a2 2 0 0 1 2 2V121h-16V75.235Z"/><circle cx="199" cy="67" r="4" fill="url(#0paint4_linear_42_122)" fill-opacity=".8" transform="rotate(-180 199 67)"/><path stroke="#282536" d="M59 68v5.343"/><path fill="#fff" d="M51 75.235a2 2 0 0 1 2-2h12a2 2 0 0 1 2 2V121H51V75.235Z"/><circle cx="59" cy="67" r="4" fill="url(#0paint5_linear_42_122)" fill-opacity=".8" transform="rotate(-180 59 67)"/><path stroke="#282536" d="M103 34v5.343"/><path fill="#fff" d="M95 41.235a2 2 0 0 1 2-2h12a2 2 0 0 1 2 2V87H95V41.235Z"/><circle cx="103" cy="33" r="4" fill="url(#0paint6_linear_42_122)" fill-opacity=".8" transform="rotate(-180 103 33)"/><path fill="#403C54" d="M140.591 73.062c.668 0 1.21.407 1.21.909v16.807h-11.599L67.326 138.02h1.926c.668 0 1.209.406 1.209.908v3.634c0 .502-.541.909-1.21.909H37.21c-.668 0-1.209-.407-1.209-.909v-3.634c0-.502.541-.908 1.21-.908h5.203l4.663-16.281c.24-.837 1.225-1.435 2.364-1.435h8.93c6.677 0 12.09-4.068 12.09-9.085v-6.359c0-1.004 1.084-1.817 2.42-1.817h7.859c6.677 0 12.091-4.068 12.091-9.085v-5.451c0-1.004 1.083-1.817 2.418-1.817h7.86c6.678 0 12.091-4.068 12.091-9.085V73.97c0-.502.542-.909 1.209-.909h24.183Z"/><path fill="#403C54" d="M116.409 73.062c-.668 0-1.21.407-1.21.909v16.807h11.599l62.876 47.242h-1.926c-.667 0-1.209.406-1.209.908v3.634c0 .502.542.909 1.209.909h32.043c.668 0 1.209-.407 1.209-.909v-3.634c0-.502-.541-.908-1.209-.908h-5.204l-4.663-16.281c-.24-.837-1.225-1.435-2.364-1.435h-8.929c-6.678 0-12.092-4.068-12.092-9.085v-6.359c0-1.004-1.083-1.817-2.418-1.817h-7.86c-6.677 0-12.091-4.068-12.091-9.085v-5.451c0-1.004-1.083-1.817-2.418-1.817h-7.86c-6.678 0-12.091-4.068-12.091-9.085V73.97c0-.502-.542-.909-1.209-.909h-24.183Z"/><path fill="#282536" fill-rule="evenodd" d="m128.664 81.785.3.225L203.483 138h-3.264l-71.555-53.763L57.109 138h-3.264l74.519-55.99.3-.225Z" clip-rule="evenodd"/><path fill="#282536" fill-rule="evenodd" d="m128.664 87.17.3.226L196.315 138h-3.264l-64.387-48.377L64.277 138h-3.264l67.351-50.604.3-.225Z" clip-rule="evenodd"/><path fill="#FDE5A8" d="M24 43.43v-.86h13.474v.86zM28.99 54.618l-.608-.608 9.528-9.527.607.607zM28.383 31.99l.607-.608 9.528 9.528-.607.607zM39.571 27h.859v13.474h-.859zM42.526 43.43v-.86H56v.86zM42.09 41.517l-.607-.607 9.527-9.528.608.608zM41.483 45.09l.607-.608 9.528 9.528-.608.607zM39.571 45.526h.859V59h-.859zM70 21.188v-.376h5.895v.376zM72.183 26.082l-.265-.265 4.168-4.169.266.266zM71.917 16.183l.266-.266 4.168 4.169-.266.266zM76.812 14h.376v5.895h-.376zM78.105 21.188v-.376H84v.376zM77.914 20.352l-.265-.266 4.168-4.168.266.265zM77.649 21.914l.266-.266 4.168 4.168-.266.266zM76.812 22.105h.376V28h-.376zM0 91.782v-.564h8.842v.564zM3.274 99.124l-.398-.399 6.252-6.252.399.399zM2.876 84.275l.399-.399 6.252 6.252-.399.4zM10.218 81h.564v8.842h-.564zM12.158 91.781v-.564H21v.564zM11.871 90.527l-.398-.4 6.252-6.251.399.398zM11.473 92.872l.4-.399 6.251 6.252-.398.4zM10.218 93.158h.564V102h-.564zM159 12.322v-.644h10.105v.644zM162.742 20.713l-.455-.455 7.145-7.146.455.456zM162.287 3.742l.455-.455 7.145 7.145-.455.455zM170.678 0h.644v10.105h-.644zM172.895 12.322v-.644H183v.644zM172.568 10.888l-.455-.456 7.145-7.145.455.456zM172.112 13.568l.456-.455 7.145 7.145-.455.455zM170.678 13.895h.644V24h-.644zM221 85.996v-.993h15.578v.993zM226.77 98.932l-.702-.702 11.016-11.016.702.702zM226.067 72.77l.702-.702 11.016 11.016-.702.702zM239.004 67h.993v15.579h-.993zM242.42 85.996v-.993H258v.993zM241.917 83.785l-.702-.702 11.016-11.016.702.702zM241.214 87.917l.702-.702 11.016 11.016-.702.702zM239.004 88.421h.993V104h-.993zM188 51.188v-.376h5.895v.376zM190.183 56.082l-.266-.266 4.169-4.168.266.266zM189.917 46.183l.266-.266 4.168 4.169-.266.265zM194.812 44h.376v5.895h-.376zM196.105 51.188v-.376H202v.376zM195.914 50.352l-.266-.266 4.168-4.169.266.266zM195.649 51.914l.266-.266 4.168 4.169-.266.266zM194.812 52.105h.376V58h-.376zM111 10.62v-.241h3.79v.242zM112.403 13.767l-.17-.171 2.678-2.68.172.172zM112.233 7.403l.17-.171 2.68 2.68-.171.17zM115.379 6h.242v3.789h-.242zM116.211 10.62v-.241h3.79v.242zM116.088 10.083l-.171-.171 2.68-2.68.17.172zM115.917 11.088l.171-.171 2.68 2.68-.172.17zM115.379 11.211h.242V15h-.242z"/><defs><linearGradient id="0paint0_linear_42_122" x1="129" x2="129" y1="16" y2="24" gradientUnits="userSpaceOnUse"><stop stop-color="#FDE5A8"/><stop offset=".677" stop-color="#FDE5A8" stop-opacity=".7"/><stop offset="1" stop-color="#FDE5A8" stop-opacity="0"/></linearGradient><linearGradient id="0paint1_linear_42_122" x1="155" x2="155" y1="29" y2="37" gradientUnits="userSpaceOnUse"><stop stop-color="#FDE5A8"/><stop offset=".677" stop-color="#FDE5A8" stop-opacity=".7"/><stop offset="1" stop-color="#FDE5A8" stop-opacity="0"/></linearGradient><linearGradient id="0paint2_linear_42_122" x1="177" x2="177" y1="46" y2="54" gradientUnits="userSpaceOnUse"><stop stop-color="#FDE5A8"/><stop offset=".677" stop-color="#FDE5A8" stop-opacity=".7"/><stop offset="1" stop-color="#FDE5A8" stop-opacity="0"/></linearGradient><linearGradient id="0paint3_linear_42_122" x1="81" x2="81" y1="46" y2="54" gradientUnits="userSpaceOnUse"><stop stop-color="#FDE5A8"/><stop offset=".677" stop-color="#FDE5A8" stop-opacity=".7"/><stop offset="1" stop-color="#FDE5A8" stop-opacity="0"/></linearGradient><linearGradient id="0paint4_linear_42_122" x1="199" x2="199" y1="63" y2="71" gradientUnits="userSpaceOnUse"><stop stop-color="#FDE5A8"/><stop offset=".677" stop-color="#FDE5A8" stop-opacity=".7"/><stop offset="1" stop-color="#FDE5A8" stop-opacity="0"/></linearGradient><linearGradient id="0paint5_linear_42_122" x1="59" x2="59" y1="63" y2="71" gradientUnits="userSpaceOnUse"><stop stop-color="#FDE5A8"/><stop offset=".677" stop-color="#FDE5A8" stop-opacity=".7"/><stop offset="1" stop-color="#FDE5A8" stop-opacity="0"/></linearGradient><linearGradient id="0paint6_linear_42_122" x1="103" x2="103" y1="29" y2="37" gradientUnits="userSpaceOnUse"><stop stop-color="#FDE5A8"/><stop offset=".677" stop-color="#FDE5A8" stop-opacity=".7"/><stop offset="1" stop-color="#FDE5A8" stop-opacity="0"/></linearGradient></defs></svg>