<svg width="16" height="16" viewBox="0 0 16 16" fill="none" xmlns="http://www.w3.org/2000/svg">
<g clip-path="url(#clip0_60_101)">
<path d="M9.43379 7.87735L4.88328 7.05038L7.87471 3.52301L9.43379 7.87735Z" fill="#435A4E"/>
<path d="M7.88886 6.56717L3.33836 5.7402L6.32979 2.21283L7.88886 6.56717Z" fill="#435A4E"/>
<path d="M2.76243 2.21967L3.99894 5.67311L6.37146 2.87554L2.76243 2.21967Z" fill="#435A4E"/>
<path d="M9.17516 8.37653L6.18373 11.9039L4.62465 7.54956L9.17516 8.37653Z" fill="#435A4E"/>
<path d="M7.26805 9.05939L4.27663 12.5868L2.71755 8.23242L7.26805 9.05939Z" fill="#435A4E"/>
<path d="M0.939852 11.3253L4.54888 11.9811L3.31236 8.5277L0.939852 11.3253Z" fill="#435A4E"/>
<circle cx="9.85001" cy="10.3818" r="1.3319" transform="rotate(-13.0182 9.85001 10.3818)" fill="#B13434"/>
<circle cx="11.1778" cy="7.94576" r="1.3319" transform="rotate(-13.0182 11.1778 7.94576)" fill="#B13434"/>
<circle cx="12.6892" cy="10.3641" r="1.3319" transform="rotate(-13.0182 12.6892 10.3641)" fill="#B13434"/>
</g>
<defs>
<clipPath id="clip0_60_101">
<rect width="16" height="16" fill="white"/>
</clipPath>
</defs>
</svg>
