<svg width="16" height="16" viewBox="0 0 16 16" fill="none" xmlns="http://www.w3.org/2000/svg"><g clip-path="url(#clip0_60_101)"><path d="M9.434 7.877l-4.55-.827 2.99-3.527 1.56 4.354z" fill="#435A4E"/><path d="M7.889 6.567l-4.55-.827 2.99-3.527 1.56 4.354zM2.762 2.22L4 5.673l2.37-2.797-3.608-.656zm6.413 6.157l-2.991 3.527-1.56-4.354 4.551.827z" fill="#435A4E"/><path d="M7.268 9.06l-2.991 3.527-1.56-4.355 4.551.827z" fill="#435A4E"/><path d="M.94 11.325l3.609.656-1.237-3.453L.94 11.325z" fill="#435A4E"/><circle cx="9.85" cy="10.382" r="1.332" transform="rotate(-13.018 9.85 10.382)" fill="#B13434"/><circle cx="11.178" cy="7.946" r="1.332" transform="rotate(-13.018 11.178 7.946)" fill="#B13434"/><circle cx="12.689" cy="10.364" r="1.332" transform="rotate(-13.018 12.69 10.364)" fill="#B13434"/></g><defs><clipPath id="clip0_60_101"><path fill="#fff" d="M0 0h16v16H0z"/></clipPath></defs></svg>