<svg xmlns="http://www.w3.org/2000/svg" width="669" height="210" fill="none" viewBox="0 0 669 210"><path fill="#FDE5A8" d="M81 92.972v-.591h9.263v.59zM84.43 100.664l-.417-.418 6.55-6.55.417.418zM84.013 85.107l.418-.418 6.55 6.55-.418.418zM91.705 81.677h.591v9.263h-.591zM93.737 92.971v-.59H103v.59zM93.437 91.657l-.418-.418 6.55-6.55.418.418zM93.02 94.114l.417-.418 6.55 6.55-.418.418zM91.705 94.413h.591v9.263h-.591zM612 31.972v-.591h9.263v.59zM615.431 39.663l-.418-.417 6.55-6.55.418.418zM615.013 24.107l.418-.418 6.55 6.55-.418.418zM622.705 20.677h.591v9.263h-.591zM624.737 31.972v-.591H634v.59zM624.437 30.657l-.418-.418 6.55-6.55.418.418zM624.02 33.114l.417-.418 6.55 6.55-.418.418zM622.705 33.413h.591v9.263h-.591zM0 57.972v-.591h9.263v.59zM3.43 65.663l-.417-.418 6.55-6.55.418.418zM3.013 50.107l.418-.418 6.55 6.55-.418.418zM10.705 46.677h.591v9.263h-.591zM12.737 57.972v-.591H22v.59zM12.437 56.657l-.418-.418 6.55-6.55.418.418zM12.02 59.114l.417-.418 6.55 6.55-.418.418zM10.705 59.413h.591v9.263h-.591zM152 30.972v-.591h9.263v.59zM155.431 38.663l-.418-.417 6.55-6.55.418.418zM155.013 23.107l.418-.418 6.55 6.55-.418.418zM162.705 19.677h.591v9.263h-.591zM164.737 30.972v-.591H174v.59zM164.437 29.657l-.418-.418 6.55-6.55.418.418zM164.02 32.114l.417-.418 6.55 6.55-.418.418zM162.705 32.413h.591v9.263h-.591zM428 35.972v-.591h9.263v.59zM431.431 43.663l-.418-.417 6.55-6.55.418.418zM431.013 28.107l.418-.418 6.55 6.55-.418.418zM438.705 24.677h.591v9.263h-.591zM440.737 35.972v-.591H450v.59zM440.437 34.657l-.418-.418 6.55-6.55.418.418zM440.02 37.114l.417-.418 6.55 6.55-.418.418zM438.705 37.413h.591v9.263h-.591zM498 188.972v-.591h9.263v.591zM501.431 196.664l-.418-.418 6.55-6.55.418.418zM501.013 181.107l.418-.418 6.55 6.55-.418.418zM508.705 177.677h.591v9.263h-.591zM510.737 188.972v-.591H520v.591zM510.437 187.657l-.418-.418 6.55-6.55.418.418zM510.019 190.114l.418-.418 6.55 6.55-.418.418zM508.705 190.413h.591v9.263h-.591zM227 69.972v-.591h9.263v.59zM230.431 77.663l-.418-.417 6.55-6.55.418.418zM230.013 62.107l.418-.418 6.55 6.55-.418.418zM237.705 58.677h.591v9.263h-.591zM239.737 69.972v-.591H249v.59zM239.437 68.657l-.418-.418 6.55-6.55.418.418zM239.02 71.114l.417-.418 6.55 6.55-.418.418zM237.705 71.413h.591v9.263h-.591zM506 71.972v-.591h9.263v.59zM509.431 79.663l-.418-.417 6.55-6.55.418.418zM509.013 64.107l.418-.418 6.55 6.55-.418.418zM516.705 60.677h.591v9.263h-.591zM518.737 71.972v-.591H528v.59zM518.437 70.657l-.418-.418 6.55-6.55.418.418zM518.02 73.114l.417-.418 6.55 6.55-.418.418zM516.705 73.413h.591v9.263h-.591zM23 33.646v-.939h14.737v.94zM28.458 45.883l-.664-.664 10.42-10.42.664.664zM27.793 21.134l.664-.664 10.42 10.421-.663.664zM40.03 15.677h.939v14.737h-.939zM43.263 33.646v-.939H58v.94zM42.786 31.555l-.664-.664 10.42-10.42.665.663zM42.122 35.463l.664-.664 10.42 10.42-.663.664zM40.03 35.94h.939v14.737h-.939zM534 108.646v-.939h14.737v.939zM539.458 120.883l-.664-.664 10.42-10.42.665.663zM538.793 96.134l.664-.664 10.42 10.42-.664.665zM551.03 90.677h.939v14.737h-.939zM554.263 108.646v-.939H569v.939zM553.786 106.555l-.664-.664 10.42-10.42.665.663zM553.122 110.463l.664-.664 10.42 10.42-.663.665zM551.03 110.94h.939v14.737h-.939zM134 84.297v-.242h3.789v.242zM135.403 87.444l-.171-.17 2.679-2.68.171.17zM135.233 81.08l.171-.171 2.68 2.68-.172.17zM138.379 79.677h.242v3.789h-.242zM139.21 84.297v-.242h3.789v.242zM139.088 83.76l-.17-.172 2.678-2.679.172.171zM138.917 84.764l.17-.171 2.68 2.68-.171.17zM138.379 84.887h.242v3.789h-.242zM254 122.297v-.242h3.789v.242zM255.403 125.444l-.171-.171 2.68-2.68.17.172zM255.233 119.08l.171-.171 2.68 2.68-.172.17zM258.379 117.677h.242v3.789h-.242zM259.21 122.297v-.242h3.789v.242zM259.088 121.76l-.171-.171 2.68-2.68.17.172zM258.917 122.765l.171-.171 2.68 2.68-.172.17zM258.379 122.887h.242v3.789h-.242zM72 201.405v-.456h7.158v.456zM74.651 207.349l-.322-.322 5.061-5.062.322.323zM74.328 195.327l.322-.322 5.062 5.061-.323.323zM80.272 192.677h.456v7.158h-.456zM81.842 201.405v-.456H89v.456zM81.61 200.389l-.322-.323 5.061-5.061.323.322zM81.288 202.287l.322-.323 5.062 5.062-.323.322zM80.272 202.519h.456v7.158h-.456zM103 33.297v-.242h3.789v.242zM104.403 36.444l-.171-.17 2.679-2.68.171.17zM104.233 30.08l.171-.171 2.68 2.68-.172.17zM107.379 28.677h.242v3.789h-.242zM108.21 33.297v-.242h3.789v.242zM108.088 32.76l-.17-.172 2.678-2.679.172.171zM107.917 33.764l.17-.171 2.68 2.68-.171.17zM107.379 33.887h.242v3.789h-.242zM311 155.297v-.242h3.789v.242zM312.403 158.444l-.171-.171 2.68-2.68.17.172zM312.233 152.08l.171-.171 2.68 2.68-.172.17zM315.379 150.677h.242v3.789h-.242zM316.21 155.297v-.242h3.789v.242zM316.088 154.76l-.171-.171 2.68-2.68.17.172zM315.917 155.765l.171-.171 2.68 2.68-.172.17zM315.379 155.887h.242v3.789h-.242zM391 100.297v-.242h3.789v.242zM392.403 103.444l-.171-.171 2.68-2.68.17.172zM392.233 97.08l.171-.171 2.68 2.68-.172.17zM395.379 95.677h.242v3.789h-.242zM396.21 100.297v-.242h3.789v.242zM396.088 99.76l-.17-.172 2.678-2.679.172.171zM395.917 100.765l.171-.171 2.68 2.68-.172.17zM395.379 100.887h.242v3.789h-.242zM398 24.297v-.242h3.789v.242zM399.403 27.444l-.171-.17 2.679-2.68.171.17zM399.233 21.08l.171-.171 2.68 2.68-.172.17zM402.379 19.677h.242v3.789h-.242zM403.21 24.297v-.242h3.789v.242zM403.088 23.76l-.17-.172 2.678-2.679.172.171zM402.917 24.765l.171-.171 2.68 2.679-.171.171zM402.379 24.887h.242v3.789h-.242zM200 39.297v-.242h3.789v.242zM201.403 42.444l-.171-.17 2.679-2.68.171.17zM201.233 36.08l.171-.171 2.68 2.68-.172.17zM204.379 34.677h.242v3.789h-.242zM205.21 39.297v-.242h3.789v.242zM205.088 38.76l-.17-.172 2.678-2.679.172.171zM204.917 39.764l.17-.171 2.68 2.68-.171.17zM204.379 39.887h.242v3.789h-.242zM453 140.297v-.242h3.789v.242zM454.403 143.444l-.171-.171 2.68-2.68.17.172zM454.233 137.08l.171-.171 2.68 2.68-.172.17zM457.379 135.677h.242v3.789h-.242zM458.21 140.297v-.242h3.789v.242zM458.088 139.76l-.171-.171 2.68-2.68.17.172zM457.917 140.765l.171-.171 2.68 2.68-.172.17zM457.379 140.887h.242v3.789h-.242zM660 51.297v-.242h3.789v.242zM661.404 54.444l-.171-.17 2.679-2.68.171.17zM661.233 48.08l.171-.171 2.68 2.68-.172.17zM664.379 46.677h.242v3.789h-.242zM665.21 51.297v-.242h3.789v.242zM665.088 50.76l-.17-.172 2.678-2.679.172.171zM664.917 51.764l.17-.171 2.68 2.68-.171.17zM664.379 51.887h.242v3.789h-.242zM50 130.297v-.242h3.789v.242zM51.404 133.444l-.171-.17 2.679-2.68.17.171zM51.233 127.08l.171-.171 2.68 2.679-.172.17zM54.379 125.677h.242v3.789h-.242zM55.21 130.297v-.242H59v.242zM55.088 129.76l-.171-.171 2.679-2.68.171.172zM54.917 130.765l.171-.171 2.68 2.68-.172.17zM54.379 130.887h.242v3.789h-.242zM116 144.297v-.242h3.789v.242zM117.403 147.444l-.171-.171 2.68-2.68.17.172zM117.233 141.08l.171-.171 2.68 2.68-.172.17zM120.379 139.677h.242v3.789h-.242zM121.21 144.297v-.242h3.789v.242zM121.088 143.76l-.171-.171 2.68-2.68.17.172zM120.917 144.765l.171-.171 2.68 2.68-.172.17zM120.379 144.887h.242v3.789h-.242zM174 133.864v-.376h5.895v.376zM176.183 138.759l-.266-.266 4.169-4.168.265.266zM175.917 128.86l.266-.266 4.168 4.169-.266.265zM180.812 126.677h.376v5.895h-.376zM182.105 133.864v-.376H188v.376zM181.914 133.028l-.266-.266 4.169-4.168.265.266zM181.649 134.591l.266-.266 4.168 4.169-.266.265zM180.812 134.782h.376v5.895h-.376zM607 82.864v-.376h5.895v.376zM609.183 87.76l-.266-.266 4.168-4.169.266.266zM608.917 77.86l.266-.266 4.168 4.168-.265.266zM613.812 75.677h.376v5.895h-.376zM615.105 82.864v-.376H621v.376zM614.915 82.028l-.266-.266 4.169-4.168.265.265zM614.649 83.591l.266-.266 4.168 4.169-.266.265zM613.812 83.782h.376v5.895h-.376zM362 140.918v-.483h7.579v.483zM364.807 147.211l-.342-.342 5.36-5.359.341.342zM364.465 134.483l.342-.342 5.359 5.36-.342.341zM370.759 131.677h.483v7.579h-.483zM372.421 140.918v-.483H380v.483zM372.176 139.843l-.342-.342 5.36-5.359.341.342zM371.834 141.852l.342-.342 5.359 5.36-.342.341zM370.759 142.098h.483v7.579h-.483zM345 74.864v-.376h5.895v.376zM347.183 79.76l-.266-.266 4.168-4.169.266.266zM346.917 69.86l.266-.266 4.168 4.168-.265.266zM351.812 67.677h.376v5.895h-.376zM353.105 74.864v-.376H359v.376zM352.914 74.028l-.266-.266 4.169-4.168.265.265zM352.649 75.591l.266-.266 4.168 4.169-.266.265zM351.812 75.782h.376v5.895h-.376zM452 101.945v-.537h8.421v.537zM455.119 108.938l-.38-.38 5.955-5.954.38.38zM454.739 94.795l.38-.38 5.954 5.955-.38.38zM461.732 91.677h.537v8.421h-.537zM463.579 101.945v-.537H472v.537zM463.306 100.75l-.38-.38 5.955-5.954.38.38zM462.927 102.983l.38-.38 5.954 5.955-.38.38zM461.732 103.256h.537v8.421h-.537zM283 124.593v-.832h13.053v.832zM287.834 135.431l-.588-.588 9.23-9.23.588.588zM287.245 113.51l.588-.588 9.23 9.23-.588.588zM298.084 108.677h.832v13.053h-.832zM300.947 124.593v-.832H314v.832zM300.525 122.74l-.588-.588 9.23-9.23.588.588zM299.936 126.202l.588-.588 9.23 9.23-.588.588zM298.084 126.624h.832v13.053h-.832z"/><circle cx="43.5" cy="93.177" r="3" stroke="#FDE5A8"/><circle cx="283.5" cy="47.177" r="3" stroke="#FDE5A8"/><circle cx="472.5" cy="26.177" r="3" stroke="#FDE5A8"/><circle cx="210.5" cy="116.177" r="3" stroke="#FDE5A8"/><circle cx="268.5" cy="142.177" r="4" stroke="#FDE5A8"/><circle cx="432.5" cy="115.177" r="3" stroke="#FDE5A8"/><circle cx="582.5" cy="37.177" r="3" stroke="#FDE5A8"/><circle cx="497" cy="144.677" r="5.5" stroke="#FDE5A8"/><circle cx="75.5" cy="175.177" r="2" stroke="#FDE5A8"/><circle cx="131" cy="39.677" r="5.5" stroke="#FDE5A8"/><circle cx="361.5" cy="36.177" r="9" stroke="#FDE5A8"/><path fill="#FDE5A8" d="m172.75 50.677.591 8.526 6.333.59-6.333.76-.591 9.624-.675-9.624-6.249-.76 6.249-.59.675-8.526ZM406.875 48.552l.356 5.137 3.816.356-3.816.458-.356 5.799-.407-5.8-3.765-.457 3.765-.356.407-5.137ZM218.875 134.677l.356 5.137 3.816.356-3.816.458-.356 5.799-.407-5.799-3.765-.458 3.765-.356.407-5.137ZM311.875 28.677l.356 5.137 3.816.356-3.816.458-.356 5.799-.407-5.8-3.765-.457 3.765-.356.407-5.137ZM58.875 156.677l.356 5.137 3.816.356-3.816.458-.356 5.799-.407-5.799-3.765-.458 3.765-.356.407-5.137ZM346.875 120.677l.356 5.137 3.816.356-3.816.458-.356 5.799-.407-5.799-3.765-.458 3.765-.356.407-5.137ZM574.875 61.677l.356 5.137 3.816.356-3.816.458-.356 5.799-.407-5.8-3.765-.457 3.765-.356.407-5.137ZM530.875 149.677l.356 5.137 3.816.356-3.816.458-.356 5.799-.407-5.799-3.765-.458 3.765-.356.407-5.137ZM88.875 18.677l.356 5.137 3.816.356-3.816.458-.356 5.799-.407-5.8-3.765-.457 3.765-.356.407-5.137ZM490.75 105.677l.591 8.526 6.333.591-6.333.759-.591 9.624-.675-9.624-6.249-.759 6.249-.591.675-8.526ZM138.875 101.552l.841 12.133 9.013.841-9.013 1.081-.841 13.695-.961-13.695-8.893-1.081 8.893-.841.961-12.133ZM293.875 62.677l.841 12.133 9.013.84-9.013 1.082-.841 13.695-.961-13.695-8.893-1.081 8.893-.841.961-12.133ZM85.176 116.677l1.707 24.638 18.302 1.708-18.302 2.195-1.707 27.81-1.952-27.81-18.058-2.195 18.058-1.708 1.952-24.638ZM248.156 10.179l1.333 19.229 14.283 1.332-14.283 1.714-1.333 21.703-1.523-21.703-14.092-1.714 14.092-1.332 1.523-19.229ZM411.677 121.677l.768 11.085 8.234.768-8.234.988-.768 12.512-.878-12.512-8.125-.988 8.125-.768.878-11.085ZM543.677 0l1.637 23.623 17.548 1.638-17.548 2.105-1.637 26.664-1.872-26.664-17.314-2.105 17.314-1.637L543.677 0ZM60.875 57.677l.84 12.133 9.014.84-9.013 1.082-.841 13.695-.961-13.695-8.893-1.081 8.893-.841.961-12.133Z"/></svg>