<?xml version="1.0" encoding="utf-8"?><svg viewBox="0 0 100 100" xmlns="http://www.w3.org/2000/svg" xmlns:xlink="http://www.w3.org/1999/xlink"><style>:root>svg{display:none}:root>svg:target{display:block}</style><svg fill="none" viewBox="0 0 100 100" id="1" xmlns="http://www.w3.org/2000/svg"><g clip-path="url(#aclip0_58_56)"><path d="M79-2l19.919 91.5H59.08L79-2z" fill="#282536"/><path d="M20.442-3l4.779.578L30-1.844 28.458 8.13a14.996 14.996 0 00-.038 4.324L29.862 23h-8.255L19.5 13.197a15 15 0 01-.255-4.702L20.443-3z" fill="url(#apaint0_linear_58_56)"/><path fill="#403C54" d="M19 45h63v49H19z"/><path d="M50 5l43.301 48.75H6.7L50 5z" fill="#403C54"/><path fill="#403C54" d="M20 20h10v23H20z"/><path d="M46.548 48v-.456l.936-.288c.608-.192.92-.592.936-1.2V34.632l-1.992.264v-.552c.896-.16 1.768-.392 2.616-.696a15.6 15.6 0 002.448-1.152l.288.24-.096 3.432v8.28c.016.544.024 1.072.024 1.584 0 .624.304 1.032.912 1.224l.984.288V48h-7.056z" fill="#fff"/><path d="M49.5 6l-42 46.5M50 6l44 47" stroke="#fff" stroke-width="3" stroke-linecap="round"/><path fill="#282536" d="M45 72h11v22H45z"/><path fill="#403C54" d="M54 83h1v2h-1z"/><path fill="#FDE5A8" d="M28 59h5.909v6.923H28zm7.091 0H41v6.923h-5.909zm0 8.077H41V74h-5.909zm-7.091 0h5.909V74H28zM60 59h5.909v6.923H60zm7.091 0H73v6.923h-5.909zm0 8.077H73V74h-5.909zm-7.091 0h5.909V74H60z"/><path d="M16 95c.519-4.408 4.926-7.25 9.156-5.905L28 90l2.77-1.154C35.16 87.016 40 90.243 40 95H16z" fill="#fff"/><circle cx="50.5" cy="78.5" r="2.5" stroke="#435A4E" stroke-width="2"/><circle cx="50.5" cy="81.5" r=".5" fill="#B13434"/><circle cx="51.5" cy="80.5" r=".5" fill="#B13434"/><circle cx="49.5" cy="80.5" r=".5" fill="#B13434"/><path stroke="#403C54" stroke-width="2" stroke-linecap="round" d="M20 20h10"/></g><defs><linearGradient id="apaint0_linear_58_56" x1="23.7" y1="-3" x2="23.7" y2="23" gradientUnits="userSpaceOnUse"><stop offset=".031" stop-color="#D9D9D9" stop-opacity="0"/><stop offset=".994" stop-color="#fff"/></linearGradient><clipPath id="aclip0_58_56"><path fill="#fff" d="M0 0h100v100H0z"/></clipPath></defs></svg><svg fill="none" viewBox="0 0 16 16" id="favicon" xmlns="http://www.w3.org/2000/svg"><g clip-path="url(#bclip0_60_101)"><path d="M9.434 7.877l-4.55-.827 2.99-3.527 1.56 4.354z" fill="#435A4E"/><path d="M7.889 6.567l-4.55-.827 2.99-3.527 1.56 4.354zM2.762 2.22L4 5.673l2.37-2.797-3.608-.656zm6.413 6.157l-2.991 3.527-1.56-4.354 4.551.827z" fill="#435A4E"/><path d="M7.268 9.06l-2.991 3.527-1.56-4.355 4.551.827z" fill="#435A4E"/><path d="M.94 11.325l3.609.656-1.237-3.453L.94 11.325z" fill="#435A4E"/><circle cx="9.85" cy="10.382" r="1.332" transform="rotate(-13.018 9.85 10.382)" fill="#B13434"/><circle cx="11.178" cy="7.946" r="1.332" transform="rotate(-13.018 11.178 7.946)" fill="#B13434"/><circle cx="12.689" cy="10.364" r="1.332" transform="rotate(-13.018 12.69 10.364)" fill="#B13434"/></g><defs><clipPath id="bclip0_60_101"><path fill="#fff" d="M0 0h16v16H0z"/></clipPath></defs></svg></svg>