<svg xmlns="http://www.w3.org/2000/svg" xmlns:xlink="http://www.w3.org/1999/xlink" width="100" height="100" fill="none" viewBox="0 0 100 100">
    <defs>
        <path id="19reuse-0" fill="#fff" d="M25 20h37l21 31H47L25 20Z"/>
    </defs>
    <g clip-path="url(#19clip0_82_518)">
        <ellipse fill="#282536" fill-opacity=".6" rx="24.5" ry="27.139" transform="matrix(-1 0 0 1 72.5 49.861)"/>
        <circle r="1.885" fill="url(#19paint0_linear_82_518)" fill-opacity=".8" transform="matrix(1 0 0 -1 92.854 54.761)"/>
        <circle r="1.885" fill="url(#19paint1_linear_82_518)" fill-opacity=".8" transform="matrix(1 0 0 -1 87.577 49.484)"/>
        <circle r="1.885" fill="url(#19paint2_linear_82_518)" fill-opacity=".8" transform="matrix(1 0 0 -1 82.3 41.946)"/>
        <circle r="1.885" fill="url(#19paint3_linear_82_518)" fill-opacity=".8" transform="matrix(1 0 0 -1 87.577 62.3)"/>
        <circle r="1.885" fill="url(#19paint4_linear_82_518)" fill-opacity=".8" transform="matrix(1 0 0 -1 83.054 54.761)"/>
        <circle r="1.885" fill="url(#19paint5_linear_82_518)" fill-opacity=".8" transform="matrix(1 0 0 -1 91.346 42.7)"/>
        <circle r="1.885" fill="url(#19paint6_linear_82_518)" fill-opacity=".8" transform="matrix(1 0 0 -1 87.577 34.408)"/>
        <circle r="1.885" fill="url(#19paint7_linear_82_518)" fill-opacity=".8" transform="matrix(1 0 0 -1 79.284 29.884)"/>
        <circle r="1.885" fill="url(#19paint8_linear_82_518)" fill-opacity=".8" transform="matrix(1 0 0 -1 69.885 28.885)"/>
        <circle r="1.885" fill="url(#19paint9_linear_82_518)" fill-opacity=".8" transform="matrix(1 0 0 -1 73.885 34.885)"/>
        <path fill="#282536" d="M82 69h-2v22h2zM85 69h-2v22h2zM88 69h-2v22h2zM91 69h-2v22h2zM94 69h-2v22h2z"/>
        <path fill="#282536" d="M80 87v2h17v-2zM80 72v2h17v-2z"/>
        <path fill="#282536" d="M97 69h-2v22h2z"/>
        <path fill="#403C54" d="M5 51h78v43H5z"/>
        <path fill="#403C54" d="m24.5 20 22.084 33H2.416L24.5 20Z"/>
        <path stroke="#282536" stroke-opacity=".6" d="M47.5 52v42M48 55.5h35M48 57.5h35M5 90.5h78"/>
        <path stroke="#fff" stroke-linecap="round" stroke-width="3" d="M25 20 3 52M62 20l23 32"/>
        <path stroke="#322E42" stroke-width="2" d="M57 73c0-5.523 4.477-10 10-10s10 4.477 10 10v20H57V73Z"/>
        <path fill="#282536" d="M60 73a7 7 0 1 1 14 0v21H60V73Z"/>
        <path fill="url(#19paint10_linear_82_518)" d="m46.524-2 1.738.333L50-1.333l-.549 5.629c-.089.912-.094 1.83-.015 2.743L49.95 13h-3.002l-.746-5.508a15.007 15.007 0 0 1-.104-2.994L46.524-2Z"/>
        <path fill="#403C54" d="M46 13h5v11h-5z"/>
        <use xlink:href="#19reuse-0"/>
        <mask id="19mask0_82_518" width="58" height="31" x="25" y="20" maskUnits="userSpaceOnUse" style="mask-type:alpha">
            <use xlink:href="#19reuse-0"/>
        </mask>
        <g stroke="#282536" stroke-opacity=".05" mask="url(#19mask0_82_518)">
            <path d="M33 48.5h56M31 45.5h56M29 42.5h56M27 39.5h56M25 36.5h56M23 33.5h56M21 30.5h56M19 27.5h56M17 24.5h56M15 21.5h56"/>
        </g>
        <path stroke="#fff" stroke-linecap="round" stroke-width="3" d="m25 20 23 32"/>
        <path fill="#fff" d="M14.72 56v-.456l.935-.288c.608-.192.92-.592.936-1.2V42.632l-1.992.264v-.552c.896-.16 1.768-.392 2.616-.696a15.6 15.6 0 0 0 2.448-1.152l.288.24-.096 3.432v8.28c.016.544.024 1.072.024 1.584 0 .624.304 1.032.912 1.224l.984.288V56H14.72Zm19.48-9.216c0 1.616-.368 3.088-1.104 4.416-.736 1.328-1.816 2.448-3.24 3.36-1.424.896-3.176 1.536-5.256 1.92l-.168-.624c1.392-.352 2.52-.816 3.384-1.392.88-.576 1.552-1.288 2.016-2.136.464-.848.776-1.856.936-3.024-.368.24-.8.432-1.296.576a6.45 6.45 0 0 1-1.656.192c-.88 0-1.68-.176-2.4-.528a4.17 4.17 0 0 1-1.704-1.584c-.416-.688-.624-1.52-.624-2.496 0-1.04.248-1.936.744-2.688a5.036 5.036 0 0 1 1.992-1.752 6.181 6.181 0 0 1 2.76-.624c1.808 0 3.192.568 4.152 1.704.976 1.136 1.464 2.696 1.464 4.68Zm-7.872-1.632c0 1.376.208 2.376.624 3 .416.624 1.08.936 1.992.936.72 0 1.352-.144 1.896-.432.048-.592.072-1.24.072-1.944 0-1.424-.08-2.544-.24-3.36-.144-.816-.384-1.392-.72-1.728-.336-.352-.784-.528-1.344-.528-.736 0-1.304.32-1.704.96-.384.624-.576 1.656-.576 3.096Z"/>
        <circle cx="67.5" cy="74.5" r="2.5" stroke="#435A4E" stroke-width="2"/>
        <circle cx="67.5" cy="77.5" r=".5" fill="#B13434"/>
        <circle cx="68.5" cy="76.5" r=".5" fill="#B13434"/>
        <circle cx="66.5" cy="76.5" r=".5" fill="#B13434"/>
        <path fill="#403C54" d="M71 81h2v1h-2z"/>
        <path fill="#435A4E" d="m27.857 84.782 2.68.487-1.762 2.076-.918-2.563Z"/>
        <path fill="#435A4E" d="m28.767 85.553 2.68.487-1.762 2.077-.918-2.564Z"/>
        <path fill="#435A4E" d="m31.785 88.113-.728-2.033-1.397 1.647 2.125.386ZM28.01 84.488l1.76-2.077.919 2.564-2.68-.487Z"/>
        <path fill="#435A4E" d="m29.132 84.086 1.762-2.077.917 2.564-2.679-.487Z"/>
        <path fill="#435A4E" d="m32.858 82.752-2.125-.386.728 2.033 1.397-1.647Z"/>
        <circle cx="27.612" cy="83.308" r=".784" fill="#B13434" transform="rotate(166.982 27.612 83.308)"/>
        <circle cx="26.831" cy="84.742" r=".784" fill="#B13434" transform="rotate(166.982 26.83 84.742)"/>
        <circle cx="25.941" cy="83.318" r=".784" fill="#B13434" transform="rotate(166.982 25.94 83.318)"/>
        <path fill="#435A4E" d="m20.143 84.782-2.68.487 1.762 2.076.918-2.563Z"/>
        <path fill="#435A4E" d="m19.233 85.553-2.68.487 1.762 2.077.918-2.564Z"/>
        <path fill="#435A4E" d="m16.215 88.113.728-2.033 1.397 1.647-2.125.386ZM19.99 84.488l-1.76-2.077-.919 2.564 2.68-.487Z"/>
        <path fill="#435A4E" d="m18.868 84.086-1.762-2.077-.917 2.564 2.679-.487Z"/>
        <path fill="#435A4E" d="m15.142 82.752 2.125-.386-.728 2.033-1.397-1.647Z"/>
        <circle r=".784" fill="#B13434" transform="scale(1 -1) rotate(-13.018 -354.883 -130.998)"/>
        <circle r=".784" fill="#B13434" transform="scale(1 -1) rotate(-13.018 -360.776 -135.14)"/>
        <circle r=".784" fill="#B13434" transform="scale(1 -1) rotate(-13.018 -354.092 -138.329)"/>
        <path fill="#fff" d="M55 51h1v.25L55.5 53l-.5-1.75V51ZM52 51h2v1.125L53 60l-1-7.875V51ZM49 51h3v.75L50.5 57 49 51.75V51ZM54 51h1v.125l-.5.875-.5-.875V51Z"/>
        <path fill="#fff" d="M51 51h1v.5l-.5 3.5-.5-3.5V51ZM37.983 94.253C37.753 84.35 51.164 81.094 55.5 90l.258-.144C59.68 87.678 64.5 90.513 64.5 95H38l-.017-.747Z"/>
        <path fill="#282536" d="M13 60h22v19H13z"/>
        <path fill="#403C54" d="M13.733 60.559h20.534V78.44H13.733V60.56Z"/>
        <path fill="currentColor" d="M14.467 61.118h8.667v7.738h-8.667zM24.866 61.118h8.667v7.738h-8.667zM24.866 70.145h8.667v7.738h-8.667zM14.467 70.145h8.667v7.738h-8.667z"/>
        <path fill="#fff" d="M16.235 78.5c.423-.625 1.129-1 1.884-1H21.5l3.292.116a1.72 1.72 0 0 1 1.443.884h-10Z"/>
        <path fill="url(#19paint11_linear_82_518)" d="M68.8 63h-3.12L61 84.5h13L68.8 63Z"/>
        <path fill="#282536" d="M67.32 64a2 2 0 0 0 2-2h-4.16a2 2 0 0 0 2 2h.16Z"/>
    </g>
    <defs>
        <linearGradient id="19paint0_linear_82_518" x1="1.885" x2="1.885" y1="0" y2="3.769" gradientUnits="userSpaceOnUse">
            <stop stop-color="#FDE5A8"/>
            <stop offset=".677" stop-color="#FDE5A8" stop-opacity=".7"/>
            <stop offset="1" stop-color="#FDE5A8" stop-opacity="0"/>
        </linearGradient>
        <linearGradient id="19paint1_linear_82_518" x1="1.885" x2="1.885" y1="0" y2="3.769" gradientUnits="userSpaceOnUse">
            <stop stop-color="#FDE5A8"/>
            <stop offset=".677" stop-color="#FDE5A8" stop-opacity=".7"/>
            <stop offset="1" stop-color="#FDE5A8" stop-opacity="0"/>
        </linearGradient>
        <linearGradient id="19paint2_linear_82_518" x1="1.885" x2="1.885" y1="0" y2="3.769" gradientUnits="userSpaceOnUse">
            <stop stop-color="#FDE5A8"/>
            <stop offset=".677" stop-color="#FDE5A8" stop-opacity=".7"/>
            <stop offset="1" stop-color="#FDE5A8" stop-opacity="0"/>
        </linearGradient>
        <linearGradient id="19paint3_linear_82_518" x1="1.885" x2="1.885" y1="0" y2="3.769" gradientUnits="userSpaceOnUse">
            <stop stop-color="#FDE5A8"/>
            <stop offset=".677" stop-color="#FDE5A8" stop-opacity=".7"/>
            <stop offset="1" stop-color="#FDE5A8" stop-opacity="0"/>
        </linearGradient>
        <linearGradient id="19paint4_linear_82_518" x1="1.885" x2="1.885" y1="0" y2="3.769" gradientUnits="userSpaceOnUse">
            <stop stop-color="#FDE5A8"/>
            <stop offset=".677" stop-color="#FDE5A8" stop-opacity=".7"/>
            <stop offset="1" stop-color="#FDE5A8" stop-opacity="0"/>
        </linearGradient>
        <linearGradient id="19paint5_linear_82_518" x1="1.885" x2="1.885" y1="0" y2="3.769" gradientUnits="userSpaceOnUse">
            <stop stop-color="#FDE5A8"/>
            <stop offset=".677" stop-color="#FDE5A8" stop-opacity=".7"/>
            <stop offset="1" stop-color="#FDE5A8" stop-opacity="0"/>
        </linearGradient>
        <linearGradient id="19paint6_linear_82_518" x1="1.885" x2="1.885" y1="0" y2="3.769" gradientUnits="userSpaceOnUse">
            <stop stop-color="#FDE5A8"/>
            <stop offset=".677" stop-color="#FDE5A8" stop-opacity=".7"/>
            <stop offset="1" stop-color="#FDE5A8" stop-opacity="0"/>
        </linearGradient>
        <linearGradient id="19paint7_linear_82_518" x1="1.885" x2="1.885" y1="0" y2="3.769" gradientUnits="userSpaceOnUse">
            <stop stop-color="#FDE5A8"/>
            <stop offset=".677" stop-color="#FDE5A8" stop-opacity=".7"/>
            <stop offset="1" stop-color="#FDE5A8" stop-opacity="0"/>
        </linearGradient>
        <linearGradient id="19paint8_linear_82_518" x1="1.885" x2="1.885" y1="0" y2="3.769" gradientUnits="userSpaceOnUse">
            <stop stop-color="#FDE5A8"/>
            <stop offset=".677" stop-color="#FDE5A8" stop-opacity=".7"/>
            <stop offset="1" stop-color="#FDE5A8" stop-opacity="0"/>
        </linearGradient>
        <linearGradient id="19paint9_linear_82_518" x1="1.885" x2="1.885" y1="0" y2="3.769" gradientUnits="userSpaceOnUse">
            <stop stop-color="#FDE5A8"/>
            <stop offset=".677" stop-color="#FDE5A8" stop-opacity=".7"/>
            <stop offset="1" stop-color="#FDE5A8" stop-opacity="0"/>
        </linearGradient>
        <linearGradient id="19paint10_linear_82_518" x1="47.709" x2="47.725" y1="-2" y2="16" gradientUnits="userSpaceOnUse">
            <stop offset=".318" stop-color="#D9D9D9" stop-opacity="0"/>
            <stop offset=".994" stop-color="#fff"/>
        </linearGradient>
        <linearGradient id="19paint11_linear_82_518" x1="67.5" x2="67.5" y1="62" y2="84.5" gradientUnits="userSpaceOnUse">
            <stop stop-color="#FDE5A8"/>
            <stop offset="1" stop-color="#FDE5A8" stop-opacity="0"/>
        </linearGradient>
        <clipPath id="19clip0_82_518">
            <path fill="#fff" d="M0 0h100v100H0z"/>
        </clipPath>
    </defs>
</svg>