<svg xmlns="http://www.w3.org/2000/svg" xmlns:xlink="http://www.w3.org/1999/xlink" width="100" height="100" fill="none" viewBox="0 0 100 100">
    <defs>
        <path id="24reuse-0" fill="#282536" fill-opacity=".8" d="M5 63.5C5 56.596 10.596 51 17.5 51S30 56.596 30 63.5V90H5V63.5Z"/>
        <path id="24reuse-1" fill="#fff" d="M35.286 12h48.81L96 41H21l14.286-29Z"/>
        <path id="24reuse-2" d="M0-.25h56.552"/>
    </defs>
    <g clip-path="url(#24clip0_90_1233)">
        <use xlink:href="#24reuse-0" fill-opacity=".8"/>
        <mask id="24mask0_90_1233" width="25" height="39" x="5" y="51" maskUnits="userSpaceOnUse" style="mask-type:alpha">
            <use xlink:href="#24reuse-0"/>
        </mask>
        <g mask="url(#24mask0_90_1233)">
            <path fill="#fff" d="M33.125 48.4H-2.813v14.857a15.304 15.304 0 0 0 18.099-1.45l.18-.156a7.814 7.814 0 0 1 7.437-1.563l10.222 3.17V48.4Z"/>
        </g>
        <path fill="#282536" d="M19 69h2v22h-2zM16 69h2v22h-2zM13 69h2v22h-2zM10 69h2v22h-2zM7 69h2v22H7z"/>
        <path fill="#282536" d="M21 87v2H4v-2zM21 72v2H4v-2z"/>
        <path fill="#282536" d="M4 69h2v22H4z"/>
        <path fill="#403C54" d="M21 41h75v53H21z"/>
        <path stroke="#282536" stroke-opacity=".6" d="M21 92.5h75M21 90.5h75M21 67.5h75M21 44.5h75"/>
        <path stroke="#282536" stroke-width=".5" d="M22 40a18.138 18.138 0 0 0 11.846 4.403h1.076c5.084 0 9.996-1.842 13.827-5.184L49 39"/>
        <path fill="#FDE5A8" d="M35.096 45.2a.567.567 0 1 1-.97-.587.567.567 0 0 1 .97.587Z"/>
        <path fill="#435A4E" d="M37.567 45.006c-.168.385-.694.443-.965.106a.551.551 0 0 1 .36-.905c.44-.048.778.4.605.8Z"/>
        <path fill="#B13434" d="M31.648 45.006c.168.385.694.443.965.106a.551.551 0 0 0-.36-.905c-.44-.048-.778.4-.605.8ZM39.987 44.564c-.118.4-.64.51-.954.2-.322-.319-.183-.838.25-.929.43-.09.825.318.704.73Z"/>
        <path fill="#435A4E" d="M29.179 44.565c.117.4.64.51.953.2.323-.318.184-.837-.248-.928-.431-.09-.826.316-.705.727Z"/>
        <path fill="#FDE5A8" d="M42.373 43.85c-.06.412-.574.581-.932.307-.361-.279-.291-.802.126-.94.418-.137.866.216.806.633ZM26.825 43.898c.067.411.582.573.934.294.358-.283.28-.807-.14-.938-.42-.132-.862.227-.794.644Z"/>
        <path fill="#435A4E" d="M44.56 42.925c-.005.418-.507.643-.9.404-.392-.237-.382-.757.017-.936.399-.18.889.116.883.532Z"/>
        <path fill="#B13434" d="M24.642 42.973c.006.418.507.643.9.404.392-.237.383-.757-.017-.936-.398-.18-.888.116-.883.532ZM46.61 41.793c.046.418-.438.698-.862.497-.413-.197-.458-.707-.08-.924.376-.217.896.018.941.427Z"/>
        <path fill="#435A4E" d="M22.605 41.84c-.046.42.438.699.861.498.413-.197.458-.707.081-.924-.376-.217-.896.018-.942.427Z"/>
        <path stroke="#282536" stroke-width=".5" d="m45 39 1.217.958a20.73 20.73 0 0 0 12.826 4.445c5.135 0 10.147-1.96 13.957-5.403"/>
        <path fill="#FDE5A8" d="M59.589 45.178a.557.557 0 1 1-.963-.562.557.557 0 0 1 .963.562Z"/>
        <path fill="#435A4E" d="M61.97 44.984c-.163.389-.691.449-.956.108a.546.546 0 0 1 .363-.885c.428-.048.758.384.593.777Z"/>
        <path fill="#B13434" d="M56.237 44.984c.163.389.692.449.956.108a.546.546 0 0 0-.363-.885c-.427-.048-.758.384-.593.777ZM64.303 44.543c-.115.404-.637.517-.943.204-.306-.313-.163-.82.257-.912.42-.09.802.303.686.708Z"/>
        <path fill="#435A4E" d="M53.856 44.543c.114.404.637.518.943.206.307-.313.165-.82-.255-.912-.42-.092-.803.301-.688.706Z"/>
        <path fill="#FDE5A8" d="M66.604 43.832c-.059.415-.57.589-.917.312-.345-.274-.27-.789.137-.927.405-.138.838.203.78.615ZM51.586 43.88c.065.413.578.58.921.3.34-.28.257-.794-.15-.926-.408-.133-.835.214-.77.625Z"/>
        <path fill="#435A4E" d="M68.713 42.91c-.005.42-.5.651-.882.411-.374-.235-.358-.748.03-.928.386-.18.858.106.852.517Z"/>
        <path fill="#B13434" d="M49.482 42.959c.005.42.5.65.882.41.375-.235.358-.748-.03-.928-.386-.18-.857.106-.852.517ZM70.69 41.783c.046.42-.429.704-.839.502-.396-.195-.434-.701-.069-.92.365-.217.865.013.909.418Z"/>
        <path fill="#435A4E" d="M47.517 41.831c-.046.42.43.704.839.502.396-.195.434-.701.07-.92-.366-.217-.866.013-.91.418Z"/>
        <path stroke="#282536" stroke-width=".5" d="m69 39 1.64 1.291a19.177 19.177 0 0 0 11.864 4.112h2.583c3.778 0 7.38-1.6 9.913-4.403"/>
        <path fill="#FDE5A8" d="M83.589 45.178a.557.557 0 1 1-.963-.562.557.557 0 0 1 .963.562Z"/>
        <path fill="#435A4E" d="M85.97 44.984c-.163.389-.692.449-.956.108a.546.546 0 0 1 .363-.885c.428-.048.758.384.593.777Z"/>
        <path fill="#B13434" d="M80.237 44.984c.163.389.692.449.956.108a.546.546 0 0 0-.363-.885c-.427-.048-.758.384-.593.777ZM88.303 44.543c-.115.404-.638.517-.943.204-.306-.313-.163-.82.257-.912.42-.09.802.303.686.708Z"/>
        <path fill="#435A4E" d="M77.856 44.543c.114.404.637.518.943.206.307-.313.165-.82-.256-.912-.42-.092-.802.301-.687.706Z"/>
        <path fill="#FDE5A8" d="M90.604 43.832c-.059.415-.57.589-.917.312-.345-.274-.27-.789.137-.927.405-.138.838.203.78.615ZM75.586 43.88c.065.413.578.58.921.3.34-.28.257-.794-.15-.926-.408-.133-.835.214-.77.625Z"/>
        <path fill="#435A4E" d="M92.713 42.91c-.005.42-.5.651-.882.411-.374-.235-.358-.748.03-.928.386-.18.858.106.852.517Z"/>
        <path fill="#B13434" d="M73.482 42.959c.005.42.5.65.882.41.375-.235.358-.748-.03-.928-.386-.18-.857.106-.852.517ZM94.69 41.783c.046.42-.429.704-.839.502-.396-.195-.434-.701-.069-.92.365-.217.865.013.909.418Z"/>
        <path fill="#435A4E" d="M71.517 41.831c-.046.42.43.704.839.502.396-.195.434-.701.07-.92-.366-.217-.866.013-.91.418Z"/>
        <path fill="url(#24paint0_linear_90_1233)" d="M43.727-8H51a25.861 25.861 0 0 0 0 15h-7.273L41.91 3.25a10.62 10.62 0 0 1-.6-7.736l.146-.478L43.727-8Z"/>
        <path fill="#403C54" d="M42.818 6H51v12h-8.182z"/>
        <use xlink:href="#24reuse-1"/>
        <mask id="24mask1_90_1233" width="75" height="29" x="21" y="12" maskUnits="userSpaceOnUse" style="mask-type:alpha">
            <use xlink:href="#24reuse-1"/>
        </mask>
        <g stroke="#F4F4F5" stroke-width=".5" mask="url(#24mask1_90_1233)">
            <use xlink:href="#24reuse-2" transform="matrix(.34225 .9396 -.98135 .19223 15.545 .42)"/>
            <use xlink:href="#24reuse-2" transform="matrix(-.34225 .9396 .98135 .19223 102.206 1.42)"/>
            <use xlink:href="#24reuse-2" transform="matrix(.34225 .9396 -.98135 .19223 23.992 -.355)"/>
            <use xlink:href="#24reuse-2" transform="matrix(-.34225 .9396 .98135 .19223 93.76 .645)"/>
            <use xlink:href="#24reuse-2" transform="matrix(.34225 .9396 -.98135 .19223 32.438 -1.129)"/>
            <use xlink:href="#24reuse-2" transform="matrix(-.34225 .9396 .98135 .19223 85.313 -.129)"/>
            <use xlink:href="#24reuse-2" transform="matrix(.34225 .9396 -.98135 .19223 40.884 -1.903)"/>
            <use xlink:href="#24reuse-2" transform="matrix(-.34225 .9396 .98135 .19223 76.867 -.903)"/>
            <use xlink:href="#24reuse-2" transform="matrix(.34225 .9396 -.98135 .19223 49.33 -2.677)"/>
            <use xlink:href="#24reuse-2" transform="matrix(-.34225 .9396 .98135 .19223 68.42 -1.677)"/>
            <use xlink:href="#24reuse-2" transform="matrix(.34225 .9396 -.98135 .19223 57.776 -3.452)"/>
            <use xlink:href="#24reuse-2" transform="matrix(-.34225 .9396 .98135 .19223 59.975 -2.452)"/>
            <use xlink:href="#24reuse-2" transform="matrix(.34225 .9396 -.98135 .19223 66.222 -4.226)"/>
            <use xlink:href="#24reuse-2" transform="matrix(-.34225 .9396 .98135 .19223 51.529 -3.226)"/>
            <use xlink:href="#24reuse-2" transform="matrix(.34225 .9396 -.98135 .19223 74.668 -5)"/>
            <use xlink:href="#24reuse-2" transform="matrix(-.34225 .9396 .98135 .19223 43.083 -4)"/>
        </g>
        <path fill="#fff" d="m47.858 52.744.168-3.384c.48-.272 1.08-.496 1.8-.672a9.591 9.591 0 0 1 2.424-.288c1.856 0 3.2.392 4.032 1.176.832.784 1.248 1.768 1.248 2.952 0 1.104-.496 2.176-1.488 3.216s-2.416 2.24-4.272 3.6c-.352.256-.76.568-1.224.936-.448.352-.888.712-1.32 1.08h8.736V64H47.498v-1.944a159.097 159.097 0 0 0 3.288-3.288c1.168-1.2 2.032-2.264 2.592-3.192.56-.944.84-1.936.84-2.976 0-1.056-.2-1.904-.6-2.544-.4-.64-.984-.96-1.752-.96-.512 0-.968.12-1.368.36-.384.24-.704.648-.96 1.224l-.936 2.064h-.744ZM65.866 64v-3.912H59.53v-1.464l7.032-10.056h2.232v9.672h2.304v1.848h-2.304V64h-2.928Zm-5.064-5.76h5.064v-7.248l-5.064 7.248ZM74 41h2v.625L75 46l-1-4.375V41ZM73 41h1v.375L73.5 44l-.5-2.625V41Z"/>
        <path fill="#282536" d="M26 48h15v16H26z"/>
        <path fill="#403C54" d="M26.5 48.47h14v15.06h-14V48.47Z"/>
        <path fill="currentColor" d="M27 48.941h5.909v6.516H27zM34.091 48.941H40v6.516h-5.909zM34.091 56.543H40v6.516h-5.909zM27 56.543h5.909v6.516H27z"/>
        <path fill="#282536" d="M76 48h15v16H76z"/>
        <path fill="#403C54" d="M76.5 48.47h14v15.06h-14V48.47Z"/>
        <path fill="currentColor" d="M77 48.941h5.909v6.516H77zM84.091 48.941H90v6.516h-5.909zM84.091 56.543H90v6.516h-5.909zM77 56.543h5.909v6.516H77z"/>
        <path fill="#fff" d="M76.656 63.5c.559-.636 1.364-1 2.21-1H83.5l4.495.122c.66.018 1.275.342 1.661.878h-13Z"/>
        <path fill="#282536" d="M51 71h15v16H51z"/>
        <path fill="#403C54" d="M51.5 71.47h14v15.06h-14V71.47Z"/>
        <path fill="currentColor" d="M52 71.941h5.909v6.516H52zM59.091 71.941H65v6.516h-5.909zM59.091 79.543H65v6.516h-5.909zM52 79.543h5.909v6.516H52z"/>
        <path fill="#fff" d="M34 95c1.254-1.28 2.97-2 4.761-2h10.506l10.184.247A4.702 4.702 0 0 1 63 95H34Z"/>
        <path fill="#282536" d="M76 71h15v16H76z"/>
        <path fill="#403C54" d="M76.5 71.47h14v15.06h-14V71.47Z"/>
        <path fill="currentColor" d="M77 71.941h5.909v6.516H77zM84.091 71.941H90v6.516h-5.909zM84.091 79.543H90v6.516h-5.909zM77 79.543h5.909v6.516H77z"/>
        <path fill="#fff" d="M84.406 86.5a2.496 2.496 0 0 1 2.446-2h.712l.847.1a2.293 2.293 0 0 1 1.995 1.9h-6Z"/>
        <path fill="#fff" d="M79 86.5c.9-.64 2.018-.898 3.108-.716l1.298.216.04-.037A.936.936 0 0 1 85 86.5h-6Z"/>
        <path fill="#282536" d="M26 71h15v16H26z"/>
        <path fill="#403C54" d="M26.5 71.47h14v15.06h-14V71.47Z"/>
        <path fill="currentColor" d="M27 71.941h5.909v6.516H27zM34.091 71.941H40v6.516h-5.909zM34.091 79.543H40v6.516h-5.909zM27 79.543h5.909v6.516H27z"/>
        <path fill="#435A4E" d="m46.457 78.89-1.83.659.345-1.915 1.485 1.256Z"/>
        <path fill="#435A4E" d="m45.619 78.739-1.83.659.344-1.914 1.486 1.255Z"/>
        <path fill="#435A4E" d="m42.837 78.239 1.178.995.273-1.518-1.451.523ZM46.469 79.126l-.344 1.914-1.486-1.255 1.83-.66Z"/>
        <path fill="#435A4E" d="m45.919 79.776-.344 1.915-1.486-1.255 1.83-.66Z"/>
        <path fill="#435A4E" d="m44.095 81.936 1.451-.523-1.178-.995-.273 1.518Z"/>
        <circle cx="47.137" cy="79.713" r=".56" fill="#B13434" transform="rotate(-43.128 47.137 79.713)"/>
        <circle cx="47.106" cy="78.546" r=".56" fill="#B13434" transform="rotate(-43.128 47.106 78.546)"/>
        <circle cx="48.166" cy="79.107" r=".56" fill="#B13434" transform="rotate(-43.128 48.166 79.107)"/>
        <path fill="#435A4E" d="m70.397 78.882 1.855.583-.422-1.898-1.433 1.315Z"/>
        <path fill="#435A4E" d="m71.228 78.697 1.856.583-.423-1.898-1.433 1.315Z"/>
        <path fill="#435A4E" d="m73.987 78.083-1.136 1.043-.335-1.506 1.471.463ZM70.395 79.118l.422 1.899L72.25 79.7l-1.855-.583Z"/>
        <path fill="#435A4E" d="m70.971 79.746.423 1.898 1.432-1.315-1.855-.583Z"/>
        <path fill="#435A4E" d="m72.882 81.828-1.471-.462 1.136-1.043.335 1.505Z"/>
        <circle r=".56" fill="#B13434" transform="scale(-1 1) rotate(-40.769 72.41 133.72)"/>
        <circle r=".56" fill="#B13434" transform="scale(-1 1) rotate(-40.769 70.848 133.115)"/>
        <circle r=".56" fill="#B13434" transform="scale(-1 1) rotate(-40.769 72.179 132.023)"/>
    </g>
    <defs>
        <linearGradient id="24paint0_linear_90_1233" x1="47.364" x2="47.364" y1="-7.107" y2="11" gradientUnits="userSpaceOnUse">
            <stop offset=".422" stop-color="#D9D9D9" stop-opacity="0"/>
            <stop offset=".828" stop-color="#F5F5F5"/>
        </linearGradient>
        <clipPath id="24clip0_90_1233">
            <path fill="#fff" d="M0 0h100v100H0z"/>
        </clipPath>
    </defs>
</svg>