<svg xmlns="http://www.w3.org/2000/svg" width="100" height="100" fill="none" viewBox="0 0 100 100">
    <g clip-path="url(#clip0_58_560)">
        <path fill="#282536" d="m87.5 44 9.093 42H78.407L87.5 44ZM27 80h4v10h-4z"/>
        <path fill="#282536" d="m29 15 14.722 68.25H14.278L29 15ZM86 80h3v10h-3z"/>
        <path fill="#403C54" d="M31 41h55v53H31z"/>
        <path stroke="#282536" stroke-opacity=".6" d="M31 89h55M31 43h55M31 91h55"/>
        <path stroke="#282536" stroke-width=".5" d="m60 39-1.42 1.154a22.405 22.405 0 0 1-29.416-1L29 39"/>
        <path fill="#FDE5A8" d="M43.835 46.038a.627.627 0 1 0 1.092-.617.627.627 0 0 0-1.092.617Z"/>
        <path fill="#435A4E" d="M41.202 45.815c.182.448.788.52 1.083.127a.618.618 0 0 0-.417-.991.637.637 0 0 0-.666.864Z"/>
        <path fill="#B13434" d="M47.569 45.815c-.182.448-.789.52-1.084.127a.618.618 0 0 1 .417-.991.637.637 0 0 1 .667.864ZM38.622 45.313c.129.464.726.598 1.066.238a.61.61 0 0 0-.3-1.025c-.468-.104-.892.33-.766.787Z"/>
        <path fill="#435A4E" d="M50.201 45.313c-.127.465-.725.6-1.066.24a.61.61 0 0 1 .299-1.025c.468-.105.892.329.767.785Z"/>
        <path fill="#FDE5A8" d="M36.079 44.503c.065.477.646.681 1.033.364.377-.31.285-.889-.167-1.047-.452-.16-.93.218-.866.683ZM52.71 44.557c-.072.476-.655.672-1.037.35-.373-.316-.272-.893.182-1.046.454-.152.926.232.856.696Z"/>
        <path fill="#435A4E" d="M33.746 43.454c.006.482.566.751.99.476.41-.266.385-.846-.046-1.053-.43-.206-.95.111-.944.577Z"/>
        <path fill="#B13434" d="M55.038 43.51c-.006.481-.566.75-.99.475-.41-.266-.385-.846.045-1.053.43-.206.95.112.945.577ZM31.558 42.171c-.05.48.483.81.937.579.436-.222.473-.797.068-1.046-.406-.25-.957.007-1.006.467Z"/>
        <path fill="#435A4E" d="M57.213 42.226c.05.48-.483.81-.938.579-.436-.222-.473-.796-.067-1.046.405-.25.957.007 1.005.467Z"/>
        <path stroke="#282536" stroke-width=".5" d="m85.5 39.5-.948.785a21.265 21.265 0 0 1-28.324-1.065L56 39"/>
        <path fill="#FDE5A8" d="M70.344 46.015a.617.617 0 1 0 1.082-.592.617.617 0 0 0-1.082.592Z"/>
        <path fill="#435A4E" d="M67.8 45.792a.617.617 0 0 0 1.072.13.612.612 0 0 0-.419-.971.622.622 0 0 0-.654.84Z"/>
        <path fill="#B13434" d="M73.979 45.792a.617.617 0 0 1-1.073.13.612.612 0 0 1 .419-.971.622.622 0 0 1 .654.84ZM65.306 45.29c.125.467.722.606 1.054.244a.608.608 0 0 0-.307-1.008.626.626 0 0 0-.747.764Z"/>
        <path fill="#435A4E" d="M76.523 45.29c-.124.468-.722.607-1.053.246a.608.608 0 0 1 .305-1.008.626.626 0 0 1 .748.763Z"/>
        <path fill="#FDE5A8" d="M62.848 44.483c.063.48.642.69 1.017.37a.603.603 0 0 0-.176-1.034c-.44-.16-.902.206-.841.664ZM78.949 44.537c-.07.478-.651.68-1.022.356a.604.604 0 0 1 .191-1.032c.442-.153.898.218.831.676Z"/>
        <path fill="#435A4E" d="M60.593 43.44c.006.483.56.757.97.481a.6.6 0 0 0-.056-1.044c-.418-.207-.92.101-.914.562Z"/>
        <path fill="#B13434" d="M81.198 43.494c-.006.484-.56.759-.97.483a.6.6 0 0 1 .056-1.044c.418-.208.92.1.914.561ZM58.476 42.16c-.049.483.475.816.916.585.418-.22.45-.79.056-1.041-.394-.25-.926 0-.972.457Z"/>
        <path fill="#435A4E" d="M83.302 42.216c.048.482-.475.816-.916.584a.598.598 0 0 1-.056-1.041c.394-.25.926 0 .972.457Z"/>
        <path fill="url(#paint0_linear_58_560)" d="M65.333-8H72a28.022 28.022 0 0 0 0 15h-6.667l-1.666-3.75a11.397 11.397 0 0 1-.56-7.702l.143-.512L65.333-8Z"/>
        <path fill="#282536" d="M64 6h8v12h-8z"/>
        <path fill="#282536" d="M41 13.32A2 2 0 0 1 42.88 12h32.903a2 2 0 0 1 1.915 1.424L86 41H31l10-27.68Z"/>
        <mask id="mask0_58_560" width="55" height="29" x="31" y="12" maskUnits="userSpaceOnUse" style="mask-type:alpha">
            <path fill="#282536" d="M41.476 12H77.27L86 41H31l10.476-29Z"/>
        </mask>
        <g stroke="#403C54" stroke-width=".5" mask="url(#mask0_58_560)">
            <path d="M33 35.75h55M33 32.75h55M33 29.75h55M33 26.75h55M33 23.75h55M33 20.75h55M33 17.75h55M33 14.75h55"/>
        </g>
        <path fill="#282536" d="M40 71h11v22H40z"/>
        <path fill="#fff" d="M31 41a7.487 7.487 0 0 1 7.109-3.916L58.5 38.5l22.52-2.047A4.566 4.566 0 0 1 86 41H31ZM70.944 65.336c-1.92 0-3.384-.368-4.392-1.104l.144-2.928h.624l.936 1.776c.288.544.648.944 1.08 1.2.432.256.928.384 1.488.384.912 0 1.608-.336 2.088-1.008.496-.688.744-1.696.744-3.024 0-2.512-1.024-3.768-3.072-3.768-.4 0-.816.048-1.248.144a5.574 5.574 0 0 0-1.2.408l-.504-.288.528-7.392h8.352v2.64h-7.656l-.312 4.008a6.476 6.476 0 0 1 1.368-.6 5.58 5.58 0 0 1 1.728-.264c1.6 0 2.904.408 3.912 1.224 1.008.816 1.512 2.008 1.512 3.576 0 1.072-.264 1.984-.792 2.736-.528.736-1.256 1.304-2.184 1.704-.912.384-1.96.576-3.144.576Z"/>
        <path fill="#403C54" d="M49 83h1v2h-1z"/>
        <path fill="#282536" d="M37 93h16v2H37z"/>
        <path fill="#fff" d="M75 95c-.505-3.472-3.975-5.686-7.337-4.682l-4.642 1.388-2.764-1.293C56.66 88.732 52.472 91.058 52 95h23Z"/>
        <path fill="#282536" d="M13 84h4v7h-4z"/>
        <path fill="#282536" d="m15 35 11.258 51H3.742L15 35Z"/>
        <path fill="#fff" d="M84 41h-2v.625L83 46l1-4.375V41ZM82 41h-1v.375L81.5 44l.5-2.625V41Z"/>
        <circle cx="57.5" cy="76.5" r="3.25" stroke="#435A4E" stroke-width="2.5"/>
        <path fill="#B13434" d="M55 78.353a.2.2 0 0 1 .303-.171L57.5 79.5l2.197-1.318a.2.2 0 0 1 .303.171v2.352a.2.2 0 0 1-.274.185L57.5 80l-2.226.89a.2.2 0 0 1-.274-.185v-2.352Z"/>
        <path fill="#B13434" d="M57.667 80H58l.667 3h-1v-3ZM57.333 80H57l-.667 3h1v-3Z"/>
        <path fill="#B13434" d="M57 79.5h1v1h-1v-1Z"/>
        <path fill="currentColor" d="M41 73h4.091v2.308H41zM45.909 73H50v2.308h-4.091zM45.909 75.692H50V78h-4.091zM41 75.692h4.091V78H41z"/>
        <path fill="#282536" d="M38.833 50h13.333v16H38.833z"/>
        <path fill="#403C54" d="M39.278 50.47h12.444v15.06H39.278V50.47Z"/>
        <path fill="currentColor" d="M39.722 50.941h5.253v6.516h-5.253zM46.025 50.941h5.253v6.516h-5.253zM46.025 58.543h5.253v6.516h-5.253zM39.722 58.543h5.253v6.516h-5.253z"/>
        <path fill="#282536" d="M65 69h15v18H65z"/>
        <path fill="#403C54" d="M65.5 69.53h14v16.94h-14V69.53Z"/>
        <path fill="currentColor" d="M66 70.059h5.909v7.33H66zM73.091 70.059H79v7.33h-5.909zM73.091 78.611H79v7.33h-5.909zM66 78.611h5.909v7.33H66z"/>
    </g>
    <defs>
        <linearGradient id="paint0_linear_58_560" x1="68.667" x2="68.667" y1="-7.107" y2="11" gradientUnits="userSpaceOnUse">
            <stop offset=".391" stop-color="#D9D9D9" stop-opacity="0"/>
            <stop offset=".813" stop-color="#F5F5F5"/>
        </linearGradient>
        <clipPath id="clip0_58_560">
            <path fill="#fff" d="M0 0h100v100H0z"/>
        </clipPath>
    </defs>
</svg>